{"glyphs":{"0":{"ha":853,"x_min":68,"x_max":785,"o":"m 785 407 q 738 190 785 285 q 610 40 692 94 q 426 -14 529 -14 q 242 40 324 -14 q 115 190 161 94 q 68 407 68 285 q 115 624 68 529 q 242 774 161 719 q 426 829 324 829 q 610 774 529 829 q 738 624 692 719 q 785 407 785 529 m 597 407 q 576 538 597 482 q 515 626 554 594 q 426 658 476 658 q 336 626 375 658 q 276 538 297 594 q 254 407 254 482 q 276 276 254 332 q 336 189 297 221 q 426 157 375 157 q 515 189 476 157 q 575 277 553 221 q 597 407 597 333 z "},"1":{"ha":686,"x_min":61,"x_max":653,"o":"m 653 168 l 653 0 l 89 0 l 89 168 l 286 168 l 286 589 q 247 555 274 572 q 188 522 221 538 q 121 497 154 507 q 61 488 88 488 l 61 661 q 122 677 86 661 q 192 715 157 693 q 253 759 228 738 q 286 793 279 781 l 476 793 l 476 168 l 653 168 z "},"2":{"ha":783,"x_min":53,"x_max":722,"o":"m 53 0 q 63 113 53 63 q 97 206 72 163 q 163 287 121 249 q 271 361 206 325 q 371 415 328 392 q 444 457 414 438 q 489 497 474 476 q 504 543 504 517 q 489 594 504 571 q 446 631 474 617 q 376 644 418 644 q 315 636 343 644 q 262 613 286 628 q 217 578 238 597 q 179 539 196 560 l 61 675 q 113 717 81 694 q 191 760 146 740 q 291 794 236 781 q 408 807 346 807 q 569 777 503 807 q 672 694 636 747 q 707 571 707 642 q 689 485 707 522 q 643 419 671 447 q 583 368 615 390 q 519 329 550 346 q 442 288 476 307 q 381 251 407 269 q 334 213 354 232 q 299 168 314 193 l 722 168 l 722 0 l 53 0 z "},"3":{"ha":775,"x_min":39,"x_max":722,"o":"m 529 328 q 631 284 588 318 q 698 197 674 250 q 722 81 722 144 q 678 -69 722 -6 q 552 -169 633 -133 q 361 -204 471 -204 q 174 -170 256 -204 q 39 -71 93 -136 l 144 61 q 231 -9 181 17 q 356 -35 282 -35 q 485 -1 440 -35 q 529 101 529 33 q 478 213 529 174 q 322 251 426 251 l 283 251 l 283 390 l 326 390 q 459 429 411 390 q 507 526 507 468 q 489 589 507 564 q 440 626 471 614 q 367 639 408 639 q 253 610 304 639 q 169 528 201 581 l 53 658 q 133 733 82 701 q 249 782 183 764 q 388 800 315 800 q 553 769 482 800 q 665 683 625 739 q 706 554 706 628 q 683 451 706 500 q 622 370 661 403 q 529 328 582 338 z "},"4":{"ha":793,"x_min":28,"x_max":742,"o":"m 433 -176 l 433 31 l 28 31 l 28 196 l 493 793 l 619 793 l 619 197 l 742 197 l 742 31 l 619 31 l 619 -176 l 433 -176 m 214 197 l 454 197 l 454 511 l 214 197 z "},"5":{"ha":769,"x_min":40,"x_max":726,"o":"m 364 -207 q 171 -161 257 -207 q 40 -36 85 -115 l 147 75 q 244 -11 186 21 q 365 -43 303 -43 q 453 -22 415 -43 q 514 36 492 -1 q 536 122 536 74 q 515 207 536 171 q 458 263 494 243 q 376 283 422 283 q 291 263 331 283 q 228 206 251 243 l 65 206 l 179 793 l 665 793 l 665 624 l 314 624 l 274 403 q 324 431 292 419 q 403 443 356 443 q 569 403 496 443 q 685 291 643 363 q 726 126 726 219 q 679 -48 726 28 q 550 -165 632 -124 q 364 -207 468 -207 z "},"6":{"ha":843,"x_min":64,"x_max":788,"o":"m 788 329 q 742 497 788 422 q 619 615 697 571 q 443 658 542 658 q 357 645 397 658 q 286 608 317 632 q 236 550 256 583 q 264 702 239 639 q 335 799 289 765 q 443 832 381 832 q 557 802 504 832 q 643 721 610 772 l 750 838 q 617 953 696 913 q 446 993 539 993 q 243 930 329 993 q 110 742 157 867 q 64 439 64 618 q 108 196 64 297 q 234 40 153 94 q 426 -14 315 -14 q 610 32 529 -14 q 740 156 692 78 q 788 329 788 233 m 426 143 q 338 169 379 143 q 271 237 296 194 q 246 329 246 279 q 270 420 246 379 q 336 485 294 461 q 428 510 378 510 q 519 485 478 510 q 585 420 560 461 q 610 329 610 379 q 585 237 610 279 q 518 169 560 194 q 426 143 476 143 z "},"7":{"ha":779,"x_min":39,"x_max":781,"o":"m 488 640 l 39 640 l 39 810 l 781 810 l 292 -176 l 81 -176 l 488 640 z "},"8":{"ha":839,"x_min":61,"x_max":778,"o":"m 778 292 q 728 132 778 200 q 597 26 679 64 q 418 -12 515 -12 q 238 28 319 -12 q 109 138 157 68 q 61 299 61 208 q 85 399 61 354 q 144 477 108 444 q 215 528 179 510 q 153 572 182 544 q 108 636 125 600 q 92 713 92 672 q 121 829 92 778 q 199 916 150 881 q 305 969 247 951 q 419 986 363 986 q 533 969 475 986 q 640 917 592 951 q 719 831 689 882 q 749 714 749 781 q 731 638 749 675 q 685 573 714 601 q 621 528 657 544 q 697 474 661 507 q 756 394 733 440 q 778 292 778 349 m 589 303 q 575 366 589 339 q 536 412 561 393 q 481 440 511 431 q 418 450 450 450 q 335 432 374 450 q 274 381 297 414 q 250 303 250 347 q 265 242 250 269 q 303 196 279 215 q 358 166 328 176 q 419 156 388 156 q 503 175 464 156 q 565 228 542 194 q 589 303 589 261 m 281 707 q 301 643 281 669 q 355 603 322 617 q 419 590 388 590 q 484 604 453 590 q 537 644 515 618 q 558 708 558 669 q 539 768 558 743 q 488 807 519 793 q 418 821 457 821 q 350 807 382 821 q 299 767 318 793 q 281 707 281 742 z "},"9":{"ha":818,"x_min":44,"x_max":768,"o":"m 44 450 q 90 283 44 357 q 213 165 135 208 q 388 121 292 121 q 474 134 435 121 q 545 172 514 147 q 594 229 576 197 q 567 77 593 140 q 497 -19 542 14 q 389 -53 451 -53 q 274 -23 328 -53 q 188 58 221 7 l 81 -58 q 214 -174 135 -133 q 386 -214 293 -214 q 589 -150 503 -214 q 722 38 675 -86 q 768 340 768 161 q 724 584 768 483 q 598 739 679 685 q 404 793 517 793 q 221 747 303 793 q 92 624 139 701 q 44 450 44 546 m 404 636 q 494 610 453 636 q 561 542 536 585 q 586 450 586 500 q 561 359 586 400 q 495 294 536 318 q 404 269 454 269 q 313 294 354 269 q 247 359 271 318 q 222 450 222 400 q 247 543 222 501 q 314 610 272 585 q 404 636 356 636 z "},"A":{"ha":933,"x_min":7,"x_max":928,"o":"m 371 986 l 565 986 l 928 0 l 731 0 l 639 246 l 294 246 l 204 0 l 7 0 l 371 986 m 604 381 l 468 788 l 326 381 l 604 381 z "},"Á":{"ha":933,"x_min":7,"x_max":928,"o":"m 371 986 l 565 986 l 928 0 l 731 0 l 639 246 l 294 246 l 204 0 l 7 0 l 371 986 m 604 381 l 468 788 l 326 381 l 604 381 m 529 1069 l 410 1106 l 485 1271 l 658 1271 l 529 1069 z "},"Ă":{"ha":933,"x_min":7,"x_max":928,"o":"m 371 986 l 565 986 l 928 0 l 731 0 l 639 246 l 294 246 l 204 0 l 7 0 l 371 986 m 604 381 l 468 788 l 326 381 l 604 381 m 468 1168 q 524 1197 500 1168 q 551 1271 547 1226 l 650 1271 q 599 1138 650 1190 q 468 1085 549 1085 q 338 1138 389 1085 q 286 1271 286 1190 l 386 1271 q 411 1199 386 1229 q 468 1168 436 1168 z "},"Ắ":{"ha":933,"x_min":7,"x_max":928,"o":"m 371 986 l 565 986 l 928 0 l 731 0 l 639 246 l 294 246 l 204 0 l 7 0 l 371 986 m 604 381 l 468 788 l 326 381 l 604 381 z "},"Ặ":{"ha":933,"x_min":7,"x_max":928,"o":"m 371 986 l 565 986 l 928 0 l 731 0 l 639 246 l 294 246 l 204 0 l 7 0 l 371 986 m 604 381 l 468 788 l 326 381 l 604 381 m 397 -276 l 397 -101 l 565 -101 l 565 -276 l 397 -276 m 468 1168 q 524 1197 500 1168 q 551 1271 547 1226 l 650 1271 q 599 1138 650 1190 q 468 1085 549 1085 q 338 1138 389 1085 q 286 1271 286 1190 l 386 1271 q 411 1199 386 1229 q 468 1168 436 1168 z "},"Ằ":{"ha":933,"x_min":7,"x_max":928,"o":"m 371 986 l 565 986 l 928 0 l 731 0 l 639 246 l 294 246 l 204 0 l 7 0 l 371 986 m 604 381 l 468 788 l 326 381 l 604 381 z "},"Ẳ":{"ha":933,"x_min":7,"x_max":928,"o":"m 371 986 l 565 986 l 928 0 l 731 0 l 639 246 l 294 246 l 204 0 l 7 0 l 371 986 m 604 381 l 468 788 l 326 381 l 604 381 z "},"Ẵ":{"ha":933,"x_min":7,"x_max":928,"o":"m 371 986 l 565 986 l 928 0 l 731 0 l 639 246 l 294 246 l 204 0 l 7 0 l 371 986 m 604 381 l 468 788 l 326 381 l 604 381 z "},"Â":{"ha":933,"x_min":7,"x_max":928,"o":"m 371 986 l 565 986 l 928 0 l 731 0 l 639 246 l 294 246 l 204 0 l 7 0 l 371 986 m 604 381 l 468 788 l 326 381 l 604 381 m 253 1131 l 400 1271 l 535 1271 l 682 1131 l 586 1086 l 468 1174 l 350 1086 l 253 1131 z "},"Ấ":{"ha":933,"x_min":7,"x_max":928,"o":"m 371 986 l 565 986 l 928 0 l 731 0 l 639 246 l 294 246 l 204 0 l 7 0 l 371 986 m 604 381 l 468 788 l 326 381 l 604 381 z "},"Ậ":{"ha":933,"x_min":7,"x_max":928,"o":"m 371 986 l 565 986 l 928 0 l 731 0 l 639 246 l 294 246 l 204 0 l 7 0 l 371 986 m 604 381 l 468 788 l 326 381 l 604 381 m 397 -276 l 397 -101 l 565 -101 l 565 -276 l 397 -276 m 253 1131 l 400 1271 l 535 1271 l 682 1131 l 586 1086 l 468 1174 l 350 1086 l 253 1131 z "},"Ầ":{"ha":933,"x_min":7,"x_max":928,"o":"m 371 986 l 565 986 l 928 0 l 731 0 l 639 246 l 294 246 l 204 0 l 7 0 l 371 986 m 604 381 l 468 788 l 326 381 l 604 381 z "},"Ẩ":{"ha":933,"x_min":7,"x_max":928,"o":"m 371 986 l 565 986 l 928 0 l 731 0 l 639 246 l 294 246 l 204 0 l 7 0 l 371 986 m 604 381 l 468 788 l 326 381 l 604 381 z "},"Ẫ":{"ha":933,"x_min":7,"x_max":928,"o":"m 371 986 l 565 986 l 928 0 l 731 0 l 639 246 l 294 246 l 204 0 l 7 0 l 371 986 m 604 381 l 468 788 l 326 381 l 604 381 z "},"Ȁ":{"ha":933,"x_min":7,"x_max":928,"o":"m 371 986 l 565 986 l 928 0 l 731 0 l 639 246 l 294 246 l 204 0 l 7 0 l 371 986 m 604 381 l 468 788 l 326 381 l 604 381 m 431 1272 l 576 1272 l 642 1107 l 550 1071 l 431 1272 m 208 1272 l 353 1272 l 419 1107 l 328 1071 l 208 1272 z "},"Ä":{"ha":933,"x_min":7,"x_max":928,"o":"m 371 986 l 565 986 l 928 0 l 731 0 l 639 246 l 294 246 l 204 0 l 7 0 l 371 986 m 604 381 l 468 788 l 326 381 l 604 381 m 257 1097 l 257 1263 l 411 1263 l 411 1097 l 257 1097 m 524 1097 l 524 1263 l 678 1263 l 678 1097 l 524 1097 z "},"Ạ":{"ha":933,"x_min":7,"x_max":928,"o":"m 371 986 l 565 986 l 928 0 l 731 0 l 639 246 l 294 246 l 204 0 l 7 0 l 371 986 m 604 381 l 468 788 l 326 381 l 604 381 m 397 -276 l 397 -101 l 565 -101 l 565 -276 l 397 -276 z "},"À":{"ha":933,"x_min":7,"x_max":928,"o":"m 371 986 l 565 986 l 928 0 l 731 0 l 639 246 l 294 246 l 204 0 l 7 0 l 371 986 m 604 381 l 468 788 l 326 381 l 604 381 m 294 1272 l 467 1272 l 543 1107 l 424 1071 l 294 1272 z "},"Ả":{"ha":933,"x_min":7,"x_max":928,"o":"m 371 986 l 565 986 l 928 0 l 731 0 l 639 246 l 294 246 l 204 0 l 7 0 l 371 986 m 604 381 l 468 788 l 326 381 l 604 381 m 397 1211 l 340 1268 q 408 1316 374 1300 q 479 1332 442 1332 q 565 1302 535 1332 q 594 1229 594 1272 q 573 1156 594 1189 q 506 1085 551 1122 l 458 1136 q 492 1172 482 1156 q 503 1206 503 1188 q 492 1233 503 1222 q 464 1244 482 1244 q 432 1237 446 1244 q 397 1211 418 1229 z "},"Ȃ":{"ha":933,"x_min":7,"x_max":928,"o":"m 371 986 l 565 986 l 928 0 l 731 0 l 639 246 l 294 246 l 204 0 l 7 0 l 371 986 m 604 381 l 468 788 l 326 381 l 604 381 m 468 1188 q 411 1157 436 1188 q 386 1085 386 1126 l 286 1085 q 338 1218 286 1165 q 468 1271 389 1271 q 599 1218 549 1271 q 650 1085 650 1165 l 551 1085 q 524 1158 547 1129 q 468 1188 500 1188 z "},"Ā":{"ha":933,"x_min":7,"x_max":928,"o":"m 371 986 l 565 986 l 928 0 l 731 0 l 639 246 l 294 246 l 204 0 l 7 0 l 371 986 m 604 381 l 468 788 l 326 381 l 604 381 m 261 1136 l 261 1251 l 678 1251 l 678 1136 l 261 1136 z "},"Ą":{"ha":933,"x_min":7,"x_max":928,"o":"m 371 986 l 565 986 l 928 0 l 731 0 l 639 246 l 294 246 l 204 0 l 7 0 l 371 986 m 604 381 l 468 788 l 326 381 l 604 381 m 704 -153 q 739 -58 704 -106 q 846 29 774 -11 l 904 29 l 926 0 q 849 -66 875 -36 q 822 -121 822 -96 q 849 -158 822 -146 q 926 -172 876 -171 l 889 -278 q 778 -252 819 -271 q 721 -207 738 -233 q 704 -153 704 -181 z "},"Å":{"ha":933,"x_min":7,"x_max":928,"o":"m 371 986 l 565 986 l 928 0 l 731 0 l 639 246 l 294 246 l 204 0 l 7 0 l 371 986 m 604 381 l 468 788 l 326 381 l 604 381 m 322 1167 q 363 1259 322 1225 q 468 1293 404 1293 q 574 1259 533 1293 q 614 1167 614 1225 q 574 1076 614 1110 q 468 1042 533 1042 q 363 1076 404 1042 q 322 1167 322 1110 m 468 1228 q 425 1210 443 1228 q 407 1168 407 1193 q 424 1125 407 1143 q 468 1107 442 1107 q 511 1124 493 1107 q 529 1168 529 1142 q 511 1210 529 1193 q 468 1228 493 1228 z "},"Ǻ":{"ha":933,"x_min":7,"x_max":928,"o":"m 514 1115 l 394 1147 l 469 1297 l 643 1297 l 514 1115 m 371 986 l 565 986 l 928 0 l 731 0 l 639 246 l 294 246 l 204 0 l 7 0 l 371 986 m 604 381 l 468 788 l 326 381 l 604 381 m 322 1057 q 363 1149 322 1115 q 468 1183 403 1183 q 574 1149 533 1183 q 614 1057 614 1115 q 574 967 614 1001 q 468 933 533 933 q 363 967 403 933 q 322 1057 322 1001 m 468 1118 q 425 1101 443 1118 q 407 1058 407 1085 q 424 1015 407 1033 q 468 997 442 997 q 511 1015 493 997 q 529 1058 529 1033 q 511 1101 529 1085 q 468 1118 493 1118 z "},"Ã":{"ha":933,"x_min":7,"x_max":928,"o":"m 371 986 l 565 986 l 928 0 l 731 0 l 639 246 l 294 246 l 204 0 l 7 0 l 371 986 m 604 381 l 468 788 l 326 381 l 604 381 m 558 1093 q 487 1109 517 1093 q 432 1140 457 1125 q 376 1156 407 1156 q 331 1140 346 1156 q 313 1107 317 1124 q 310 1089 310 1090 l 207 1089 q 215 1131 207 1101 q 242 1191 224 1160 q 292 1244 261 1222 q 369 1267 324 1267 q 440 1250 413 1267 q 494 1217 468 1233 q 553 1201 519 1201 q 601 1218 586 1201 q 622 1251 617 1235 q 626 1271 626 1268 l 729 1271 q 721 1233 729 1261 q 692 1173 713 1206 q 640 1117 672 1140 q 558 1093 607 1093 z "},"Æ":{"ha":1342,"x_min":-35,"x_max":1294,"o":"m 581 986 l 1282 986 l 1282 818 l 819 818 l 819 586 l 1207 586 l 1207 418 l 819 418 l 819 168 l 1294 168 l 1294 0 l 631 0 l 631 246 l 314 246 l 168 0 l -35 0 l 581 986 m 617 413 l 617 771 l 396 413 l 617 413 z "},"Ǽ":{"ha":1342,"x_min":-35,"x_max":1294,"o":"m 581 986 l 1282 986 l 1282 818 l 819 818 l 819 586 l 1207 586 l 1207 418 l 819 418 l 819 168 l 1294 168 l 1294 0 l 631 0 l 631 246 l 314 246 l 168 0 l -35 0 l 581 986 m 617 413 l 617 771 l 396 413 l 617 413 m 913 1069 l 793 1106 l 868 1271 l 1042 1271 l 913 1069 z "},"B":{"ha":944,"x_min":103,"x_max":897,"o":"m 897 254 q 854 115 897 171 q 738 29 811 58 q 579 0 665 0 l 103 0 l 103 986 l 631 986 q 751 949 700 986 q 828 855 801 913 q 856 735 856 797 q 819 600 856 664 q 714 506 783 536 q 848 415 799 481 q 897 254 897 350 m 704 290 q 689 358 704 328 q 648 405 674 388 q 589 422 622 422 l 294 422 l 294 163 l 579 163 q 642 180 614 163 q 688 226 671 197 q 704 290 704 256 m 294 822 l 294 574 l 550 574 q 608 589 582 574 q 651 632 635 604 q 667 699 667 660 q 652 764 667 736 q 613 807 638 792 q 558 822 589 822 l 294 822 z "},"C":{"ha":953,"x_min":43,"x_max":926,"o":"m 43 500 q 76 677 43 590 q 171 835 108 764 q 324 949 233 907 q 529 992 414 992 q 765 932 665 992 q 913 776 864 872 l 765 675 q 700 763 740 731 q 614 809 660 796 q 524 822 568 822 q 398 793 451 822 q 308 717 344 764 q 255 611 272 669 q 238 494 238 553 q 258 369 238 429 q 317 262 279 308 q 409 188 356 215 q 526 161 463 161 q 619 176 572 161 q 707 225 667 192 q 769 311 747 258 l 926 221 q 831 96 897 147 q 683 18 765 44 q 521 -8 601 -8 q 328 35 415 -8 q 177 152 240 79 q 78 316 114 225 q 43 500 43 407 z "},"Ć":{"ha":953,"x_min":43,"x_max":926,"o":"m 43 500 q 76 677 43 590 q 171 835 108 764 q 324 949 233 907 q 529 992 414 992 q 765 932 665 992 q 913 776 864 872 l 765 675 q 700 763 740 731 q 614 809 660 796 q 524 822 568 822 q 398 793 451 822 q 308 717 344 764 q 255 611 272 669 q 238 494 238 553 q 258 369 238 429 q 317 262 279 308 q 409 188 356 215 q 526 161 463 161 q 619 176 572 161 q 707 225 667 192 q 769 311 747 258 l 926 221 q 831 96 897 147 q 683 18 765 44 q 521 -8 601 -8 q 328 35 415 -8 q 177 152 240 79 q 78 316 114 225 q 43 500 43 407 m 590 1069 l 471 1106 l 546 1271 l 719 1271 l 590 1069 z "},"Č":{"ha":953,"x_min":43,"x_max":926,"o":"m 43 500 q 76 677 43 590 q 171 835 108 764 q 324 949 233 907 q 529 992 414 992 q 765 932 665 992 q 913 776 864 872 l 765 675 q 700 763 740 731 q 614 809 660 796 q 524 822 568 822 q 398 793 451 822 q 308 717 344 764 q 255 611 272 669 q 238 494 238 553 q 258 369 238 429 q 317 262 279 308 q 409 188 356 215 q 526 161 463 161 q 619 176 572 161 q 707 225 667 192 q 769 311 747 258 l 926 221 q 831 96 897 147 q 683 18 765 44 q 521 -8 601 -8 q 328 35 415 -8 q 177 152 240 79 q 78 316 114 225 q 43 500 43 407 m 411 1271 l 529 1183 l 647 1271 l 743 1226 l 596 1086 l 461 1086 l 314 1226 l 411 1271 z "},"Ç":{"ha":953,"x_min":43,"x_max":926,"o":"m 43 500 q 76 677 43 590 q 171 835 108 764 q 324 949 233 907 q 529 992 414 992 q 765 932 665 992 q 913 776 864 872 l 765 675 q 700 763 740 731 q 614 809 660 796 q 524 822 568 822 q 398 793 451 822 q 308 717 344 764 q 255 611 272 669 q 238 494 238 553 q 258 369 238 429 q 317 262 279 308 q 409 188 356 215 q 526 161 463 161 q 619 176 572 161 q 707 225 667 192 q 769 311 747 258 l 926 221 q 831 96 897 147 q 683 18 765 44 q 521 -8 601 -8 q 328 35 415 -8 q 177 152 240 79 q 78 316 114 225 q 43 500 43 407 m 503 -279 q 422 -269 465 -279 q 336 -237 379 -258 l 383 -139 q 426 -160 404 -153 q 471 -168 447 -168 q 527 -152 507 -168 q 547 -106 547 -136 q 527 -51 547 -76 q 469 0 507 -25 l 532 40 q 624 -38 588 4 q 660 -142 660 -81 q 620 -240 660 -200 q 503 -279 581 -279 z "},"Ḉ":{"ha":953,"x_min":43,"x_max":926,"o":"m 43 500 q 76 677 43 590 q 171 835 108 764 q 324 949 233 907 q 529 992 414 992 q 765 932 665 992 q 913 776 864 872 l 765 675 q 700 763 740 731 q 614 809 660 796 q 524 822 568 822 q 398 793 451 822 q 308 717 344 764 q 255 611 272 669 q 238 494 238 553 q 258 369 238 429 q 317 262 279 308 q 409 188 356 215 q 526 161 463 161 q 619 176 572 161 q 707 225 667 192 q 769 311 747 258 l 926 221 q 831 96 897 147 q 683 18 765 44 q 521 -8 601 -8 q 328 35 415 -8 q 177 152 240 79 q 78 316 114 225 q 43 500 43 407 m 503 -279 q 422 -269 465 -279 q 336 -237 379 -258 l 383 -139 q 426 -160 404 -153 q 471 -168 447 -168 q 527 -152 507 -168 q 547 -106 547 -136 q 527 -51 547 -76 q 469 0 507 -25 l 532 40 q 624 -38 588 4 q 660 -142 660 -81 q 620 -240 660 -200 q 503 -279 581 -279 m 590 1069 l 471 1106 l 546 1271 l 719 1271 l 590 1069 z "},"Ĉ":{"ha":953,"x_min":43,"x_max":926,"o":"m 43 500 q 76 677 43 590 q 171 835 108 764 q 324 949 233 907 q 529 992 414 992 q 765 932 665 992 q 913 776 864 872 l 765 675 q 700 763 740 731 q 614 809 660 796 q 524 822 568 822 q 398 793 451 822 q 308 717 344 764 q 255 611 272 669 q 238 494 238 553 q 258 369 238 429 q 317 262 279 308 q 409 188 356 215 q 526 161 463 161 q 619 176 572 161 q 707 225 667 192 q 769 311 747 258 l 926 221 q 831 96 897 147 q 683 18 765 44 q 521 -8 601 -8 q 328 35 415 -8 q 177 152 240 79 q 78 316 114 225 q 43 500 43 407 m 314 1131 l 461 1271 l 596 1271 l 743 1131 l 647 1086 l 529 1174 l 411 1086 l 314 1131 z "},"Ċ":{"ha":953,"x_min":43,"x_max":926,"o":"m 43 500 q 76 677 43 590 q 171 835 108 764 q 324 949 233 907 q 529 992 414 992 q 765 932 665 992 q 913 776 864 872 l 765 675 q 700 763 740 731 q 614 809 660 796 q 524 822 568 822 q 398 793 451 822 q 308 717 344 764 q 255 611 272 669 q 238 494 238 553 q 258 369 238 429 q 317 262 279 308 q 409 188 356 215 q 526 161 463 161 q 619 176 572 161 q 707 225 667 192 q 769 311 747 258 l 926 221 q 831 96 897 147 q 683 18 765 44 q 521 -8 601 -8 q 328 35 415 -8 q 177 152 240 79 q 78 316 114 225 q 43 500 43 407 m 444 1096 l 444 1271 l 613 1271 l 613 1096 l 444 1096 z "},"D":{"ha":994,"x_min":103,"x_max":947,"o":"m 103 0 l 103 986 l 461 986 q 731 920 622 986 q 893 742 839 854 q 947 494 947 631 q 888 233 947 344 q 719 61 828 122 q 461 0 610 0 l 103 0 m 754 494 q 719 663 754 590 q 619 777 685 736 q 461 818 554 818 l 294 818 l 294 168 l 461 168 q 621 210 556 168 q 720 327 686 253 q 754 494 754 401 z "},"Ð":{"ha":1001,"x_min":43,"x_max":954,"o":"m 43 426 l 43 565 l 494 565 l 494 426 l 43 426 m 110 0 l 110 986 l 468 986 q 738 920 629 986 q 900 742 846 854 q 954 494 954 631 q 894 233 954 344 q 726 61 835 122 q 468 0 617 0 l 110 0 m 761 494 q 726 663 761 590 q 626 777 692 736 q 468 818 561 818 l 301 818 l 301 168 l 468 168 q 628 210 563 168 q 727 327 693 253 q 761 494 761 401 z "},"Ď":{"ha":994,"x_min":103,"x_max":947,"o":"m 103 0 l 103 986 l 461 986 q 731 920 622 986 q 893 742 839 854 q 947 494 947 631 q 888 233 947 344 q 719 61 828 122 q 461 0 610 0 l 103 0 m 754 494 q 719 663 754 590 q 619 777 685 736 q 461 818 554 818 l 294 818 l 294 168 l 461 168 q 621 210 556 168 q 720 327 686 253 q 754 494 754 401 m 340 1271 l 458 1183 l 576 1271 l 672 1226 l 525 1086 l 390 1086 l 243 1226 l 340 1271 z "},"Đ":{"ha":1001,"x_min":43,"x_max":954,"o":"m 43 426 l 43 565 l 494 565 l 494 426 l 43 426 m 110 0 l 110 986 l 468 986 q 738 920 629 986 q 900 742 846 854 q 954 494 954 631 q 894 233 954 344 q 726 61 835 122 q 468 0 617 0 l 110 0 m 761 494 q 726 663 761 590 q 626 777 692 736 q 468 818 561 818 l 301 818 l 301 168 l 468 168 q 628 210 563 168 q 727 327 693 253 q 761 494 761 401 z "},"Ḍ":{"ha":994,"x_min":103,"x_max":947,"o":"m 103 0 l 103 986 l 461 986 q 731 920 622 986 q 893 742 839 854 q 947 494 947 631 q 888 233 947 344 q 719 61 828 122 q 461 0 610 0 l 103 0 m 754 494 q 719 663 754 590 q 619 777 685 736 q 461 818 554 818 l 294 818 l 294 168 l 461 168 q 621 210 556 168 q 720 327 686 253 q 754 494 754 401 m 414 -276 l 414 -101 l 582 -101 l 582 -276 l 414 -276 z "},"Ḏ":{"ha":994,"x_min":103,"x_max":947,"o":"m 103 0 l 103 986 l 461 986 q 731 920 622 986 q 893 742 839 854 q 947 494 947 631 q 888 233 947 344 q 719 61 828 122 q 461 0 610 0 l 103 0 m 754 494 q 719 663 754 590 q 619 777 685 736 q 461 818 554 818 l 294 818 l 294 168 l 461 168 q 621 210 556 168 q 720 327 686 253 q 754 494 754 401 m 289 -226 l 289 -111 l 706 -111 l 706 -226 l 289 -226 z "},"E":{"ha":835,"x_min":103,"x_max":788,"o":"m 788 168 l 788 0 l 103 0 l 103 986 l 775 986 l 775 818 l 294 818 l 294 581 l 710 581 l 710 425 l 294 425 l 294 168 l 788 168 z "},"É":{"ha":835,"x_min":103,"x_max":788,"o":"m 788 168 l 788 0 l 103 0 l 103 986 l 775 986 l 775 818 l 294 818 l 294 581 l 710 581 l 710 425 l 294 425 l 294 168 l 788 168 m 514 1069 l 394 1106 l 469 1271 l 643 1271 l 514 1069 z "},"Ĕ":{"ha":835,"x_min":103,"x_max":788,"o":"m 788 168 l 788 0 l 103 0 l 103 986 l 775 986 l 775 818 l 294 818 l 294 581 l 710 581 l 710 425 l 294 425 l 294 168 l 788 168 m 453 1168 q 508 1197 485 1168 q 536 1271 532 1226 l 635 1271 q 584 1138 635 1190 q 453 1085 533 1085 q 322 1138 374 1085 q 271 1271 271 1190 l 371 1271 q 396 1199 371 1229 q 453 1168 421 1168 z "},"Ě":{"ha":835,"x_min":103,"x_max":788,"o":"m 788 168 l 788 0 l 103 0 l 103 986 l 775 986 l 775 818 l 294 818 l 294 581 l 710 581 l 710 425 l 294 425 l 294 168 l 788 168 m 335 1271 l 453 1183 l 571 1271 l 667 1226 l 519 1086 l 385 1086 l 238 1226 l 335 1271 z "},"Ḝ":{"ha":835,"x_min":103,"x_max":788,"o":"m 788 168 l 788 0 l 103 0 l 103 986 l 775 986 l 775 818 l 294 818 l 294 581 l 710 581 l 710 425 l 294 425 l 294 168 l 788 168 m 433 -279 q 353 -269 396 -279 q 267 -237 310 -258 l 314 -139 q 356 -160 335 -153 q 401 -168 378 -168 q 458 -152 438 -168 q 478 -106 478 -136 q 458 -51 478 -76 q 400 0 438 -25 l 463 40 q 554 -38 518 4 q 590 -142 590 -81 q 551 -240 590 -200 q 433 -279 511 -279 m 453 1168 q 508 1197 485 1168 q 536 1271 532 1226 l 635 1271 q 584 1138 635 1190 q 453 1085 533 1085 q 322 1138 374 1085 q 271 1271 271 1190 l 371 1271 q 396 1199 371 1229 q 453 1168 421 1168 z "},"Ê":{"ha":835,"x_min":103,"x_max":788,"o":"m 788 168 l 788 0 l 103 0 l 103 986 l 775 986 l 775 818 l 294 818 l 294 581 l 710 581 l 710 425 l 294 425 l 294 168 l 788 168 m 238 1131 l 385 1271 l 519 1271 l 667 1131 l 571 1086 l 453 1174 l 335 1086 l 238 1131 z "},"Ế":{"ha":835,"x_min":103,"x_max":835,"o":"m 788 168 l 788 0 l 103 0 l 103 986 l 775 986 l 775 818 l 294 818 l 294 581 l 710 581 l 710 425 l 294 425 l 294 168 l 788 168 z "},"Ệ":{"ha":835,"x_min":103,"x_max":788,"o":"m 788 168 l 788 0 l 103 0 l 103 986 l 775 986 l 775 818 l 294 818 l 294 581 l 710 581 l 710 425 l 294 425 l 294 168 l 788 168 m 369 -276 l 369 -101 l 538 -101 l 538 -276 l 369 -276 m 238 1131 l 385 1271 l 519 1271 l 667 1131 l 571 1086 l 453 1174 l 335 1086 l 238 1131 z "},"Ề":{"ha":835,"x_min":58,"x_max":788,"o":"m 788 168 l 788 0 l 103 0 l 103 986 l 775 986 l 775 818 l 294 818 l 294 581 l 710 581 l 710 425 l 294 425 l 294 168 l 788 168 z "},"Ể":{"ha":835,"x_min":103,"x_max":788,"o":"m 788 168 l 788 0 l 103 0 l 103 986 l 775 986 l 775 818 l 294 818 l 294 581 l 710 581 l 710 425 l 294 425 l 294 168 l 788 168 z "},"Ễ":{"ha":835,"x_min":103,"x_max":788,"o":"m 788 168 l 788 0 l 103 0 l 103 986 l 775 986 l 775 818 l 294 818 l 294 581 l 710 581 l 710 425 l 294 425 l 294 168 l 788 168 z "},"Ȅ":{"ha":835,"x_min":103,"x_max":788,"o":"m 788 168 l 788 0 l 103 0 l 103 986 l 775 986 l 775 818 l 294 818 l 294 581 l 710 581 l 710 425 l 294 425 l 294 168 l 788 168 m 415 1272 l 561 1272 l 626 1107 l 535 1071 l 415 1272 m 193 1272 l 338 1272 l 404 1107 l 313 1071 l 193 1272 z "},"Ë":{"ha":835,"x_min":103,"x_max":788,"o":"m 788 168 l 788 0 l 103 0 l 103 986 l 775 986 l 775 818 l 294 818 l 294 581 l 710 581 l 710 425 l 294 425 l 294 168 l 788 168 m 242 1097 l 242 1263 l 396 1263 l 396 1097 l 242 1097 m 508 1097 l 508 1263 l 663 1263 l 663 1097 l 508 1097 z "},"Ė":{"ha":835,"x_min":103,"x_max":788,"o":"m 788 168 l 788 0 l 103 0 l 103 986 l 775 986 l 775 818 l 294 818 l 294 581 l 710 581 l 710 425 l 294 425 l 294 168 l 788 168 m 369 1096 l 369 1271 l 538 1271 l 538 1096 l 369 1096 z "},"Ẹ":{"ha":835,"x_min":103,"x_max":788,"o":"m 788 168 l 788 0 l 103 0 l 103 986 l 775 986 l 775 818 l 294 818 l 294 581 l 710 581 l 710 425 l 294 425 l 294 168 l 788 168 m 369 -276 l 369 -101 l 538 -101 l 538 -276 l 369 -276 z "},"È":{"ha":835,"x_min":103,"x_max":788,"o":"m 788 168 l 788 0 l 103 0 l 103 986 l 775 986 l 775 818 l 294 818 l 294 581 l 710 581 l 710 425 l 294 425 l 294 168 l 788 168 m 279 1272 l 451 1272 l 528 1107 l 408 1071 l 279 1272 z "},"Ẻ":{"ha":835,"x_min":103,"x_max":788,"o":"m 788 168 l 788 0 l 103 0 l 103 986 l 775 986 l 775 818 l 294 818 l 294 581 l 710 581 l 710 425 l 294 425 l 294 168 l 788 168 m 382 1211 l 325 1268 q 392 1316 358 1300 q 464 1332 426 1332 q 549 1302 519 1332 q 579 1229 579 1272 q 558 1156 579 1189 q 490 1085 536 1122 l 443 1136 q 477 1172 467 1156 q 488 1206 488 1188 q 477 1233 488 1222 q 449 1244 467 1244 q 417 1237 431 1244 q 382 1211 403 1229 z "},"Ȇ":{"ha":835,"x_min":103,"x_max":788,"o":"m 788 168 l 788 0 l 103 0 l 103 986 l 775 986 l 775 818 l 294 818 l 294 581 l 710 581 l 710 425 l 294 425 l 294 168 l 788 168 m 453 1188 q 396 1157 421 1188 q 371 1085 371 1126 l 271 1085 q 322 1218 271 1165 q 453 1271 374 1271 q 584 1218 533 1271 q 635 1085 635 1165 l 536 1085 q 508 1158 532 1129 q 453 1188 485 1188 z "},"Ē":{"ha":835,"x_min":103,"x_max":788,"o":"m 788 168 l 788 0 l 103 0 l 103 986 l 775 986 l 775 818 l 294 818 l 294 581 l 710 581 l 710 425 l 294 425 l 294 168 l 788 168 m 246 1136 l 246 1251 l 663 1251 l 663 1136 l 246 1136 z "},"Ḗ":{"ha":835,"x_min":103,"x_max":788,"o":"m 788 168 l 788 0 l 103 0 l 103 986 l 775 986 l 775 818 l 294 818 l 294 581 l 710 581 l 710 425 l 294 425 l 294 168 l 788 168 m 246 1136 l 246 1251 l 663 1251 l 663 1136 l 246 1136 m 515 1336 l 396 1372 l 471 1538 l 644 1538 l 515 1336 z "},"Ḕ":{"ha":835,"x_min":103,"x_max":788,"o":"m 788 168 l 788 0 l 103 0 l 103 986 l 775 986 l 775 818 l 294 818 l 294 581 l 710 581 l 710 425 l 294 425 l 294 168 l 788 168 m 246 1136 l 246 1251 l 663 1251 l 663 1136 l 246 1136 m 281 1538 l 453 1538 l 529 1372 l 410 1336 l 281 1538 z "},"Ę":{"ha":835,"x_min":103,"x_max":788,"o":"m 788 168 l 788 0 l 103 0 l 103 986 l 775 986 l 775 818 l 294 818 l 294 581 l 710 581 l 710 425 l 294 425 l 294 168 l 788 168 m 565 -153 q 600 -58 565 -106 q 707 29 635 -11 l 765 29 l 788 0 q 710 -66 736 -36 q 683 -121 683 -96 q 710 -158 683 -146 q 788 -172 738 -171 l 750 -278 q 640 -252 681 -271 q 582 -207 599 -233 q 565 -153 565 -181 z "},"Ẽ":{"ha":835,"x_min":103,"x_max":788,"o":"m 788 168 l 788 0 l 103 0 l 103 986 l 775 986 l 775 818 l 294 818 l 294 581 l 710 581 l 710 425 l 294 425 l 294 168 l 788 168 m 543 1093 q 472 1109 501 1093 q 417 1140 442 1125 q 361 1156 392 1156 q 316 1140 331 1156 q 298 1107 301 1124 q 294 1089 294 1090 l 192 1089 q 200 1131 192 1101 q 227 1191 208 1160 q 277 1244 246 1222 q 354 1267 308 1267 q 425 1250 397 1267 q 478 1217 453 1233 q 538 1201 504 1201 q 586 1218 571 1201 q 606 1251 601 1235 q 611 1271 611 1268 l 714 1271 q 706 1233 714 1261 q 677 1173 697 1206 q 624 1117 657 1140 q 543 1093 592 1093 z "},"F":{"ha":797,"x_min":103,"x_max":765,"o":"m 103 0 l 103 986 l 765 986 l 765 818 l 294 818 l 294 564 l 686 564 l 686 408 l 294 408 l 294 0 l 103 0 z "},"G":{"ha":1007,"x_min":44,"x_max":946,"o":"m 513 -7 q 331 32 417 -7 q 181 140 246 71 q 81 300 117 208 q 44 499 44 392 q 81 690 44 600 q 182 847 117 779 q 335 954 247 915 q 525 993 422 993 q 763 934 664 993 q 913 778 863 875 l 769 672 q 665 785 732 746 q 518 824 597 824 q 404 797 456 824 q 315 725 353 771 q 258 619 278 679 q 238 493 238 560 q 259 363 238 422 q 320 258 281 303 q 413 188 360 214 q 529 163 465 163 q 673 201 604 163 q 801 315 742 240 l 801 126 q 513 -7 678 -7 m 788 367 l 589 367 l 589 507 l 946 507 l 946 0 l 788 0 l 788 367 z "},"Ğ":{"ha":1007,"x_min":44,"x_max":946,"o":"m 513 -7 q 331 32 417 -7 q 181 140 246 71 q 81 300 117 208 q 44 499 44 392 q 81 690 44 600 q 182 847 117 779 q 335 954 247 915 q 525 993 422 993 q 763 934 664 993 q 913 778 863 875 l 769 672 q 665 785 732 746 q 518 824 597 824 q 404 797 456 824 q 315 725 353 771 q 258 619 278 679 q 238 493 238 560 q 259 363 238 422 q 320 258 281 303 q 413 188 360 214 q 529 163 465 163 q 673 201 604 163 q 801 315 742 240 l 801 126 q 513 -7 678 -7 m 788 367 l 589 367 l 589 507 l 946 507 l 946 0 l 788 0 l 788 367 m 524 1168 q 579 1197 556 1168 q 607 1271 603 1226 l 706 1271 q 655 1138 706 1190 q 524 1085 604 1085 q 393 1138 444 1085 q 342 1271 342 1190 l 442 1271 q 467 1199 442 1229 q 524 1168 492 1168 z "},"Ǧ":{"ha":1007,"x_min":44,"x_max":946,"o":"m 513 -7 q 331 32 417 -7 q 181 140 246 71 q 81 300 117 208 q 44 499 44 392 q 81 690 44 600 q 182 847 117 779 q 335 954 247 915 q 525 993 422 993 q 763 934 664 993 q 913 778 863 875 l 769 672 q 665 785 732 746 q 518 824 597 824 q 404 797 456 824 q 315 725 353 771 q 258 619 278 679 q 238 493 238 560 q 259 363 238 422 q 320 258 281 303 q 413 188 360 214 q 529 163 465 163 q 673 201 604 163 q 801 315 742 240 l 801 126 q 513 -7 678 -7 m 788 367 l 589 367 l 589 507 l 946 507 l 946 0 l 788 0 l 788 367 m 407 1271 l 525 1183 l 643 1271 l 739 1226 l 592 1086 l 457 1086 l 310 1226 l 407 1271 z "},"Ĝ":{"ha":1007,"x_min":44,"x_max":946,"o":"m 513 -7 q 331 32 417 -7 q 181 140 246 71 q 81 300 117 208 q 44 499 44 392 q 81 690 44 600 q 182 847 117 779 q 335 954 247 915 q 525 993 422 993 q 763 934 664 993 q 913 778 863 875 l 769 672 q 665 785 732 746 q 518 824 597 824 q 404 797 456 824 q 315 725 353 771 q 258 619 278 679 q 238 493 238 560 q 259 363 238 422 q 320 258 281 303 q 413 188 360 214 q 529 163 465 163 q 673 201 604 163 q 801 315 742 240 l 801 126 q 513 -7 678 -7 m 788 367 l 589 367 l 589 507 l 946 507 l 946 0 l 788 0 l 788 367 m 310 1131 l 457 1271 l 592 1271 l 739 1131 l 643 1086 l 525 1174 l 407 1086 l 310 1131 z "},"Ģ":{"ha":1007,"x_min":44,"x_max":946,"o":"m 513 -7 q 331 32 417 -7 q 181 140 246 71 q 81 300 117 208 q 44 499 44 392 q 81 690 44 600 q 182 847 117 779 q 335 954 247 915 q 525 993 422 993 q 763 934 664 993 q 913 778 863 875 l 769 672 q 665 785 732 746 q 518 824 597 824 q 404 797 456 824 q 315 725 353 771 q 258 619 278 679 q 238 493 238 560 q 259 363 238 422 q 320 258 281 303 q 413 188 360 214 q 529 163 465 163 q 673 201 604 163 q 801 315 742 240 l 801 126 q 513 -7 678 -7 m 788 367 l 589 367 l 589 507 l 946 507 l 946 0 l 788 0 l 788 367 m 450 -296 l 488 -196 l 433 -196 l 433 -65 l 590 -65 l 590 -196 l 535 -296 l 450 -296 z "},"Ġ":{"ha":1007,"x_min":44,"x_max":946,"o":"m 513 -7 q 331 32 417 -7 q 181 140 246 71 q 81 300 117 208 q 44 499 44 392 q 81 690 44 600 q 182 847 117 779 q 335 954 247 915 q 525 993 422 993 q 763 934 664 993 q 913 778 863 875 l 769 672 q 665 785 732 746 q 518 824 597 824 q 404 797 456 824 q 315 725 353 771 q 258 619 278 679 q 238 493 238 560 q 259 363 238 422 q 320 258 281 303 q 413 188 360 214 q 529 163 465 163 q 673 201 604 163 q 801 315 742 240 l 801 126 q 513 -7 678 -7 m 788 367 l 589 367 l 589 507 l 946 507 l 946 0 l 788 0 l 788 367 m 440 1096 l 440 1271 l 608 1271 l 608 1096 l 440 1096 z "},"Ḡ":{"ha":1007,"x_min":44,"x_max":946,"o":"m 513 -7 q 331 32 417 -7 q 181 140 246 71 q 81 300 117 208 q 44 499 44 392 q 81 690 44 600 q 182 847 117 779 q 335 954 247 915 q 525 993 422 993 q 763 934 664 993 q 913 778 863 875 l 769 672 q 665 785 732 746 q 518 824 597 824 q 404 797 456 824 q 315 725 353 771 q 258 619 278 679 q 238 493 238 560 q 259 363 238 422 q 320 258 281 303 q 413 188 360 214 q 529 163 465 163 q 673 201 604 163 q 801 315 742 240 l 801 126 q 513 -7 678 -7 m 788 367 l 589 367 l 589 507 l 946 507 l 946 0 l 788 0 l 788 367 m 317 1136 l 317 1251 l 733 1251 l 733 1136 l 317 1136 z "},"H":{"ha":1035,"x_min":103,"x_max":932,"o":"m 932 986 l 932 0 l 742 0 l 742 421 l 294 421 l 294 0 l 103 0 l 103 986 l 294 986 l 294 588 l 742 588 l 742 986 l 932 986 z "},"Ħ":{"ha":1046,"x_min":39,"x_max":1007,"o":"m 39 740 l 39 846 l 1007 846 l 1007 740 l 39 740 m 938 986 l 938 0 l 747 0 l 747 421 l 300 421 l 300 0 l 108 0 l 108 986 l 300 986 l 300 588 l 747 588 l 747 986 l 938 986 z "},"Ḫ":{"ha":1035,"x_min":103,"x_max":932,"o":"m 932 986 l 932 0 l 742 0 l 742 421 l 294 421 l 294 0 l 103 0 l 103 986 l 294 986 l 294 588 l 742 588 l 742 986 l 932 986 m 518 -176 q 574 -147 550 -176 q 601 -74 597 -118 l 700 -74 q 649 -207 700 -154 q 518 -260 599 -260 q 388 -207 439 -260 q 336 -74 336 -154 l 436 -74 q 461 -146 436 -115 q 518 -176 486 -176 z "},"Ĥ":{"ha":1035,"x_min":103,"x_max":932,"o":"m 932 986 l 932 0 l 742 0 l 742 421 l 294 421 l 294 0 l 103 0 l 103 986 l 294 986 l 294 588 l 742 588 l 742 986 l 932 986 m 307 1131 l 454 1271 l 589 1271 l 736 1131 l 640 1086 l 522 1174 l 404 1086 l 307 1131 z "},"Ḥ":{"ha":1035,"x_min":103,"x_max":932,"o":"m 932 986 l 932 0 l 742 0 l 742 421 l 294 421 l 294 0 l 103 0 l 103 986 l 294 986 l 294 588 l 742 588 l 742 986 l 932 986 m 435 -276 l 435 -101 l 603 -101 l 603 -276 l 435 -276 z "},"I":{"ha":397,"x_min":103,"x_max":294,"o":"m 103 0 l 103 986 l 294 986 l 294 0 l 103 0 z "},"Í":{"ha":397,"x_min":103,"x_max":389,"o":"m 103 0 l 103 986 l 294 986 l 294 0 l 103 0 m 260 1069 l 140 1106 l 215 1271 l 389 1271 l 260 1069 z "},"Ĭ":{"ha":397,"x_min":17,"x_max":381,"o":"m 103 0 l 103 986 l 294 986 l 294 0 l 103 0 m 197 1168 q 253 1197 229 1168 q 281 1271 276 1226 l 379 1271 q 328 1138 379 1190 q 197 1085 278 1085 q 67 1138 118 1085 q 15 1271 15 1190 l 115 1271 q 140 1199 115 1229 q 197 1168 165 1168 z "},"Î":{"ha":397,"x_min":-17,"x_max":413,"o":"m 103 0 l 103 986 l 294 986 l 294 0 l 103 0 m -17 1131 l 131 1271 l 265 1271 l 413 1131 l 317 1086 l 199 1174 l 81 1086 l -17 1131 z "},"Ȉ":{"ha":397,"x_min":-62,"x_max":372,"o":"m 103 0 l 103 986 l 294 986 l 294 0 l 103 0 m 160 1272 l 306 1272 l 371 1107 l 279 1071 l 160 1272 m -62 1272 l 82 1272 l 149 1107 l 57 1071 l -62 1272 z "},"Ï":{"ha":397,"x_min":-12,"x_max":408,"o":"m 103 0 l 103 986 l 294 986 l 294 0 l 103 0 m -12 1097 l -12 1263 l 142 1263 l 142 1097 l -12 1097 m 254 1097 l 254 1263 l 408 1263 l 408 1097 l 254 1097 z "},"Ḯ":{"ha":397,"x_min":-12,"x_max":408,"o":"m 103 0 l 103 986 l 294 986 l 294 0 l 103 0 m -12 1097 l -12 1263 l 142 1263 l 142 1097 l -12 1097 m 254 1097 l 254 1263 l 408 1263 l 408 1097 l 254 1097 m 260 1343 l 140 1379 l 215 1544 l 389 1544 l 260 1343 z "},"İ":{"ha":397,"x_min":103,"x_max":294,"o":"m 103 0 l 103 986 l 294 986 l 294 0 l 103 0 m 114 1096 l 114 1271 l 282 1271 l 282 1096 l 114 1096 z "},"Ị":{"ha":397,"x_min":103,"x_max":294,"o":"m 103 0 l 103 986 l 294 986 l 294 0 l 103 0 m 114 -276 l 114 -101 l 282 -101 l 282 -276 l 114 -276 z "},"Ì":{"ha":397,"x_min":25,"x_max":294,"o":"m 103 0 l 103 986 l 294 986 l 294 0 l 103 0 m 25 1272 l 197 1272 l 274 1107 l 154 1071 l 25 1272 z "},"Ỉ":{"ha":397,"x_min":71,"x_max":325,"o":"m 103 0 l 103 986 l 294 986 l 294 0 l 103 0 m 128 1211 l 71 1268 q 138 1316 104 1300 q 210 1332 172 1332 q 295 1302 265 1332 q 325 1229 325 1272 q 303 1156 325 1189 q 236 1085 282 1122 l 189 1136 q 223 1172 213 1156 q 233 1206 233 1188 q 223 1233 233 1222 q 194 1244 213 1244 q 163 1237 176 1244 q 128 1211 149 1229 z "},"Ȋ":{"ha":397,"x_min":17,"x_max":381,"o":"m 103 0 l 103 986 l 294 986 l 294 0 l 103 0 m 197 1188 q 140 1157 165 1188 q 115 1085 115 1126 l 15 1085 q 67 1218 15 1165 q 197 1271 118 1271 q 328 1218 278 1271 q 379 1085 379 1165 l 281 1085 q 253 1158 276 1129 q 197 1188 229 1188 z "},"Ī":{"ha":397,"x_min":-8,"x_max":408,"o":"m 103 0 l 103 986 l 294 986 l 294 0 l 103 0 m -8 1136 l -8 1251 l 408 1251 l 408 1136 l -8 1136 z "},"Į":{"ha":397,"x_min":71,"x_max":294,"o":"m 103 0 l 103 986 l 294 986 l 294 0 l 103 0 m 71 -153 q 106 -58 71 -106 q 213 29 140 -11 l 271 29 l 293 0 q 215 -66 242 -36 q 189 -121 189 -96 q 216 -158 189 -146 q 293 -172 243 -171 l 256 -278 q 145 -252 186 -271 q 88 -207 104 -233 q 71 -153 71 -181 z "},"Ĩ":{"ha":397,"x_min":-62,"x_max":458,"o":"m 103 0 l 103 986 l 294 986 l 294 0 l 103 0 m 289 1093 q 217 1109 247 1093 q 163 1140 188 1125 q 107 1156 138 1156 q 62 1140 76 1156 q 44 1107 47 1124 q 40 1089 40 1090 l -62 1089 q -54 1131 -62 1101 q -27 1191 -46 1160 q 23 1244 -8 1222 q 100 1267 54 1267 q 171 1250 143 1267 q 224 1217 199 1233 q 283 1201 250 1201 q 332 1218 317 1201 q 352 1251 347 1235 q 357 1271 357 1268 l 460 1271 q 451 1233 460 1261 q 423 1173 443 1206 q 370 1117 403 1140 q 289 1093 338 1093 z "},"J":{"ha":682,"x_min":10,"x_max":590,"o":"m 53 201 q 117 172 71 189 q 225 154 163 154 q 314 173 279 154 q 367 229 349 192 q 392 326 386 267 q 399 469 399 386 l 399 986 l 590 986 l 590 485 q 578 282 590 374 q 529 124 565 190 q 420 21 493 57 q 226 -15 347 -15 q 107 0 160 -15 q 10 46 54 15 l 53 201 z "},"Ĵ":{"ha":682,"x_min":10,"x_max":711,"o":"m 53 201 q 117 172 71 189 q 225 154 163 154 q 314 173 279 154 q 367 229 349 192 q 392 326 386 267 q 399 469 399 386 l 399 986 l 590 986 l 590 485 q 578 282 590 374 q 529 124 565 190 q 420 21 493 57 q 226 -15 347 -15 q 107 0 160 -15 q 10 46 54 15 l 53 201 m 282 1131 l 429 1271 l 564 1271 l 711 1131 l 615 1086 l 497 1174 l 379 1086 l 282 1131 z "},"K":{"ha":929,"x_min":103,"x_max":943,"o":"m 103 0 l 103 985 l 294 985 l 294 517 l 708 986 l 919 986 l 542 549 l 943 0 l 726 0 l 419 425 l 294 294 l 294 0 l 103 0 z "},"Ķ":{"ha":929,"x_min":103,"x_max":943,"o":"m 103 0 l 103 985 l 294 985 l 294 517 l 708 986 l 919 986 l 542 549 l 943 0 l 726 0 l 419 425 l 294 294 l 294 0 l 103 0 m 424 -296 l 461 -196 l 407 -196 l 407 -65 l 564 -65 l 564 -196 l 508 -296 l 424 -296 z "},"L":{"ha":811,"x_min":103,"x_max":797,"o":"m 103 0 l 103 986 l 294 986 l 294 168 l 797 168 l 797 0 l 103 0 z "},"Ĺ":{"ha":811,"x_min":103,"x_max":797,"o":"m 103 0 l 103 986 l 294 986 l 294 168 l 797 168 l 797 0 l 103 0 m 260 1069 l 140 1106 l 215 1271 l 389 1271 l 260 1069 z "},"Ľ":{"ha":811,"x_min":103,"x_max":797,"o":"m 103 0 l 103 986 l 294 986 l 294 168 l 797 168 l 797 0 l 103 0 m 619 815 l 500 851 l 575 1017 l 749 1017 l 619 815 z "},"Ļ":{"ha":811,"x_min":103,"x_max":797,"o":"m 103 0 l 103 986 l 294 986 l 294 168 l 797 168 l 797 0 l 103 0 m 400 -296 l 438 -196 l 383 -196 l 383 -65 l 540 -65 l 540 -196 l 485 -296 l 400 -296 z "},"Ŀ":{"ha":811,"x_min":103,"x_max":797,"o":"m 103 0 l 103 986 l 294 986 l 294 168 l 797 168 l 797 0 l 103 0 m 507 460 l 507 669 l 660 669 l 660 460 l 507 460 z "},"Ḷ":{"ha":811,"x_min":103,"x_max":797,"o":"m 103 0 l 103 986 l 294 986 l 294 168 l 797 168 l 797 0 l 103 0 m 383 -276 l 383 -101 l 551 -101 l 551 -276 l 383 -276 z "},"Ḻ":{"ha":811,"x_min":103,"x_max":797,"o":"m 103 0 l 103 986 l 294 986 l 294 168 l 797 168 l 797 0 l 103 0 m 258 -226 l 258 -111 l 675 -111 l 675 -226 l 258 -226 z "},"Ł":{"ha":825,"x_min":-3,"x_max":810,"o":"m 43 336 l -3 438 l 460 729 l 506 628 l 43 336 m 115 0 l 115 986 l 307 986 l 307 168 l 810 168 l 810 0 l 115 0 z "},"M":{"ha":1201,"x_min":103,"x_max":1099,"o":"m 907 0 l 907 647 l 654 165 l 547 165 l 294 647 l 294 0 l 103 0 l 103 986 l 308 986 l 600 425 l 894 986 l 1099 986 l 1099 0 l 907 0 z "},"Ṃ":{"ha":1201,"x_min":103,"x_max":1099,"o":"m 907 0 l 907 647 l 654 165 l 547 165 l 294 647 l 294 0 l 103 0 l 103 986 l 308 986 l 600 425 l 894 986 l 1099 986 l 1099 0 l 907 0 m 517 -276 l 517 -101 l 685 -101 l 685 -276 l 517 -276 z "},"N":{"ha":1060,"x_min":103,"x_max":957,"o":"m 294 633 l 294 0 l 103 0 l 103 986 l 256 986 l 765 336 l 765 985 l 957 985 l 957 0 l 797 0 l 294 633 z "},"Ń":{"ha":1060,"x_min":103,"x_max":957,"o":"m 294 633 l 294 0 l 103 0 l 103 986 l 256 986 l 765 336 l 765 985 l 957 985 l 957 0 l 797 0 l 294 633 m 592 1069 l 472 1106 l 547 1271 l 721 1271 l 592 1069 z "},"Ň":{"ha":1060,"x_min":103,"x_max":957,"o":"m 294 633 l 294 0 l 103 0 l 103 986 l 256 986 l 765 336 l 765 985 l 957 985 l 957 0 l 797 0 l 294 633 m 413 1271 l 531 1183 l 649 1271 l 744 1226 l 597 1086 l 463 1086 l 315 1226 l 413 1271 z "},"Ņ":{"ha":1060,"x_min":103,"x_max":957,"o":"m 294 633 l 294 0 l 103 0 l 103 986 l 256 986 l 765 336 l 765 985 l 957 985 l 957 0 l 797 0 l 294 633 m 463 -296 l 500 -196 l 446 -196 l 446 -65 l 603 -65 l 603 -196 l 547 -296 l 463 -296 z "},"Ṅ":{"ha":1060,"x_min":103,"x_max":957,"o":"m 294 633 l 294 0 l 103 0 l 103 986 l 256 986 l 765 336 l 765 985 l 957 985 l 957 0 l 797 0 l 294 633 m 446 1096 l 446 1271 l 614 1271 l 614 1096 l 446 1096 z "},"Ṇ":{"ha":1060,"x_min":103,"x_max":957,"o":"m 294 633 l 294 0 l 103 0 l 103 986 l 256 986 l 765 336 l 765 985 l 957 985 l 957 0 l 797 0 l 294 633 m 446 -276 l 446 -101 l 614 -101 l 614 -276 l 446 -276 z "},"Ŋ":{"ha":1042,"x_min":103,"x_max":938,"o":"m 294 626 l 294 0 l 103 0 l 103 986 l 250 986 l 747 347 l 747 985 l 938 985 l 938 -12 q 903 -149 938 -90 q 811 -240 869 -207 q 685 -272 753 -272 q 585 -256 633 -272 q 500 -207 538 -240 l 581 -81 q 618 -104 596 -97 q 661 -111 640 -111 q 706 -99 686 -111 q 739 -67 726 -87 q 751 -19 751 -46 l 751 39 l 294 626 z "},"Ṉ":{"ha":1060,"x_min":103,"x_max":957,"o":"m 294 633 l 294 0 l 103 0 l 103 986 l 256 986 l 765 336 l 765 985 l 957 985 l 957 0 l 797 0 l 294 633 m 321 -226 l 321 -111 l 738 -111 l 738 -226 l 321 -226 z "},"Ñ":{"ha":1060,"x_min":103,"x_max":957,"o":"m 294 633 l 294 0 l 103 0 l 103 986 l 256 986 l 765 336 l 765 985 l 957 985 l 957 0 l 797 0 l 294 633 m 619 1093 q 548 1109 578 1093 q 493 1140 518 1125 q 438 1156 468 1156 q 392 1140 407 1156 q 374 1107 378 1124 q 371 1089 371 1090 l 268 1089 q 276 1131 268 1101 q 303 1191 285 1160 q 353 1244 322 1222 q 431 1267 385 1267 q 501 1250 474 1267 q 555 1217 529 1233 q 614 1201 581 1201 q 663 1218 647 1201 q 683 1251 678 1235 q 688 1271 688 1268 l 790 1271 q 782 1233 790 1261 q 753 1173 774 1206 q 701 1117 733 1140 q 619 1093 668 1093 z "},"O":{"ha":1050,"x_min":43,"x_max":1006,"o":"m 524 -7 q 327 35 415 -7 q 176 148 239 76 q 78 309 113 219 q 43 493 43 399 q 80 681 43 592 q 181 841 117 771 q 334 952 246 911 q 528 993 422 993 q 723 950 635 993 q 874 835 811 907 q 971 674 936 763 q 1006 490 1006 585 q 969 303 1006 393 q 869 144 933 214 q 716 33 804 74 q 524 -7 628 -7 m 238 493 q 257 369 238 429 q 313 263 276 310 q 403 190 350 217 q 525 163 457 163 q 649 191 594 163 q 739 267 703 219 q 794 374 775 315 q 813 493 813 433 q 792 616 813 557 q 735 722 772 675 q 645 795 699 768 q 525 822 592 822 q 401 794 454 822 q 311 718 347 765 q 256 613 275 671 q 238 493 238 554 z "},"Ó":{"ha":1050,"x_min":43,"x_max":1006,"o":"m 524 -7 q 327 35 415 -7 q 176 148 239 76 q 78 309 113 219 q 43 493 43 399 q 80 681 43 592 q 181 841 117 771 q 334 952 246 911 q 528 993 422 993 q 723 950 635 993 q 874 835 811 907 q 971 674 936 763 q 1006 490 1006 585 q 969 303 1006 393 q 869 144 933 214 q 716 33 804 74 q 524 -7 628 -7 m 238 493 q 257 369 238 429 q 313 263 276 310 q 403 190 350 217 q 525 163 457 163 q 649 191 594 163 q 739 267 703 219 q 794 374 775 315 q 813 493 813 433 q 792 616 813 557 q 735 722 772 675 q 645 795 699 768 q 525 822 592 822 q 401 794 454 822 q 311 718 347 765 q 256 613 275 671 q 238 493 238 554 m 589 1069 l 469 1106 l 544 1271 l 718 1271 l 589 1069 z "},"Ŏ":{"ha":1050,"x_min":43,"x_max":1006,"o":"m 524 -7 q 327 35 415 -7 q 176 148 239 76 q 78 309 113 219 q 43 493 43 399 q 80 681 43 592 q 181 841 117 771 q 334 952 246 911 q 528 993 422 993 q 723 950 635 993 q 874 835 811 907 q 971 674 936 763 q 1006 490 1006 585 q 969 303 1006 393 q 869 144 933 214 q 716 33 804 74 q 524 -7 628 -7 m 238 493 q 257 369 238 429 q 313 263 276 310 q 403 190 350 217 q 525 163 457 163 q 649 191 594 163 q 739 267 703 219 q 794 374 775 315 q 813 493 813 433 q 792 616 813 557 q 735 722 772 675 q 645 795 699 768 q 525 822 592 822 q 401 794 454 822 q 311 718 347 765 q 256 613 275 671 q 238 493 238 554 m 526 1168 q 582 1197 558 1168 q 610 1271 606 1226 l 708 1271 q 658 1138 708 1190 q 526 1085 607 1085 q 396 1138 447 1085 q 344 1271 344 1190 l 444 1271 q 469 1199 444 1229 q 526 1168 494 1168 z "},"Ô":{"ha":1050,"x_min":43,"x_max":1006,"o":"m 524 -7 q 327 35 415 -7 q 176 148 239 76 q 78 309 113 219 q 43 493 43 399 q 80 681 43 592 q 181 841 117 771 q 334 952 246 911 q 528 993 422 993 q 723 950 635 993 q 874 835 811 907 q 971 674 936 763 q 1006 490 1006 585 q 969 303 1006 393 q 869 144 933 214 q 716 33 804 74 q 524 -7 628 -7 m 238 493 q 257 369 238 429 q 313 263 276 310 q 403 190 350 217 q 525 163 457 163 q 649 191 594 163 q 739 267 703 219 q 794 374 775 315 q 813 493 813 433 q 792 616 813 557 q 735 722 772 675 q 645 795 699 768 q 525 822 592 822 q 401 794 454 822 q 311 718 347 765 q 256 613 275 671 q 238 493 238 554 m 313 1131 l 460 1271 l 594 1271 l 742 1131 l 646 1086 l 528 1174 l 410 1086 l 313 1131 z "},"Ố":{"ha":1050,"x_min":43,"x_max":1006,"o":"m 524 -7 q 327 35 415 -7 q 176 148 239 76 q 78 309 113 219 q 43 493 43 399 q 80 681 43 592 q 181 841 117 771 q 334 952 246 911 q 528 993 422 993 q 723 950 635 993 q 874 835 811 907 q 971 674 936 763 q 1006 490 1006 585 q 969 303 1006 393 q 869 144 933 214 q 716 33 804 74 q 524 -7 628 -7 m 238 493 q 257 369 238 429 q 313 263 276 310 q 403 190 350 217 q 525 163 457 163 q 649 191 594 163 q 739 267 703 219 q 794 374 775 315 q 813 493 813 433 q 792 616 813 557 q 735 722 772 675 q 645 795 699 768 q 525 822 592 822 q 401 794 454 822 q 311 718 347 765 q 256 613 275 671 q 238 493 238 554 z "},"Ộ":{"ha":1050,"x_min":43,"x_max":1006,"o":"m 524 -7 q 327 35 415 -7 q 176 148 239 76 q 78 309 113 219 q 43 493 43 399 q 80 681 43 592 q 181 841 117 771 q 334 952 246 911 q 528 993 422 993 q 723 950 635 993 q 874 835 811 907 q 971 674 936 763 q 1006 490 1006 585 q 969 303 1006 393 q 869 144 933 214 q 716 33 804 74 q 524 -7 628 -7 m 238 493 q 257 369 238 429 q 313 263 276 310 q 403 190 350 217 q 525 163 457 163 q 649 191 594 163 q 739 267 703 219 q 794 374 775 315 q 813 493 813 433 q 792 616 813 557 q 735 722 772 675 q 645 795 699 768 q 525 822 592 822 q 401 794 454 822 q 311 718 347 765 q 256 613 275 671 q 238 493 238 554 m 439 -276 l 439 -101 l 607 -101 l 607 -276 l 439 -276 m 313 1131 l 460 1271 l 594 1271 l 742 1131 l 646 1086 l 528 1174 l 410 1086 l 313 1131 z "},"Ồ":{"ha":1050,"x_min":43,"x_max":1006,"o":"m 524 -7 q 327 35 415 -7 q 176 148 239 76 q 78 309 113 219 q 43 493 43 399 q 80 681 43 592 q 181 841 117 771 q 334 952 246 911 q 528 993 422 993 q 723 950 635 993 q 874 835 811 907 q 971 674 936 763 q 1006 490 1006 585 q 969 303 1006 393 q 869 144 933 214 q 716 33 804 74 q 524 -7 628 -7 m 238 493 q 257 369 238 429 q 313 263 276 310 q 403 190 350 217 q 525 163 457 163 q 649 191 594 163 q 739 267 703 219 q 794 374 775 315 q 813 493 813 433 q 792 616 813 557 q 735 722 772 675 q 645 795 699 768 q 525 822 592 822 q 401 794 454 822 q 311 718 347 765 q 256 613 275 671 q 238 493 238 554 z "},"Ổ":{"ha":1050,"x_min":43,"x_max":1006,"o":"m 524 -7 q 327 35 415 -7 q 176 148 239 76 q 78 309 113 219 q 43 493 43 399 q 80 681 43 592 q 181 841 117 771 q 334 952 246 911 q 528 993 422 993 q 723 950 635 993 q 874 835 811 907 q 971 674 936 763 q 1006 490 1006 585 q 969 303 1006 393 q 869 144 933 214 q 716 33 804 74 q 524 -7 628 -7 m 238 493 q 257 369 238 429 q 313 263 276 310 q 403 190 350 217 q 525 163 457 163 q 649 191 594 163 q 739 267 703 219 q 794 374 775 315 q 813 493 813 433 q 792 616 813 557 q 735 722 772 675 q 645 795 699 768 q 525 822 592 822 q 401 794 454 822 q 311 718 347 765 q 256 613 275 671 q 238 493 238 554 z "},"Ỗ":{"ha":1050,"x_min":43,"x_max":1006,"o":"m 524 -7 q 327 35 415 -7 q 176 148 239 76 q 78 309 113 219 q 43 493 43 399 q 80 681 43 592 q 181 841 117 771 q 334 952 246 911 q 528 993 422 993 q 723 950 635 993 q 874 835 811 907 q 971 674 936 763 q 1006 490 1006 585 q 969 303 1006 393 q 869 144 933 214 q 716 33 804 74 q 524 -7 628 -7 m 238 493 q 257 369 238 429 q 313 263 276 310 q 403 190 350 217 q 525 163 457 163 q 649 191 594 163 q 739 267 703 219 q 794 374 775 315 q 813 493 813 433 q 792 616 813 557 q 735 722 772 675 q 645 795 699 768 q 525 822 592 822 q 401 794 454 822 q 311 718 347 765 q 256 613 275 671 q 238 493 238 554 z "},"Ȍ":{"ha":1050,"x_min":43,"x_max":1006,"o":"m 524 -7 q 327 35 415 -7 q 176 148 239 76 q 78 309 113 219 q 43 493 43 399 q 80 681 43 592 q 181 841 117 771 q 334 952 246 911 q 528 993 422 993 q 723 950 635 993 q 874 835 811 907 q 971 674 936 763 q 1006 490 1006 585 q 969 303 1006 393 q 869 144 933 214 q 716 33 804 74 q 524 -7 628 -7 m 238 493 q 257 369 238 429 q 313 263 276 310 q 403 190 350 217 q 525 163 457 163 q 649 191 594 163 q 739 267 703 219 q 794 374 775 315 q 813 493 813 433 q 792 616 813 557 q 735 722 772 675 q 645 795 699 768 q 525 822 592 822 q 401 794 454 822 q 311 718 347 765 q 256 613 275 671 q 238 493 238 554 m 489 1272 l 635 1272 l 700 1107 l 608 1071 l 489 1272 m 267 1272 l 411 1272 l 478 1107 l 386 1071 l 267 1272 z "},"Ö":{"ha":1050,"x_min":43,"x_max":1006,"o":"m 524 -7 q 327 35 415 -7 q 176 148 239 76 q 78 309 113 219 q 43 493 43 399 q 80 681 43 592 q 181 841 117 771 q 334 952 246 911 q 528 993 422 993 q 723 950 635 993 q 874 835 811 907 q 971 674 936 763 q 1006 490 1006 585 q 969 303 1006 393 q 869 144 933 214 q 716 33 804 74 q 524 -7 628 -7 m 238 493 q 257 369 238 429 q 313 263 276 310 q 403 190 350 217 q 525 163 457 163 q 649 191 594 163 q 739 267 703 219 q 794 374 775 315 q 813 493 813 433 q 792 616 813 557 q 735 722 772 675 q 645 795 699 768 q 525 822 592 822 q 401 794 454 822 q 311 718 347 765 q 256 613 275 671 q 238 493 238 554 m 317 1097 l 317 1263 l 471 1263 l 471 1097 l 317 1097 m 583 1097 l 583 1263 l 738 1263 l 738 1097 l 583 1097 z "},"Ȫ":{"ha":1050,"x_min":43,"x_max":1006,"o":"m 524 -7 q 327 35 415 -7 q 176 148 239 76 q 78 309 113 219 q 43 493 43 399 q 80 681 43 592 q 181 841 117 771 q 334 952 246 911 q 528 993 422 993 q 723 950 635 993 q 874 835 811 907 q 971 674 936 763 q 1006 490 1006 585 q 969 303 1006 393 q 869 144 933 214 q 716 33 804 74 q 524 -7 628 -7 m 238 493 q 257 369 238 429 q 313 263 276 310 q 403 190 350 217 q 525 163 457 163 q 649 191 594 163 q 739 267 703 219 q 794 374 775 315 q 813 493 813 433 q 792 616 813 557 q 735 722 772 675 q 645 795 699 768 q 525 822 592 822 q 401 794 454 822 q 311 718 347 765 q 256 613 275 671 q 238 493 238 554 m 317 1097 l 317 1263 l 471 1263 l 471 1097 l 317 1097 m 583 1097 l 583 1263 l 738 1263 l 738 1097 l 583 1097 m 321 1410 l 321 1525 l 738 1525 l 738 1410 l 321 1410 z "},"Ȱ":{"ha":1050,"x_min":43,"x_max":1006,"o":"m 524 -7 q 327 35 415 -7 q 176 148 239 76 q 78 309 113 219 q 43 493 43 399 q 80 681 43 592 q 181 841 117 771 q 334 952 246 911 q 528 993 422 993 q 723 950 635 993 q 874 835 811 907 q 971 674 936 763 q 1006 490 1006 585 q 969 303 1006 393 q 869 144 933 214 q 716 33 804 74 q 524 -7 628 -7 m 238 493 q 257 369 238 429 q 313 263 276 310 q 403 190 350 217 q 525 163 457 163 q 649 191 594 163 q 739 267 703 219 q 794 374 775 315 q 813 493 813 433 q 792 616 813 557 q 735 722 772 675 q 645 795 699 768 q 525 822 592 822 q 401 794 454 822 q 311 718 347 765 q 256 613 275 671 q 238 493 238 554 m 443 1096 l 443 1271 l 611 1271 l 611 1096 l 443 1096 m 321 1422 l 321 1538 l 738 1538 l 738 1422 l 321 1422 z "},"Ọ":{"ha":1050,"x_min":43,"x_max":1006,"o":"m 524 -7 q 327 35 415 -7 q 176 148 239 76 q 78 309 113 219 q 43 493 43 399 q 80 681 43 592 q 181 841 117 771 q 334 952 246 911 q 528 993 422 993 q 723 950 635 993 q 874 835 811 907 q 971 674 936 763 q 1006 490 1006 585 q 969 303 1006 393 q 869 144 933 214 q 716 33 804 74 q 524 -7 628 -7 m 238 493 q 257 369 238 429 q 313 263 276 310 q 403 190 350 217 q 525 163 457 163 q 649 191 594 163 q 739 267 703 219 q 794 374 775 315 q 813 493 813 433 q 792 616 813 557 q 735 722 772 675 q 645 795 699 768 q 525 822 592 822 q 401 794 454 822 q 311 718 347 765 q 256 613 275 671 q 238 493 238 554 m 439 -276 l 439 -101 l 607 -101 l 607 -276 l 439 -276 z "},"Ò":{"ha":1050,"x_min":43,"x_max":1006,"o":"m 524 -7 q 327 35 415 -7 q 176 148 239 76 q 78 309 113 219 q 43 493 43 399 q 80 681 43 592 q 181 841 117 771 q 334 952 246 911 q 528 993 422 993 q 723 950 635 993 q 874 835 811 907 q 971 674 936 763 q 1006 490 1006 585 q 969 303 1006 393 q 869 144 933 214 q 716 33 804 74 q 524 -7 628 -7 m 238 493 q 257 369 238 429 q 313 263 276 310 q 403 190 350 217 q 525 163 457 163 q 649 191 594 163 q 739 267 703 219 q 794 374 775 315 q 813 493 813 433 q 792 616 813 557 q 735 722 772 675 q 645 795 699 768 q 525 822 592 822 q 401 794 454 822 q 311 718 347 765 q 256 613 275 671 q 238 493 238 554 m 354 1272 l 526 1272 l 603 1107 l 483 1071 l 354 1272 z "},"Ỏ":{"ha":1050,"x_min":43,"x_max":1006,"o":"m 524 -7 q 327 35 415 -7 q 176 148 239 76 q 78 309 113 219 q 43 493 43 399 q 80 681 43 592 q 181 841 117 771 q 334 952 246 911 q 528 993 422 993 q 723 950 635 993 q 874 835 811 907 q 971 674 936 763 q 1006 490 1006 585 q 969 303 1006 393 q 869 144 933 214 q 716 33 804 74 q 524 -7 628 -7 m 238 493 q 257 369 238 429 q 313 263 276 310 q 403 190 350 217 q 525 163 457 163 q 649 191 594 163 q 739 267 703 219 q 794 374 775 315 q 813 493 813 433 q 792 616 813 557 q 735 722 772 675 q 645 795 699 768 q 525 822 592 822 q 401 794 454 822 q 311 718 347 765 q 256 613 275 671 q 238 493 238 554 m 457 1211 l 400 1268 q 467 1316 433 1300 q 539 1332 501 1332 q 624 1302 594 1332 q 654 1229 654 1272 q 633 1156 654 1189 q 565 1085 611 1122 l 518 1136 q 552 1172 542 1156 q 563 1206 563 1188 q 552 1233 563 1222 q 524 1244 542 1244 q 492 1237 506 1244 q 457 1211 478 1229 z "},"Ơ":{"ha":1050,"x_min":43,"x_max":1006,"o":"m 524 -7 q 327 35 415 -7 q 176 148 239 76 q 78 309 113 219 q 43 493 43 399 q 80 681 43 592 q 181 841 117 771 q 334 952 246 911 q 528 993 422 993 q 723 950 635 993 q 874 835 811 907 q 971 674 936 763 q 1006 490 1006 585 q 969 303 1006 393 q 869 144 933 214 q 716 33 804 74 q 524 -7 628 -7 m 238 493 q 257 369 238 429 q 313 263 276 310 q 403 190 350 217 q 525 163 457 163 q 649 191 594 163 q 739 267 703 219 q 794 374 775 315 q 813 493 813 433 q 792 616 813 557 q 735 722 772 675 q 645 795 699 768 q 525 822 592 822 q 401 794 454 822 q 311 718 347 765 q 256 613 275 671 q 238 493 238 554 m 604 857 l 607 985 q 685 992 656 985 q 731 1017 714 1000 q 749 1059 746 1036 q 754 1108 753 1082 l 889 1108 q 885 1046 889 1078 q 868 984 881 1014 q 831 926 856 954 q 774 890 810 906 q 695 865 739 874 q 604 857 651 857 z "},"Ớ":{"ha":1050,"x_min":43,"x_max":1006,"o":"m 524 -7 q 327 35 415 -7 q 176 148 239 76 q 78 309 113 219 q 43 493 43 399 q 80 681 43 592 q 181 841 117 771 q 334 952 246 911 q 528 993 422 993 q 723 950 635 993 q 874 835 811 907 q 971 674 936 763 q 1006 490 1006 585 q 969 303 1006 393 q 869 144 933 214 q 716 33 804 74 q 524 -7 628 -7 m 238 493 q 257 369 238 429 q 313 263 276 310 q 403 190 350 217 q 525 163 457 163 q 649 191 594 163 q 739 267 703 219 q 794 374 775 315 q 813 493 813 433 q 792 616 813 557 q 735 722 772 675 q 645 795 699 768 q 525 822 592 822 q 401 794 454 822 q 311 718 347 765 q 256 613 275 671 q 238 493 238 554 m 604 857 l 607 985 q 685 992 656 985 q 731 1017 714 1000 q 749 1059 746 1036 q 754 1108 753 1082 l 889 1108 q 885 1046 889 1078 q 868 984 881 1014 q 831 926 856 954 q 774 890 810 906 q 695 865 739 874 q 604 857 651 857 m 589 1069 l 469 1106 l 544 1271 l 718 1271 l 589 1069 z "},"Ợ":{"ha":1050,"x_min":43,"x_max":1006,"o":"m 524 -7 q 327 35 415 -7 q 176 148 239 76 q 78 309 113 219 q 43 493 43 399 q 80 681 43 592 q 181 841 117 771 q 334 952 246 911 q 528 993 422 993 q 723 950 635 993 q 874 835 811 907 q 971 674 936 763 q 1006 490 1006 585 q 969 303 1006 393 q 869 144 933 214 q 716 33 804 74 q 524 -7 628 -7 m 238 493 q 257 369 238 429 q 313 263 276 310 q 403 190 350 217 q 525 163 457 163 q 649 191 594 163 q 739 267 703 219 q 794 374 775 315 q 813 493 813 433 q 792 616 813 557 q 735 722 772 675 q 645 795 699 768 q 525 822 592 822 q 401 794 454 822 q 311 718 347 765 q 256 613 275 671 q 238 493 238 554 m 604 857 l 607 985 q 685 992 656 985 q 731 1017 714 1000 q 749 1059 746 1036 q 754 1108 753 1082 l 889 1108 q 885 1046 889 1078 q 868 984 881 1014 q 831 926 856 954 q 774 890 810 906 q 695 865 739 874 q 604 857 651 857 m 439 -276 l 439 -101 l 607 -101 l 607 -276 l 439 -276 z "},"Ờ":{"ha":1050,"x_min":43,"x_max":1006,"o":"m 524 -7 q 327 35 415 -7 q 176 148 239 76 q 78 309 113 219 q 43 493 43 399 q 80 681 43 592 q 181 841 117 771 q 334 952 246 911 q 528 993 422 993 q 723 950 635 993 q 874 835 811 907 q 971 674 936 763 q 1006 490 1006 585 q 969 303 1006 393 q 869 144 933 214 q 716 33 804 74 q 524 -7 628 -7 m 238 493 q 257 369 238 429 q 313 263 276 310 q 403 190 350 217 q 525 163 457 163 q 649 191 594 163 q 739 267 703 219 q 794 374 775 315 q 813 493 813 433 q 792 616 813 557 q 735 722 772 675 q 645 795 699 768 q 525 822 592 822 q 401 794 454 822 q 311 718 347 765 q 256 613 275 671 q 238 493 238 554 m 604 857 l 607 985 q 685 992 656 985 q 731 1017 714 1000 q 749 1059 746 1036 q 754 1108 753 1082 l 889 1108 q 885 1046 889 1078 q 868 984 881 1014 q 831 926 856 954 q 774 890 810 906 q 695 865 739 874 q 604 857 651 857 m 354 1272 l 526 1272 l 603 1107 l 483 1071 l 354 1272 z "},"Ở":{"ha":1050,"x_min":43,"x_max":1006,"o":"m 524 -7 q 327 35 415 -7 q 176 148 239 76 q 78 309 113 219 q 43 493 43 399 q 80 681 43 592 q 181 841 117 771 q 334 952 246 911 q 528 993 422 993 q 723 950 635 993 q 874 835 811 907 q 971 674 936 763 q 1006 490 1006 585 q 969 303 1006 393 q 869 144 933 214 q 716 33 804 74 q 524 -7 628 -7 m 238 493 q 257 369 238 429 q 313 263 276 310 q 403 190 350 217 q 525 163 457 163 q 649 191 594 163 q 739 267 703 219 q 794 374 775 315 q 813 493 813 433 q 792 616 813 557 q 735 722 772 675 q 645 795 699 768 q 525 822 592 822 q 401 794 454 822 q 311 718 347 765 q 256 613 275 671 q 238 493 238 554 m 604 857 l 607 985 q 685 992 656 985 q 731 1017 714 1000 q 749 1059 746 1036 q 754 1108 753 1082 l 889 1108 q 885 1046 889 1078 q 868 984 881 1014 q 831 926 856 954 q 774 890 810 906 q 695 865 739 874 q 604 857 651 857 m 457 1211 l 400 1268 q 467 1316 433 1300 q 539 1332 501 1332 q 624 1302 594 1332 q 654 1229 654 1272 q 633 1156 654 1189 q 565 1085 611 1122 l 518 1136 q 552 1172 542 1156 q 563 1206 563 1188 q 552 1233 563 1222 q 524 1244 542 1244 q 492 1237 506 1244 q 457 1211 478 1229 z "},"Ỡ":{"ha":1050,"x_min":43,"x_max":1006,"o":"m 524 -7 q 327 35 415 -7 q 176 148 239 76 q 78 309 113 219 q 43 493 43 399 q 80 681 43 592 q 181 841 117 771 q 334 952 246 911 q 528 993 422 993 q 723 950 635 993 q 874 835 811 907 q 971 674 936 763 q 1006 490 1006 585 q 969 303 1006 393 q 869 144 933 214 q 716 33 804 74 q 524 -7 628 -7 m 238 493 q 257 369 238 429 q 313 263 276 310 q 403 190 350 217 q 525 163 457 163 q 649 191 594 163 q 739 267 703 219 q 794 374 775 315 q 813 493 813 433 q 792 616 813 557 q 735 722 772 675 q 645 795 699 768 q 525 822 592 822 q 401 794 454 822 q 311 718 347 765 q 256 613 275 671 q 238 493 238 554 m 604 857 l 607 985 q 685 992 656 985 q 731 1017 714 1000 q 749 1059 746 1036 q 754 1108 753 1082 l 889 1108 q 885 1046 889 1078 q 868 984 881 1014 q 831 926 856 954 q 774 890 810 906 q 695 865 739 874 q 604 857 651 857 m 618 1093 q 547 1109 576 1093 q 492 1140 517 1125 q 436 1156 467 1156 q 391 1140 406 1156 q 373 1107 376 1124 q 369 1089 369 1090 l 267 1089 q 275 1131 267 1101 q 302 1191 283 1160 q 352 1244 321 1222 q 429 1267 383 1267 q 500 1250 472 1267 q 553 1217 528 1233 q 613 1201 579 1201 q 661 1218 646 1201 q 681 1251 676 1235 q 686 1271 686 1268 l 789 1271 q 781 1233 789 1261 q 752 1173 772 1206 q 699 1117 732 1140 q 618 1093 667 1093 z "},"Ő":{"ha":1050,"x_min":43,"x_max":1006,"o":"m 524 -7 q 327 35 415 -7 q 176 148 239 76 q 78 309 113 219 q 43 493 43 399 q 80 681 43 592 q 181 841 117 771 q 334 952 246 911 q 528 993 422 993 q 723 950 635 993 q 874 835 811 907 q 971 674 936 763 q 1006 490 1006 585 q 969 303 1006 393 q 869 144 933 214 q 716 33 804 74 q 524 -7 628 -7 m 238 493 q 257 369 238 429 q 313 263 276 310 q 403 190 350 217 q 525 163 457 163 q 649 191 594 163 q 739 267 703 219 q 794 374 775 315 q 813 493 813 433 q 792 616 813 557 q 735 722 772 675 q 645 795 699 768 q 525 822 592 822 q 401 794 454 822 q 311 718 347 765 q 256 613 275 671 q 238 493 238 554 m 439 1071 l 347 1107 l 414 1272 l 558 1272 l 439 1071 m 661 1071 l 571 1107 l 636 1272 l 782 1272 l 661 1071 z "},"Ȏ":{"ha":1050,"x_min":43,"x_max":1006,"o":"m 524 -7 q 327 35 415 -7 q 176 148 239 76 q 78 309 113 219 q 43 493 43 399 q 80 681 43 592 q 181 841 117 771 q 334 952 246 911 q 528 993 422 993 q 723 950 635 993 q 874 835 811 907 q 971 674 936 763 q 1006 490 1006 585 q 969 303 1006 393 q 869 144 933 214 q 716 33 804 74 q 524 -7 628 -7 m 238 493 q 257 369 238 429 q 313 263 276 310 q 403 190 350 217 q 525 163 457 163 q 649 191 594 163 q 739 267 703 219 q 794 374 775 315 q 813 493 813 433 q 792 616 813 557 q 735 722 772 675 q 645 795 699 768 q 525 822 592 822 q 401 794 454 822 q 311 718 347 765 q 256 613 275 671 q 238 493 238 554 m 526 1188 q 469 1157 494 1188 q 444 1085 444 1126 l 344 1085 q 396 1218 344 1165 q 526 1271 447 1271 q 658 1218 607 1271 q 708 1085 708 1165 l 610 1085 q 582 1158 606 1129 q 526 1188 558 1188 z "},"Ō":{"ha":1050,"x_min":43,"x_max":1006,"o":"m 524 -7 q 327 35 415 -7 q 176 148 239 76 q 78 309 113 219 q 43 493 43 399 q 80 681 43 592 q 181 841 117 771 q 334 952 246 911 q 528 993 422 993 q 723 950 635 993 q 874 835 811 907 q 971 674 936 763 q 1006 490 1006 585 q 969 303 1006 393 q 869 144 933 214 q 716 33 804 74 q 524 -7 628 -7 m 238 493 q 257 369 238 429 q 313 263 276 310 q 403 190 350 217 q 525 163 457 163 q 649 191 594 163 q 739 267 703 219 q 794 374 775 315 q 813 493 813 433 q 792 616 813 557 q 735 722 772 675 q 645 795 699 768 q 525 822 592 822 q 401 794 454 822 q 311 718 347 765 q 256 613 275 671 q 238 493 238 554 m 321 1136 l 321 1251 l 738 1251 l 738 1136 l 321 1136 z "},"Ṓ":{"ha":1050,"x_min":43,"x_max":1006,"o":"m 524 -7 q 327 35 415 -7 q 176 148 239 76 q 78 309 113 219 q 43 493 43 399 q 80 681 43 592 q 181 841 117 771 q 334 952 246 911 q 528 993 422 993 q 723 950 635 993 q 874 835 811 907 q 971 674 936 763 q 1006 490 1006 585 q 969 303 1006 393 q 869 144 933 214 q 716 33 804 74 q 524 -7 628 -7 m 238 493 q 257 369 238 429 q 313 263 276 310 q 403 190 350 217 q 525 163 457 163 q 649 191 594 163 q 739 267 703 219 q 794 374 775 315 q 813 493 813 433 q 792 616 813 557 q 735 722 772 675 q 645 795 699 768 q 525 822 592 822 q 401 794 454 822 q 311 718 347 765 q 256 613 275 671 q 238 493 238 554 m 321 1136 l 321 1251 l 738 1251 l 738 1136 l 321 1136 m 590 1336 l 471 1372 l 546 1538 l 719 1538 l 590 1336 z "},"Ṑ":{"ha":1050,"x_min":43,"x_max":1006,"o":"m 524 -7 q 327 35 415 -7 q 176 148 239 76 q 78 309 113 219 q 43 493 43 399 q 80 681 43 592 q 181 841 117 771 q 334 952 246 911 q 528 993 422 993 q 723 950 635 993 q 874 835 811 907 q 971 674 936 763 q 1006 490 1006 585 q 969 303 1006 393 q 869 144 933 214 q 716 33 804 74 q 524 -7 628 -7 m 238 493 q 257 369 238 429 q 313 263 276 310 q 403 190 350 217 q 525 163 457 163 q 649 191 594 163 q 739 267 703 219 q 794 374 775 315 q 813 493 813 433 q 792 616 813 557 q 735 722 772 675 q 645 795 699 768 q 525 822 592 822 q 401 794 454 822 q 311 718 347 765 q 256 613 275 671 q 238 493 238 554 m 321 1136 l 321 1251 l 738 1251 l 738 1136 l 321 1136 m 356 1538 l 528 1538 l 604 1372 l 485 1336 l 356 1538 z "},"Ǫ":{"ha":1050,"x_min":43,"x_max":1006,"o":"m 524 -7 q 327 35 415 -7 q 176 148 239 76 q 78 309 113 219 q 43 493 43 399 q 80 681 43 592 q 181 841 117 771 q 334 952 246 911 q 528 993 422 993 q 723 950 635 993 q 874 835 811 907 q 971 674 936 763 q 1006 490 1006 585 q 969 303 1006 393 q 869 144 933 214 q 716 33 804 74 q 524 -7 628 -7 m 238 493 q 257 369 238 429 q 313 263 276 310 q 403 190 350 217 q 525 163 457 163 q 649 191 594 163 q 739 267 703 219 q 794 374 775 315 q 813 493 813 433 q 792 616 813 557 q 735 722 772 675 q 645 795 699 768 q 525 822 592 822 q 401 794 454 822 q 311 718 347 765 q 256 613 275 671 q 238 493 238 554 m 417 -144 q 451 -50 417 -97 q 558 38 486 -3 l 617 38 l 639 8 q 561 -58 588 -28 q 535 -112 535 -87 q 562 -150 535 -137 q 639 -164 589 -162 l 601 -269 q 491 -244 532 -262 q 433 -199 450 -225 q 417 -144 417 -172 z "},"Ø":{"ha":1049,"x_min":43,"x_max":1006,"o":"m 524 -7 q 327 35 415 -7 q 176 148 239 76 q 78 309 113 219 q 43 493 43 399 q 80 681 43 592 q 181 841 117 771 q 334 952 246 911 q 528 993 422 993 q 723 950 635 993 q 874 835 811 907 q 971 674 936 763 q 1006 490 1006 585 q 969 303 1006 393 q 869 144 933 214 q 716 33 804 74 q 524 -7 628 -7 m 238 493 q 257 369 238 429 q 313 263 276 310 q 403 190 350 217 q 525 163 457 163 q 649 191 594 163 q 739 267 703 219 q 794 374 775 315 q 813 493 813 433 q 792 616 813 557 q 735 722 772 675 q 645 795 699 768 q 525 822 592 822 q 401 794 454 822 q 311 718 347 765 q 256 613 275 671 q 238 493 238 554 m 972 986 l 283 0 l 78 0 l 765 986 l 972 986 z "},"Ǿ":{"ha":1049,"x_min":43,"x_max":1006,"o":"m 524 -7 q 327 35 415 -7 q 176 148 239 76 q 78 309 113 219 q 43 493 43 399 q 80 681 43 592 q 181 841 117 771 q 334 952 246 911 q 528 993 422 993 q 723 950 635 993 q 874 835 811 907 q 971 674 936 763 q 1006 490 1006 585 q 969 303 1006 393 q 869 144 933 214 q 716 33 804 74 q 524 -7 628 -7 m 238 493 q 257 369 238 429 q 313 263 276 310 q 403 190 350 217 q 525 163 457 163 q 649 191 594 163 q 739 267 703 219 q 794 374 775 315 q 813 493 813 433 q 792 616 813 557 q 735 722 772 675 q 645 795 699 768 q 525 822 592 822 q 401 794 454 822 q 311 718 347 765 q 256 613 275 671 q 238 493 238 554 m 972 986 l 283 0 l 78 0 l 765 986 l 972 986 m 589 1069 l 469 1106 l 544 1271 l 718 1271 l 589 1069 z "},"Õ":{"ha":1050,"x_min":43,"x_max":1006,"o":"m 524 -7 q 327 35 415 -7 q 176 148 239 76 q 78 309 113 219 q 43 493 43 399 q 80 681 43 592 q 181 841 117 771 q 334 952 246 911 q 528 993 422 993 q 723 950 635 993 q 874 835 811 907 q 971 674 936 763 q 1006 490 1006 585 q 969 303 1006 393 q 869 144 933 214 q 716 33 804 74 q 524 -7 628 -7 m 238 493 q 257 369 238 429 q 313 263 276 310 q 403 190 350 217 q 525 163 457 163 q 649 191 594 163 q 739 267 703 219 q 794 374 775 315 q 813 493 813 433 q 792 616 813 557 q 735 722 772 675 q 645 795 699 768 q 525 822 592 822 q 401 794 454 822 q 311 718 347 765 q 256 613 275 671 q 238 493 238 554 m 618 1093 q 547 1109 576 1093 q 492 1140 517 1125 q 436 1156 467 1156 q 391 1140 406 1156 q 373 1107 376 1124 q 369 1089 369 1090 l 267 1089 q 275 1131 267 1101 q 302 1191 283 1160 q 352 1244 321 1222 q 429 1267 383 1267 q 500 1250 472 1267 q 553 1217 528 1233 q 613 1201 579 1201 q 661 1218 646 1201 q 681 1251 676 1235 q 686 1271 686 1268 l 789 1271 q 781 1233 789 1261 q 752 1173 772 1206 q 699 1117 732 1140 q 618 1093 667 1093 z "},"Ṍ":{"ha":1050,"x_min":43,"x_max":1006,"o":"m 524 -7 q 327 35 415 -7 q 176 148 239 76 q 78 309 113 219 q 43 493 43 399 q 80 681 43 592 q 181 841 117 771 q 334 952 246 911 q 528 993 422 993 q 723 950 635 993 q 874 835 811 907 q 971 674 936 763 q 1006 490 1006 585 q 969 303 1006 393 q 869 144 933 214 q 716 33 804 74 q 524 -7 628 -7 m 238 493 q 257 369 238 429 q 313 263 276 310 q 403 190 350 217 q 525 163 457 163 q 649 191 594 163 q 739 267 703 219 q 794 374 775 315 q 813 493 813 433 q 792 616 813 557 q 735 722 772 675 q 645 795 699 768 q 525 822 592 822 q 401 794 454 822 q 311 718 347 765 q 256 613 275 671 q 238 493 238 554 m 618 1093 q 547 1109 576 1093 q 492 1140 517 1125 q 436 1156 467 1156 q 391 1140 406 1156 q 373 1107 376 1124 q 369 1089 369 1090 l 267 1089 q 275 1131 267 1101 q 302 1191 283 1160 q 352 1244 321 1222 q 429 1267 383 1267 q 500 1250 472 1267 q 553 1217 528 1233 q 613 1201 579 1201 q 661 1218 646 1201 q 681 1251 676 1235 q 686 1271 686 1268 l 789 1271 q 781 1233 789 1261 q 752 1173 772 1206 q 699 1117 732 1140 q 618 1093 667 1093 m 589 1356 l 469 1392 l 544 1557 l 718 1557 l 589 1356 z "},"Ṏ":{"ha":1050,"x_min":43,"x_max":1006,"o":"m 524 -7 q 327 35 415 -7 q 176 148 239 76 q 78 309 113 219 q 43 493 43 399 q 80 681 43 592 q 181 841 117 771 q 334 952 246 911 q 528 993 422 993 q 723 950 635 993 q 874 835 811 907 q 971 674 936 763 q 1006 490 1006 585 q 969 303 1006 393 q 869 144 933 214 q 716 33 804 74 q 524 -7 628 -7 m 238 493 q 257 369 238 429 q 313 263 276 310 q 403 190 350 217 q 525 163 457 163 q 649 191 594 163 q 739 267 703 219 q 794 374 775 315 q 813 493 813 433 q 792 616 813 557 q 735 722 772 675 q 645 795 699 768 q 525 822 592 822 q 401 794 454 822 q 311 718 347 765 q 256 613 275 671 q 238 493 238 554 m 618 1093 q 547 1109 576 1093 q 492 1140 517 1125 q 436 1156 467 1156 q 391 1140 406 1156 q 373 1107 376 1124 q 369 1089 369 1090 l 267 1089 q 275 1131 267 1101 q 302 1191 283 1160 q 352 1244 321 1222 q 429 1267 383 1267 q 500 1250 472 1267 q 553 1217 528 1233 q 613 1201 579 1201 q 661 1218 646 1201 q 681 1251 676 1235 q 686 1271 686 1268 l 789 1271 q 781 1233 789 1261 q 752 1173 772 1206 q 699 1117 732 1140 q 618 1093 667 1093 m 317 1383 l 317 1549 l 471 1549 l 471 1383 l 317 1383 m 583 1383 l 583 1549 l 738 1549 l 738 1383 l 583 1383 z "},"Ȭ":{"ha":1050,"x_min":43,"x_max":1006,"o":"m 524 -7 q 327 35 415 -7 q 176 148 239 76 q 78 309 113 219 q 43 493 43 399 q 80 681 43 592 q 181 841 117 771 q 334 952 246 911 q 528 993 422 993 q 723 950 635 993 q 874 835 811 907 q 971 674 936 763 q 1006 490 1006 585 q 969 303 1006 393 q 869 144 933 214 q 716 33 804 74 q 524 -7 628 -7 m 238 493 q 257 369 238 429 q 313 263 276 310 q 403 190 350 217 q 525 163 457 163 q 649 191 594 163 q 739 267 703 219 q 794 374 775 315 q 813 493 813 433 q 792 616 813 557 q 735 722 772 675 q 645 795 699 768 q 525 822 592 822 q 401 794 454 822 q 311 718 347 765 q 256 613 275 671 q 238 493 238 554 m 618 1093 q 547 1109 576 1093 q 492 1140 517 1125 q 436 1156 467 1156 q 391 1140 406 1156 q 373 1107 376 1124 q 369 1089 369 1090 l 267 1089 q 275 1131 267 1101 q 302 1191 283 1160 q 352 1244 321 1222 q 429 1267 383 1267 q 500 1250 472 1267 q 553 1217 528 1233 q 613 1201 579 1201 q 661 1218 646 1201 q 681 1251 676 1235 q 686 1271 686 1268 l 789 1271 q 781 1233 789 1261 q 752 1173 772 1206 q 699 1117 732 1140 q 618 1093 667 1093 m 321 1422 l 321 1538 l 738 1538 l 738 1422 l 321 1422 z "},"Œ":{"ha":1507,"x_min":43,"x_max":1461,"o":"m 1461 168 l 1461 0 l 794 0 l 794 146 q 720 67 764 101 q 624 13 676 33 q 511 -7 571 -7 q 321 35 407 -7 q 172 148 235 76 q 76 309 110 219 q 43 493 43 399 q 78 681 43 592 q 178 841 114 771 q 327 952 242 911 q 514 993 413 993 q 627 973 575 993 q 722 919 679 953 q 794 842 764 885 l 794 986 l 1449 986 l 1449 818 l 986 818 l 986 586 l 1374 586 l 1374 418 l 986 418 l 986 168 l 1461 168 m 513 163 q 631 191 579 163 q 717 267 682 219 q 769 374 751 315 q 786 494 786 433 q 767 617 786 558 q 713 722 749 676 q 626 796 678 768 q 511 824 575 824 q 394 795 446 824 q 308 719 343 767 q 256 613 274 671 q 238 493 238 554 q 256 369 238 429 q 310 264 274 310 q 397 190 346 218 q 513 163 449 163 z "},"P":{"ha":865,"x_min":103,"x_max":835,"o":"m 103 0 l 103 986 l 521 986 q 646 958 589 986 q 745 883 703 931 q 811 778 788 836 q 835 658 835 719 q 796 500 835 575 q 689 378 757 425 q 528 331 621 331 l 294 331 l 294 0 l 103 0 m 294 499 l 517 499 q 579 518 551 499 q 624 574 607 538 q 640 658 640 611 q 622 746 640 710 q 573 800 603 782 q 508 818 543 818 l 294 818 l 294 499 z "},"Þ":{"ha":839,"x_min":103,"x_max":811,"o":"m 497 808 q 623 780 565 808 q 723 705 681 751 q 788 600 765 658 q 811 481 811 542 q 773 322 811 397 q 666 200 735 247 q 506 153 597 153 l 294 153 l 294 0 l 103 0 l 103 986 l 294 986 l 294 808 l 497 808 m 496 321 q 561 342 533 321 q 605 401 589 364 q 621 481 621 438 q 602 563 621 528 q 553 619 583 599 q 488 640 522 640 l 294 640 l 294 321 l 496 321 z "},"Q":{"ha":1049,"x_min":43,"x_max":1011,"o":"m 524 -7 q 327 35 415 -7 q 176 149 239 78 q 78 309 113 219 q 43 493 43 399 q 80 681 43 592 q 181 841 117 771 q 334 952 246 911 q 528 993 422 993 q 723 950 635 993 q 874 835 811 907 q 971 674 936 763 q 1006 490 1006 585 q 969 303 1006 393 q 869 144 933 214 q 716 33 804 74 q 524 -7 628 -7 m 525 163 q 649 191 594 163 q 739 267 703 219 q 794 374 775 315 q 813 493 813 433 q 792 617 813 557 q 735 722 772 676 q 645 796 699 768 q 525 824 592 824 q 401 795 454 824 q 311 719 347 767 q 256 613 275 671 q 238 493 238 554 q 257 369 238 429 q 313 264 276 310 q 403 190 350 218 q 525 163 457 163 m 506 365 l 686 365 l 1011 0 l 831 0 l 506 365 z "},"R":{"ha":924,"x_min":103,"x_max":900,"o":"m 103 0 l 103 986 l 539 986 q 665 958 607 986 q 765 883 722 931 q 830 778 807 836 q 853 658 853 719 q 831 538 853 596 q 769 438 810 481 q 675 371 729 394 l 900 0 l 689 0 l 486 331 l 294 331 l 294 0 l 103 0 m 294 499 l 535 499 q 599 520 571 499 q 643 578 626 542 q 660 658 660 614 q 640 741 660 706 q 591 797 621 776 q 526 818 561 818 l 294 818 l 294 499 z "},"Ŕ":{"ha":924,"x_min":103,"x_max":900,"o":"m 103 0 l 103 986 l 539 986 q 665 958 607 986 q 765 883 722 931 q 830 778 807 836 q 853 658 853 719 q 831 538 853 596 q 769 438 810 481 q 675 371 729 394 l 900 0 l 689 0 l 486 331 l 294 331 l 294 0 l 103 0 m 294 499 l 535 499 q 599 520 571 499 q 643 578 626 542 q 660 658 660 614 q 640 741 660 706 q 591 797 621 776 q 526 818 561 818 l 294 818 l 294 499 m 496 1071 l 376 1107 l 451 1272 l 625 1272 l 496 1071 z "},"Ř":{"ha":924,"x_min":103,"x_max":900,"o":"m 103 0 l 103 986 l 539 986 q 665 958 607 986 q 765 883 722 931 q 830 778 807 836 q 853 658 853 719 q 831 538 853 596 q 769 438 810 481 q 675 371 729 394 l 900 0 l 689 0 l 486 331 l 294 331 l 294 0 l 103 0 m 294 499 l 535 499 q 599 520 571 499 q 643 578 626 542 q 660 658 660 614 q 640 741 660 706 q 591 797 621 776 q 526 818 561 818 l 294 818 l 294 499 m 317 1272 l 435 1185 l 553 1272 l 649 1228 l 501 1088 l 367 1088 l 219 1228 l 317 1272 z "},"Ŗ":{"ha":924,"x_min":103,"x_max":900,"o":"m 103 0 l 103 986 l 539 986 q 665 958 607 986 q 765 883 722 931 q 830 778 807 836 q 853 658 853 719 q 831 538 853 596 q 769 438 810 481 q 675 371 729 394 l 900 0 l 689 0 l 486 331 l 294 331 l 294 0 l 103 0 m 294 499 l 535 499 q 599 520 571 499 q 643 578 626 542 q 660 658 660 614 q 640 741 660 706 q 591 797 621 776 q 526 818 561 818 l 294 818 l 294 499 m 408 -296 l 446 -196 l 392 -196 l 392 -65 l 549 -65 l 549 -196 l 493 -296 l 408 -296 z "},"Ȑ":{"ha":924,"x_min":103,"x_max":900,"o":"m 103 0 l 103 986 l 539 986 q 665 958 607 986 q 765 883 722 931 q 830 778 807 836 q 853 658 853 719 q 831 538 853 596 q 769 438 810 481 q 675 371 729 394 l 900 0 l 689 0 l 486 331 l 294 331 l 294 0 l 103 0 m 294 499 l 535 499 q 599 520 571 499 q 643 578 626 542 q 660 658 660 614 q 640 741 660 706 q 591 797 621 776 q 526 818 561 818 l 294 818 l 294 499 m 397 1274 l 543 1274 l 608 1108 l 517 1072 l 397 1274 m 175 1274 l 319 1274 l 386 1108 l 294 1072 l 175 1274 z "},"Ṛ":{"ha":924,"x_min":103,"x_max":900,"o":"m 103 0 l 103 986 l 539 986 q 665 958 607 986 q 765 883 722 931 q 830 778 807 836 q 853 658 853 719 q 831 538 853 596 q 769 438 810 481 q 675 371 729 394 l 900 0 l 689 0 l 486 331 l 294 331 l 294 0 l 103 0 m 294 499 l 535 499 q 599 520 571 499 q 643 578 626 542 q 660 658 660 614 q 640 741 660 706 q 591 797 621 776 q 526 818 561 818 l 294 818 l 294 499 m 392 -276 l 392 -101 l 560 -101 l 560 -276 l 392 -276 z "},"Ȓ":{"ha":924,"x_min":103,"x_max":900,"o":"m 103 0 l 103 986 l 539 986 q 665 958 607 986 q 765 883 722 931 q 830 778 807 836 q 853 658 853 719 q 831 538 853 596 q 769 438 810 481 q 675 371 729 394 l 900 0 l 689 0 l 486 331 l 294 331 l 294 0 l 103 0 m 294 499 l 535 499 q 599 520 571 499 q 643 578 626 542 q 660 658 660 614 q 640 741 660 706 q 591 797 621 776 q 526 818 561 818 l 294 818 l 294 499 m 435 1189 q 378 1158 403 1189 q 353 1086 353 1128 l 253 1086 q 304 1219 253 1167 q 435 1272 356 1272 q 566 1219 515 1272 q 617 1086 617 1167 l 518 1086 q 490 1160 514 1131 q 435 1189 467 1189 z "},"Ṟ":{"ha":924,"x_min":103,"x_max":900,"o":"m 103 0 l 103 986 l 539 986 q 665 958 607 986 q 765 883 722 931 q 830 778 807 836 q 853 658 853 719 q 831 538 853 596 q 769 438 810 481 q 675 371 729 394 l 900 0 l 689 0 l 486 331 l 294 331 l 294 0 l 103 0 m 294 499 l 535 499 q 599 520 571 499 q 643 578 626 542 q 660 658 660 614 q 640 741 660 706 q 591 797 621 776 q 526 818 561 818 l 294 818 l 294 499 m 267 -226 l 267 -111 l 683 -111 l 683 -226 l 267 -226 z "},"S":{"ha":851,"x_min":31,"x_max":810,"o":"m 690 728 q 655 754 681 738 q 592 786 629 771 q 513 813 556 801 q 425 825 469 825 q 308 796 347 825 q 268 714 268 767 q 293 650 268 674 q 368 610 318 626 q 493 574 418 593 q 662 516 590 550 q 772 427 733 482 q 810 282 810 372 q 781 147 810 203 q 700 56 751 90 q 583 5 649 21 q 444 -11 518 -11 q 297 4 371 -11 q 156 48 224 19 q 31 117 88 76 l 115 282 q 160 249 128 269 q 238 209 192 229 q 338 175 283 189 q 447 161 392 161 q 565 188 525 161 q 606 263 606 214 q 574 332 606 307 q 485 376 542 357 q 350 417 428 394 q 194 476 257 443 q 101 558 132 508 q 71 683 71 608 q 119 853 71 785 q 249 958 167 922 q 431 993 331 993 q 562 978 500 993 q 678 938 624 963 q 775 883 732 913 l 690 728 z "},"Ś":{"ha":851,"x_min":31,"x_max":810,"o":"m 690 728 q 655 754 681 738 q 592 786 629 771 q 513 813 556 801 q 425 825 469 825 q 308 796 347 825 q 268 714 268 767 q 293 650 268 674 q 368 610 318 626 q 493 574 418 593 q 662 516 590 550 q 772 427 733 482 q 810 282 810 372 q 781 147 810 203 q 700 56 751 90 q 583 5 649 21 q 444 -11 518 -11 q 297 4 371 -11 q 156 48 224 19 q 31 117 88 76 l 115 282 q 160 249 128 269 q 238 209 192 229 q 338 175 283 189 q 447 161 392 161 q 565 188 525 161 q 606 263 606 214 q 574 332 606 307 q 485 376 542 357 q 350 417 428 394 q 194 476 257 443 q 101 558 132 508 q 71 683 71 608 q 119 853 71 785 q 249 958 167 922 q 431 993 331 993 q 562 978 500 993 q 678 938 624 963 q 775 883 732 913 l 690 728 m 497 1079 l 378 1115 l 453 1281 l 626 1281 l 497 1079 z "},"Ṥ":{"ha":851,"x_min":31,"x_max":810,"o":"m 690 728 q 655 754 681 738 q 592 786 629 771 q 513 813 556 801 q 425 825 469 825 q 308 796 347 825 q 268 714 268 767 q 293 650 268 674 q 368 610 318 626 q 493 574 418 593 q 662 516 590 550 q 772 427 733 482 q 810 282 810 372 q 781 147 810 203 q 700 56 751 90 q 583 5 649 21 q 444 -11 518 -11 q 297 4 371 -11 q 156 48 224 19 q 31 117 88 76 l 115 282 q 160 249 128 269 q 238 209 192 229 q 338 175 283 189 q 447 161 392 161 q 565 188 525 161 q 606 263 606 214 q 574 332 606 307 q 485 376 542 357 q 350 417 428 394 q 194 476 257 443 q 101 558 132 508 q 71 683 71 608 q 119 853 71 785 q 249 958 167 922 q 431 993 331 993 q 562 978 500 993 q 678 938 624 963 q 775 883 732 913 l 690 728 m 497 1079 l 378 1115 l 453 1281 l 626 1281 l 497 1079 m 419 1392 l 419 1567 l 588 1567 l 588 1392 l 419 1392 z "},"Š":{"ha":851,"x_min":31,"x_max":810,"o":"m 690 728 q 655 754 681 738 q 592 786 629 771 q 513 813 556 801 q 425 825 469 825 q 308 796 347 825 q 268 714 268 767 q 293 650 268 674 q 368 610 318 626 q 493 574 418 593 q 662 516 590 550 q 772 427 733 482 q 810 282 810 372 q 781 147 810 203 q 700 56 751 90 q 583 5 649 21 q 444 -11 518 -11 q 297 4 371 -11 q 156 48 224 19 q 31 117 88 76 l 115 282 q 160 249 128 269 q 238 209 192 229 q 338 175 283 189 q 447 161 392 161 q 565 188 525 161 q 606 263 606 214 q 574 332 606 307 q 485 376 542 357 q 350 417 428 394 q 194 476 257 443 q 101 558 132 508 q 71 683 71 608 q 119 853 71 785 q 249 958 167 922 q 431 993 331 993 q 562 978 500 993 q 678 938 624 963 q 775 883 732 913 l 690 728 m 318 1281 l 436 1193 l 554 1281 l 650 1236 l 503 1096 l 368 1096 l 221 1236 l 318 1281 z "},"Ṧ":{"ha":851,"x_min":31,"x_max":810,"o":"m 690 728 q 655 754 681 738 q 592 786 629 771 q 513 813 556 801 q 425 825 469 825 q 308 796 347 825 q 268 714 268 767 q 293 650 268 674 q 368 610 318 626 q 493 574 418 593 q 662 516 590 550 q 772 427 733 482 q 810 282 810 372 q 781 147 810 203 q 700 56 751 90 q 583 5 649 21 q 444 -11 518 -11 q 297 4 371 -11 q 156 48 224 19 q 31 117 88 76 l 115 282 q 160 249 128 269 q 238 209 192 229 q 338 175 283 189 q 447 161 392 161 q 565 188 525 161 q 606 263 606 214 q 574 332 606 307 q 485 376 542 357 q 350 417 428 394 q 194 476 257 443 q 101 558 132 508 q 71 683 71 608 q 119 853 71 785 q 249 958 167 922 q 431 993 331 993 q 562 978 500 993 q 678 938 624 963 q 775 883 732 913 l 690 728 m 318 1281 l 436 1193 l 554 1281 l 650 1236 l 503 1096 l 368 1096 l 221 1236 l 318 1281 m 353 1392 l 353 1567 l 521 1567 l 521 1392 l 353 1392 z "},"Ş":{"ha":851,"x_min":31,"x_max":810,"o":"m 690 728 q 655 754 681 738 q 592 786 629 771 q 513 813 556 801 q 425 825 469 825 q 308 796 347 825 q 268 714 268 767 q 293 650 268 674 q 368 610 318 626 q 493 574 418 593 q 662 516 590 550 q 772 427 733 482 q 810 282 810 372 q 781 147 810 203 q 700 56 751 90 q 583 5 649 21 q 444 -11 518 -11 q 297 4 371 -11 q 156 48 224 19 q 31 117 88 76 l 115 282 q 160 249 128 269 q 238 209 192 229 q 338 175 283 189 q 447 161 392 161 q 565 188 525 161 q 606 263 606 214 q 574 332 606 307 q 485 376 542 357 q 350 417 428 394 q 194 476 257 443 q 101 558 132 508 q 71 683 71 608 q 119 853 71 785 q 249 958 167 922 q 431 993 331 993 q 562 978 500 993 q 678 938 624 963 q 775 883 732 913 l 690 728 m 426 -279 q 346 -269 389 -279 q 260 -237 303 -258 l 307 -139 q 349 -160 328 -153 q 394 -168 371 -168 q 451 -152 431 -168 q 471 -106 471 -136 q 451 -51 471 -76 q 393 0 431 -25 l 456 40 q 547 -38 511 4 q 583 -142 583 -81 q 544 -240 583 -200 q 426 -279 504 -279 z "},"Ŝ":{"ha":851,"x_min":31,"x_max":810,"o":"m 690 728 q 655 754 681 738 q 592 786 629 771 q 513 813 556 801 q 425 825 469 825 q 308 796 347 825 q 268 714 268 767 q 293 650 268 674 q 368 610 318 626 q 493 574 418 593 q 662 516 590 550 q 772 427 733 482 q 810 282 810 372 q 781 147 810 203 q 700 56 751 90 q 583 5 649 21 q 444 -11 518 -11 q 297 4 371 -11 q 156 48 224 19 q 31 117 88 76 l 115 282 q 160 249 128 269 q 238 209 192 229 q 338 175 283 189 q 447 161 392 161 q 565 188 525 161 q 606 263 606 214 q 574 332 606 307 q 485 376 542 357 q 350 417 428 394 q 194 476 257 443 q 101 558 132 508 q 71 683 71 608 q 119 853 71 785 q 249 958 167 922 q 431 993 331 993 q 562 978 500 993 q 678 938 624 963 q 775 883 732 913 l 690 728 m 221 1140 l 368 1281 l 503 1281 l 650 1140 l 554 1096 l 436 1183 l 318 1096 l 221 1140 z "},"Ș":{"ha":851,"x_min":31,"x_max":810,"o":"m 690 728 q 655 754 681 738 q 592 786 629 771 q 513 813 556 801 q 425 825 469 825 q 308 796 347 825 q 268 714 268 767 q 293 650 268 674 q 368 610 318 626 q 493 574 418 593 q 662 516 590 550 q 772 427 733 482 q 810 282 810 372 q 781 147 810 203 q 700 56 751 90 q 583 5 649 21 q 444 -11 518 -11 q 297 4 371 -11 q 156 48 224 19 q 31 117 88 76 l 115 282 q 160 249 128 269 q 238 209 192 229 q 338 175 283 189 q 447 161 392 161 q 565 188 525 161 q 606 263 606 214 q 574 332 606 307 q 485 376 542 357 q 350 417 428 394 q 194 476 257 443 q 101 558 132 508 q 71 683 71 608 q 119 853 71 785 q 249 958 167 922 q 431 993 331 993 q 562 978 500 993 q 678 938 624 963 q 775 883 732 913 l 690 728 m 378 -296 l 415 -196 l 361 -196 l 361 -65 l 518 -65 l 518 -196 l 463 -296 l 378 -296 z "},"Ṡ":{"ha":851,"x_min":31,"x_max":810,"o":"m 690 728 q 655 754 681 738 q 592 786 629 771 q 513 813 556 801 q 425 825 469 825 q 308 796 347 825 q 268 714 268 767 q 293 650 268 674 q 368 610 318 626 q 493 574 418 593 q 662 516 590 550 q 772 427 733 482 q 810 282 810 372 q 781 147 810 203 q 700 56 751 90 q 583 5 649 21 q 444 -11 518 -11 q 297 4 371 -11 q 156 48 224 19 q 31 117 88 76 l 115 282 q 160 249 128 269 q 238 209 192 229 q 338 175 283 189 q 447 161 392 161 q 565 188 525 161 q 606 263 606 214 q 574 332 606 307 q 485 376 542 357 q 350 417 428 394 q 194 476 257 443 q 101 558 132 508 q 71 683 71 608 q 119 853 71 785 q 249 958 167 922 q 431 993 331 993 q 562 978 500 993 q 678 938 624 963 q 775 883 732 913 l 690 728 m 353 1106 l 353 1281 l 521 1281 l 521 1106 l 353 1106 z "},"Ṣ":{"ha":851,"x_min":31,"x_max":810,"o":"m 690 728 q 655 754 681 738 q 592 786 629 771 q 513 813 556 801 q 425 825 469 825 q 308 796 347 825 q 268 714 268 767 q 293 650 268 674 q 368 610 318 626 q 493 574 418 593 q 662 516 590 550 q 772 427 733 482 q 810 282 810 372 q 781 147 810 203 q 700 56 751 90 q 583 5 649 21 q 444 -11 518 -11 q 297 4 371 -11 q 156 48 224 19 q 31 117 88 76 l 115 282 q 160 249 128 269 q 238 209 192 229 q 338 175 283 189 q 447 161 392 161 q 565 188 525 161 q 606 263 606 214 q 574 332 606 307 q 485 376 542 357 q 350 417 428 394 q 194 476 257 443 q 101 558 132 508 q 71 683 71 608 q 119 853 71 785 q 249 958 167 922 q 431 993 331 993 q 562 978 500 993 q 678 938 624 963 q 775 883 732 913 l 690 728 m 361 -276 l 361 -101 l 529 -101 l 529 -276 l 361 -276 z "},"Ṩ":{"ha":851,"x_min":31,"x_max":810,"o":"m 690 728 q 655 754 681 738 q 592 786 629 771 q 513 813 556 801 q 425 825 469 825 q 308 796 347 825 q 268 714 268 767 q 293 650 268 674 q 368 610 318 626 q 493 574 418 593 q 662 516 590 550 q 772 427 733 482 q 810 282 810 372 q 781 147 810 203 q 700 56 751 90 q 583 5 649 21 q 444 -11 518 -11 q 297 4 371 -11 q 156 48 224 19 q 31 117 88 76 l 115 282 q 160 249 128 269 q 238 209 192 229 q 338 175 283 189 q 447 161 392 161 q 565 188 525 161 q 606 263 606 214 q 574 332 606 307 q 485 376 542 357 q 350 417 428 394 q 194 476 257 443 q 101 558 132 508 q 71 683 71 608 q 119 853 71 785 q 249 958 167 922 q 431 993 331 993 q 562 978 500 993 q 678 938 624 963 q 775 883 732 913 l 690 728 m 361 -276 l 361 -101 l 529 -101 l 529 -276 l 361 -276 m 353 1106 l 353 1281 l 521 1281 l 521 1106 l 353 1106 z "},"ẞ":{"ha":946,"x_min":85,"x_max":904,"o":"m 624 -14 q 447 17 532 -14 q 303 107 363 47 l 368 228 q 490 150 431 175 q 607 125 550 125 q 692 144 660 125 q 725 203 725 164 q 709 244 725 229 q 662 269 693 258 q 585 294 631 281 q 449 347 503 321 q 368 410 394 372 q 342 510 342 449 q 370 622 342 576 q 449 697 399 668 q 567 743 500 726 q 713 767 635 760 l 667 693 q 631 778 658 746 q 565 826 604 811 q 475 840 525 840 q 353 811 400 840 q 283 732 306 782 q 261 617 261 682 l 261 0 l 85 0 l 85 650 q 115 797 85 733 q 198 904 144 861 q 322 969 251 947 q 471 992 392 992 q 647 959 569 992 q 774 865 724 926 q 838 711 824 803 l 846 658 q 722 638 781 649 q 616 614 663 628 q 542 580 569 600 q 515 526 515 560 q 531 485 515 501 q 577 458 547 469 q 647 433 607 446 q 790 383 732 407 q 876 323 847 360 q 904 219 904 286 q 829 47 904 108 q 624 -14 754 -14 z "},"Ə":{"ha":1036,"x_min":28,"x_max":992,"o":"m 513 -7 q 315 34 403 -7 q 162 144 226 75 q 63 301 97 214 q 28 478 28 388 q 30 522 28 500 q 35 557 32 543 l 783 557 q 753 666 778 617 q 692 750 729 715 q 608 803 654 785 q 510 822 561 822 q 409 803 457 822 q 326 751 361 785 q 276 671 290 717 l 83 736 q 185 871 121 814 q 333 960 249 928 q 515 993 418 993 q 709 951 622 993 q 860 840 796 910 q 958 681 924 769 q 992 499 992 593 q 958 308 992 399 q 860 147 924 217 q 710 35 797 76 q 513 -7 622 -7 m 515 161 q 645 192 588 161 q 739 279 703 224 q 781 407 775 335 l 238 407 q 283 281 244 336 q 381 193 321 225 q 515 161 442 161 z "},"T":{"ha":860,"x_min":19,"x_max":840,"o":"m 840 818 l 525 818 l 525 0 l 335 0 l 335 818 l 19 818 l 19 986 l 840 986 l 840 818 z "},"Ŧ":{"ha":894,"x_min":36,"x_max":857,"o":"m 101 404 l 101 508 l 793 508 l 793 404 l 101 404 m 857 818 l 543 818 l 543 0 l 351 0 l 351 818 l 36 818 l 36 986 l 857 986 l 857 818 z "},"Ť":{"ha":860,"x_min":19,"x_max":840,"o":"m 840 818 l 525 818 l 525 0 l 335 0 l 335 818 l 19 818 l 19 986 l 840 986 l 840 818 m 319 1271 l 438 1183 l 556 1271 l 651 1226 l 504 1086 l 369 1086 l 222 1226 l 319 1271 z "},"Ţ":{"ha":860,"x_min":19,"x_max":840,"o":"m 840 818 l 525 818 l 525 0 l 335 0 l 335 818 l 19 818 l 19 986 l 840 986 l 840 818 m 413 -279 q 332 -269 375 -279 q 246 -237 289 -258 l 293 -139 q 335 -160 314 -153 q 381 -168 357 -168 q 437 -152 417 -168 q 457 -106 457 -136 q 437 -51 457 -76 q 379 0 417 -25 l 442 40 q 533 -38 497 4 q 569 -142 569 -81 q 530 -240 569 -200 q 413 -279 490 -279 z "},"Ț":{"ha":860,"x_min":19,"x_max":840,"o":"m 840 818 l 525 818 l 525 0 l 335 0 l 335 818 l 19 818 l 19 986 l 840 986 l 840 818 m 365 -296 l 403 -196 l 349 -196 l 349 -65 l 506 -65 l 506 -196 l 450 -296 l 365 -296 z "},"Ṭ":{"ha":860,"x_min":19,"x_max":840,"o":"m 840 818 l 525 818 l 525 0 l 335 0 l 335 818 l 19 818 l 19 986 l 840 986 l 840 818 m 347 -276 l 347 -101 l 515 -101 l 515 -276 l 347 -276 z "},"Ṯ":{"ha":860,"x_min":19,"x_max":840,"o":"m 840 818 l 525 818 l 525 0 l 335 0 l 335 818 l 19 818 l 19 986 l 840 986 l 840 818 m 224 -226 l 224 -111 l 640 -111 l 640 -226 l 224 -226 z "},"U":{"ha":1042,"x_min":89,"x_max":951,"o":"m 521 -7 q 320 33 403 -7 q 187 142 238 72 q 113 299 136 211 q 89 483 89 388 l 89 986 l 281 986 l 281 483 q 292 365 281 422 q 332 261 304 307 q 406 189 360 215 q 519 163 451 163 q 635 190 589 163 q 709 263 682 217 q 749 366 736 308 q 761 483 761 424 l 761 986 l 951 986 l 951 483 q 927 293 951 382 q 851 137 903 204 q 717 31 799 69 q 521 -7 635 -7 z "},"Ú":{"ha":1042,"x_min":89,"x_max":951,"o":"m 521 -7 q 320 33 403 -7 q 187 142 238 72 q 113 299 136 211 q 89 483 89 388 l 89 986 l 281 986 l 281 483 q 292 365 281 422 q 332 261 304 307 q 406 189 360 215 q 519 163 451 163 q 635 190 589 163 q 709 263 682 217 q 749 366 736 308 q 761 483 761 424 l 761 986 l 951 986 l 951 483 q 927 293 951 382 q 851 137 903 204 q 717 31 799 69 q 521 -7 635 -7 m 582 1069 l 463 1106 l 538 1271 l 711 1271 l 582 1069 z "},"Ŭ":{"ha":1042,"x_min":89,"x_max":951,"o":"m 521 -7 q 320 33 403 -7 q 187 142 238 72 q 113 299 136 211 q 89 483 89 388 l 89 986 l 281 986 l 281 483 q 292 365 281 422 q 332 261 304 307 q 406 189 360 215 q 519 163 451 163 q 635 190 589 163 q 709 263 682 217 q 749 366 736 308 q 761 483 761 424 l 761 986 l 951 986 l 951 483 q 927 293 951 382 q 851 137 903 204 q 717 31 799 69 q 521 -7 635 -7 m 521 1168 q 576 1197 553 1168 q 604 1271 600 1226 l 703 1271 q 652 1138 703 1190 q 521 1085 601 1085 q 390 1138 442 1085 q 339 1271 339 1190 l 439 1271 q 464 1199 439 1229 q 521 1168 489 1168 z "},"Û":{"ha":1042,"x_min":89,"x_max":951,"o":"m 521 -7 q 320 33 403 -7 q 187 142 238 72 q 113 299 136 211 q 89 483 89 388 l 89 986 l 281 986 l 281 483 q 292 365 281 422 q 332 261 304 307 q 406 189 360 215 q 519 163 451 163 q 635 190 589 163 q 709 263 682 217 q 749 366 736 308 q 761 483 761 424 l 761 986 l 951 986 l 951 483 q 927 293 951 382 q 851 137 903 204 q 717 31 799 69 q 521 -7 635 -7 m 306 1131 l 453 1271 l 588 1271 l 735 1131 l 639 1086 l 521 1174 l 403 1086 l 306 1131 z "},"Ȕ":{"ha":1042,"x_min":89,"x_max":951,"o":"m 521 -7 q 320 33 403 -7 q 187 142 238 72 q 113 299 136 211 q 89 483 89 388 l 89 986 l 281 986 l 281 483 q 292 365 281 422 q 332 261 304 307 q 406 189 360 215 q 519 163 451 163 q 635 190 589 163 q 709 263 682 217 q 749 366 736 308 q 761 483 761 424 l 761 986 l 951 986 l 951 483 q 927 293 951 382 q 851 137 903 204 q 717 31 799 69 q 521 -7 635 -7 m 483 1272 l 629 1272 l 694 1107 l 603 1071 l 483 1272 m 261 1272 l 406 1272 l 472 1107 l 381 1071 l 261 1272 z "},"Ü":{"ha":1042,"x_min":89,"x_max":951,"o":"m 521 -7 q 320 33 403 -7 q 187 142 238 72 q 113 299 136 211 q 89 483 89 388 l 89 986 l 281 986 l 281 483 q 292 365 281 422 q 332 261 304 307 q 406 189 360 215 q 519 163 451 163 q 635 190 589 163 q 709 263 682 217 q 749 366 736 308 q 761 483 761 424 l 761 986 l 951 986 l 951 483 q 927 293 951 382 q 851 137 903 204 q 717 31 799 69 q 521 -7 635 -7 m 310 1097 l 310 1263 l 464 1263 l 464 1097 l 310 1097 m 576 1097 l 576 1263 l 731 1263 l 731 1097 l 576 1097 z "},"Ụ":{"ha":1042,"x_min":89,"x_max":951,"o":"m 521 -7 q 320 33 403 -7 q 187 142 238 72 q 113 299 136 211 q 89 483 89 388 l 89 986 l 281 986 l 281 483 q 292 365 281 422 q 332 261 304 307 q 406 189 360 215 q 519 163 451 163 q 635 190 589 163 q 709 263 682 217 q 749 366 736 308 q 761 483 761 424 l 761 986 l 951 986 l 951 483 q 927 293 951 382 q 851 137 903 204 q 717 31 799 69 q 521 -7 635 -7 m 438 -276 l 438 -101 l 606 -101 l 606 -276 l 438 -276 z "},"Ù":{"ha":1042,"x_min":89,"x_max":951,"o":"m 521 -7 q 320 33 403 -7 q 187 142 238 72 q 113 299 136 211 q 89 483 89 388 l 89 986 l 281 986 l 281 483 q 292 365 281 422 q 332 261 304 307 q 406 189 360 215 q 519 163 451 163 q 635 190 589 163 q 709 263 682 217 q 749 366 736 308 q 761 483 761 424 l 761 986 l 951 986 l 951 483 q 927 293 951 382 q 851 137 903 204 q 717 31 799 69 q 521 -7 635 -7 m 347 1272 l 519 1272 l 596 1107 l 476 1071 l 347 1272 z "},"Ủ":{"ha":1042,"x_min":89,"x_max":951,"o":"m 521 -7 q 320 33 403 -7 q 187 142 238 72 q 113 299 136 211 q 89 483 89 388 l 89 986 l 281 986 l 281 483 q 292 365 281 422 q 332 261 304 307 q 406 189 360 215 q 519 163 451 163 q 635 190 589 163 q 709 263 682 217 q 749 366 736 308 q 761 483 761 424 l 761 986 l 951 986 l 951 483 q 927 293 951 382 q 851 137 903 204 q 717 31 799 69 q 521 -7 635 -7 m 450 1211 l 393 1268 q 460 1316 426 1300 q 532 1332 494 1332 q 617 1302 588 1332 q 647 1229 647 1272 q 626 1156 647 1189 q 558 1085 604 1122 l 511 1136 q 545 1172 535 1156 q 556 1206 556 1188 q 545 1233 556 1222 q 517 1244 535 1244 q 485 1237 499 1244 q 450 1211 471 1229 z "},"Ư":{"ha":1042,"x_min":89,"x_max":1117,"o":"m 521 -7 q 320 33 403 -7 q 187 142 238 72 q 113 299 136 211 q 89 483 89 388 l 89 986 l 281 986 l 281 483 q 292 365 281 422 q 332 261 304 307 q 406 189 360 215 q 519 163 451 163 q 635 190 589 163 q 709 263 682 217 q 749 366 736 308 q 761 483 761 424 l 761 986 l 951 986 l 951 483 q 927 293 951 382 q 851 137 903 204 q 717 31 799 69 q 521 -7 635 -7 m 832 858 l 835 986 q 913 994 883 986 q 958 1018 942 1001 q 977 1060 974 1038 q 982 1110 981 1083 l 1117 1110 q 1113 1047 1117 1079 q 1096 985 1108 1015 q 1058 928 1083 956 q 1002 891 1038 907 q 923 867 967 875 q 832 858 879 858 z "},"Ứ":{"ha":1042,"x_min":89,"x_max":1117,"o":"m 521 -7 q 320 33 403 -7 q 187 142 238 72 q 113 299 136 211 q 89 483 89 388 l 89 986 l 281 986 l 281 483 q 292 365 281 422 q 332 261 304 307 q 406 189 360 215 q 519 163 451 163 q 635 190 589 163 q 709 263 682 217 q 749 366 736 308 q 761 483 761 424 l 761 986 l 951 986 l 951 483 q 927 293 951 382 q 851 137 903 204 q 717 31 799 69 q 521 -7 635 -7 m 832 858 l 835 986 q 913 994 883 986 q 958 1018 942 1001 q 977 1060 974 1038 q 982 1110 981 1083 l 1117 1110 q 1113 1047 1117 1079 q 1096 985 1108 1015 q 1058 928 1083 956 q 1002 891 1038 907 q 923 867 967 875 q 832 858 879 858 m 582 1069 l 463 1106 l 538 1271 l 711 1271 l 582 1069 z "},"Ự":{"ha":1042,"x_min":89,"x_max":1117,"o":"m 521 -7 q 320 33 403 -7 q 187 142 238 72 q 113 299 136 211 q 89 483 89 388 l 89 986 l 281 986 l 281 483 q 292 365 281 422 q 332 261 304 307 q 406 189 360 215 q 519 163 451 163 q 635 190 589 163 q 709 263 682 217 q 749 366 736 308 q 761 483 761 424 l 761 986 l 951 986 l 951 483 q 927 293 951 382 q 851 137 903 204 q 717 31 799 69 q 521 -7 635 -7 m 832 858 l 835 986 q 913 994 883 986 q 958 1018 942 1001 q 977 1060 974 1038 q 982 1110 981 1083 l 1117 1110 q 1113 1047 1117 1079 q 1096 985 1108 1015 q 1058 928 1083 956 q 1002 891 1038 907 q 923 867 967 875 q 832 858 879 858 m 438 -276 l 438 -101 l 606 -101 l 606 -276 l 438 -276 z "},"Ừ":{"ha":1042,"x_min":89,"x_max":1117,"o":"m 521 -7 q 320 33 403 -7 q 187 142 238 72 q 113 299 136 211 q 89 483 89 388 l 89 986 l 281 986 l 281 483 q 292 365 281 422 q 332 261 304 307 q 406 189 360 215 q 519 163 451 163 q 635 190 589 163 q 709 263 682 217 q 749 366 736 308 q 761 483 761 424 l 761 986 l 951 986 l 951 483 q 927 293 951 382 q 851 137 903 204 q 717 31 799 69 q 521 -7 635 -7 m 832 858 l 835 986 q 913 994 883 986 q 958 1018 942 1001 q 977 1060 974 1038 q 982 1110 981 1083 l 1117 1110 q 1113 1047 1117 1079 q 1096 985 1108 1015 q 1058 928 1083 956 q 1002 891 1038 907 q 923 867 967 875 q 832 858 879 858 m 347 1272 l 519 1272 l 596 1107 l 476 1071 l 347 1272 z "},"Ử":{"ha":1042,"x_min":89,"x_max":1117,"o":"m 521 -7 q 320 33 403 -7 q 187 142 238 72 q 113 299 136 211 q 89 483 89 388 l 89 986 l 281 986 l 281 483 q 292 365 281 422 q 332 261 304 307 q 406 189 360 215 q 519 163 451 163 q 635 190 589 163 q 709 263 682 217 q 749 366 736 308 q 761 483 761 424 l 761 986 l 951 986 l 951 483 q 927 293 951 382 q 851 137 903 204 q 717 31 799 69 q 521 -7 635 -7 m 832 858 l 835 986 q 913 994 883 986 q 958 1018 942 1001 q 977 1060 974 1038 q 982 1110 981 1083 l 1117 1110 q 1113 1047 1117 1079 q 1096 985 1108 1015 q 1058 928 1083 956 q 1002 891 1038 907 q 923 867 967 875 q 832 858 879 858 m 450 1211 l 393 1268 q 460 1316 426 1300 q 532 1332 494 1332 q 617 1302 588 1332 q 647 1229 647 1272 q 626 1156 647 1189 q 558 1085 604 1122 l 511 1136 q 545 1172 535 1156 q 556 1206 556 1188 q 545 1233 556 1222 q 517 1244 535 1244 q 485 1237 499 1244 q 450 1211 471 1229 z "},"Ữ":{"ha":1042,"x_min":89,"x_max":1117,"o":"m 521 -7 q 320 33 403 -7 q 187 142 238 72 q 113 299 136 211 q 89 483 89 388 l 89 986 l 281 986 l 281 483 q 292 365 281 422 q 332 261 304 307 q 406 189 360 215 q 519 163 451 163 q 635 190 589 163 q 709 263 682 217 q 749 366 736 308 q 761 483 761 424 l 761 986 l 951 986 l 951 483 q 927 293 951 382 q 851 137 903 204 q 717 31 799 69 q 521 -7 635 -7 m 832 858 l 835 986 q 913 994 883 986 q 958 1018 942 1001 q 977 1060 974 1038 q 982 1110 981 1083 l 1117 1110 q 1113 1047 1117 1079 q 1096 985 1108 1015 q 1058 928 1083 956 q 1002 891 1038 907 q 923 867 967 875 q 832 858 879 858 m 611 1093 q 540 1109 569 1093 q 485 1140 510 1125 q 429 1156 460 1156 q 384 1140 399 1156 q 366 1107 369 1124 q 363 1089 363 1090 l 260 1089 q 268 1131 260 1101 q 295 1191 276 1160 q 345 1244 314 1222 q 422 1267 376 1267 q 493 1250 465 1267 q 547 1217 521 1233 q 606 1201 572 1201 q 654 1218 639 1201 q 674 1251 669 1235 q 679 1271 679 1268 l 782 1271 q 774 1233 782 1261 q 745 1173 765 1206 q 692 1117 725 1140 q 611 1093 660 1093 z "},"Ű":{"ha":1042,"x_min":89,"x_max":951,"o":"m 521 -7 q 320 33 403 -7 q 187 142 238 72 q 113 299 136 211 q 89 483 89 388 l 89 986 l 281 986 l 281 483 q 292 365 281 422 q 332 261 304 307 q 406 189 360 215 q 519 163 451 163 q 635 190 589 163 q 709 263 682 217 q 749 366 736 308 q 761 483 761 424 l 761 986 l 951 986 l 951 483 q 927 293 951 382 q 851 137 903 204 q 717 31 799 69 q 521 -7 635 -7 m 433 1071 l 342 1107 l 408 1272 l 553 1272 l 433 1071 m 656 1071 l 565 1107 l 631 1272 l 776 1272 l 656 1071 z "},"Ȗ":{"ha":1042,"x_min":89,"x_max":951,"o":"m 521 -7 q 320 33 403 -7 q 187 142 238 72 q 113 299 136 211 q 89 483 89 388 l 89 986 l 281 986 l 281 483 q 292 365 281 422 q 332 261 304 307 q 406 189 360 215 q 519 163 451 163 q 635 190 589 163 q 709 263 682 217 q 749 366 736 308 q 761 483 761 424 l 761 986 l 951 986 l 951 483 q 927 293 951 382 q 851 137 903 204 q 717 31 799 69 q 521 -7 635 -7 m 521 1188 q 464 1157 489 1188 q 439 1085 439 1126 l 339 1085 q 390 1218 339 1165 q 521 1271 442 1271 q 652 1218 601 1271 q 703 1085 703 1165 l 604 1085 q 576 1158 600 1129 q 521 1188 553 1188 z "},"Ū":{"ha":1042,"x_min":89,"x_max":951,"o":"m 521 -7 q 320 33 403 -7 q 187 142 238 72 q 113 299 136 211 q 89 483 89 388 l 89 986 l 281 986 l 281 483 q 292 365 281 422 q 332 261 304 307 q 406 189 360 215 q 519 163 451 163 q 635 190 589 163 q 709 263 682 217 q 749 366 736 308 q 761 483 761 424 l 761 986 l 951 986 l 951 483 q 927 293 951 382 q 851 137 903 204 q 717 31 799 69 q 521 -7 635 -7 m 314 1136 l 314 1251 l 731 1251 l 731 1136 l 314 1136 z "},"Ṻ":{"ha":1042,"x_min":89,"x_max":951,"o":"m 521 -7 q 320 33 403 -7 q 187 142 238 72 q 113 299 136 211 q 89 483 89 388 l 89 986 l 281 986 l 281 483 q 292 365 281 422 q 332 261 304 307 q 406 189 360 215 q 519 163 451 163 q 635 190 589 163 q 709 263 682 217 q 749 366 736 308 q 761 483 761 424 l 761 986 l 951 986 l 951 483 q 927 293 951 382 q 851 137 903 204 q 717 31 799 69 q 521 -7 635 -7 m 314 1136 l 314 1251 l 731 1251 l 731 1136 l 314 1136 m 311 1364 l 311 1529 l 465 1529 l 465 1364 l 311 1364 m 578 1364 l 578 1529 l 732 1529 l 732 1364 l 578 1364 z "},"Ų":{"ha":1042,"x_min":89,"x_max":951,"o":"m 521 -7 q 320 33 403 -7 q 187 142 238 72 q 113 299 136 211 q 89 483 89 388 l 89 986 l 281 986 l 281 483 q 292 365 281 422 q 332 261 304 307 q 406 189 360 215 q 519 163 451 163 q 635 190 589 163 q 709 263 682 217 q 749 366 736 308 q 761 483 761 424 l 761 986 l 951 986 l 951 483 q 927 293 951 382 q 851 137 903 204 q 717 31 799 69 q 521 -7 635 -7 m 406 -149 q 440 -54 406 -101 q 547 33 475 -7 l 606 33 l 628 4 q 550 -62 576 -32 q 524 -117 524 -92 q 551 -154 524 -142 q 628 -168 578 -167 l 590 -274 q 480 -248 521 -267 q 422 -203 439 -229 q 406 -149 406 -176 z "},"Ů":{"ha":1042,"x_min":89,"x_max":951,"o":"m 521 -7 q 320 33 403 -7 q 187 142 238 72 q 113 299 136 211 q 89 483 89 388 l 89 986 l 281 986 l 281 483 q 292 365 281 422 q 332 261 304 307 q 406 189 360 215 q 519 163 451 163 q 635 190 589 163 q 709 263 682 217 q 749 366 736 308 q 761 483 761 424 l 761 986 l 951 986 l 951 483 q 927 293 951 382 q 851 137 903 204 q 717 31 799 69 q 521 -7 635 -7 m 375 1167 q 416 1259 375 1225 q 521 1293 457 1293 q 626 1259 586 1293 q 667 1167 667 1225 q 626 1076 667 1110 q 521 1042 586 1042 q 416 1076 457 1042 q 375 1167 375 1110 m 521 1228 q 478 1210 496 1228 q 460 1168 460 1193 q 477 1125 460 1143 q 521 1107 494 1107 q 564 1124 546 1107 q 582 1168 582 1142 q 564 1210 582 1193 q 521 1228 546 1228 z "},"Ũ":{"ha":1042,"x_min":89,"x_max":951,"o":"m 521 -7 q 320 33 403 -7 q 187 142 238 72 q 113 299 136 211 q 89 483 89 388 l 89 986 l 281 986 l 281 483 q 292 365 281 422 q 332 261 304 307 q 406 189 360 215 q 519 163 451 163 q 635 190 589 163 q 709 263 682 217 q 749 366 736 308 q 761 483 761 424 l 761 986 l 951 986 l 951 483 q 927 293 951 382 q 851 137 903 204 q 717 31 799 69 q 521 -7 635 -7 m 611 1093 q 540 1109 569 1093 q 485 1140 510 1125 q 429 1156 460 1156 q 384 1140 399 1156 q 366 1107 369 1124 q 363 1089 363 1090 l 260 1089 q 268 1131 260 1101 q 295 1191 276 1160 q 345 1244 314 1222 q 422 1267 376 1267 q 493 1250 465 1267 q 547 1217 521 1233 q 606 1201 572 1201 q 654 1218 639 1201 q 674 1251 669 1235 q 679 1271 679 1268 l 782 1271 q 774 1233 782 1261 q 745 1173 765 1206 q 692 1117 725 1140 q 611 1093 660 1093 z "},"Ṹ":{"ha":1042,"x_min":89,"x_max":951,"o":"m 521 -7 q 320 33 403 -7 q 187 142 238 72 q 113 299 136 211 q 89 483 89 388 l 89 986 l 281 986 l 281 483 q 292 365 281 422 q 332 261 304 307 q 406 189 360 215 q 519 163 451 163 q 635 190 589 163 q 709 263 682 217 q 749 366 736 308 q 761 483 761 424 l 761 986 l 951 986 l 951 483 q 927 293 951 382 q 851 137 903 204 q 717 31 799 69 q 521 -7 635 -7 m 611 1093 q 540 1109 569 1093 q 485 1140 510 1125 q 429 1156 460 1156 q 384 1140 399 1156 q 366 1107 369 1124 q 363 1089 363 1090 l 260 1089 q 268 1131 260 1101 q 295 1191 276 1160 q 345 1244 314 1222 q 422 1267 376 1267 q 493 1250 465 1267 q 547 1217 521 1233 q 606 1201 572 1201 q 654 1218 639 1201 q 674 1251 669 1235 q 679 1271 679 1268 l 782 1271 q 774 1233 782 1261 q 745 1173 765 1206 q 692 1117 725 1140 q 611 1093 660 1093 m 582 1356 l 463 1392 l 538 1557 l 711 1557 l 582 1356 z "},"V":{"ha":939,"x_min":3,"x_max":936,"o":"m 204 986 l 471 228 l 735 986 l 936 986 l 563 0 l 378 0 l 3 986 l 204 986 z "},"W":{"ha":1463,"x_min":0,"x_max":1464,"o":"m 440 983 l 618 983 l 731 657 l 844 983 l 1021 983 l 851 535 l 976 221 l 1256 986 l 1464 986 l 1069 0 l 904 0 l 731 414 l 558 0 l 393 0 l 0 986 l 206 986 l 486 221 l 608 535 l 440 983 z "},"Ẃ":{"ha":1463,"x_min":0,"x_max":1464,"o":"m 440 983 l 618 983 l 731 657 l 844 983 l 1021 983 l 851 535 l 976 221 l 1256 986 l 1464 986 l 1069 0 l 904 0 l 731 414 l 558 0 l 393 0 l 0 986 l 206 986 l 486 221 l 608 535 l 440 983 m 792 1069 l 672 1106 l 747 1271 l 921 1271 l 792 1069 z "},"Ŵ":{"ha":1463,"x_min":0,"x_max":1464,"o":"m 440 983 l 618 983 l 731 657 l 844 983 l 1021 983 l 851 535 l 976 221 l 1256 986 l 1464 986 l 1069 0 l 904 0 l 731 414 l 558 0 l 393 0 l 0 986 l 206 986 l 486 221 l 608 535 l 440 983 m 515 1131 l 663 1271 l 797 1271 l 944 1131 l 849 1086 l 731 1174 l 613 1086 l 515 1131 z "},"Ẅ":{"ha":1463,"x_min":0,"x_max":1464,"o":"m 440 983 l 618 983 l 731 657 l 844 983 l 1021 983 l 851 535 l 976 221 l 1256 986 l 1464 986 l 1069 0 l 904 0 l 731 414 l 558 0 l 393 0 l 0 986 l 206 986 l 486 221 l 608 535 l 440 983 m 519 1097 l 519 1263 l 674 1263 l 674 1097 l 519 1097 m 786 1097 l 786 1263 l 940 1263 l 940 1097 l 786 1097 z "},"Ẁ":{"ha":1463,"x_min":0,"x_max":1464,"o":"m 440 983 l 618 983 l 731 657 l 844 983 l 1021 983 l 851 535 l 976 221 l 1256 986 l 1464 986 l 1069 0 l 904 0 l 731 414 l 558 0 l 393 0 l 0 986 l 206 986 l 486 221 l 608 535 l 440 983 m 557 1272 l 729 1272 l 806 1107 l 686 1071 l 557 1272 z "},"X":{"ha":897,"x_min":-4,"x_max":901,"o":"m 206 986 l 450 622 l 693 986 l 901 986 l 560 486 l 890 0 l 682 0 l 450 350 l 217 0 l 7 0 l 338 486 l -4 986 l 206 986 z "},"Y":{"ha":917,"x_min":6,"x_max":911,"o":"m 214 986 l 457 522 l 704 986 l 911 986 l 553 344 l 553 0 l 363 0 l 363 347 l 6 986 l 214 986 z "},"Ý":{"ha":917,"x_min":6,"x_max":911,"o":"m 214 986 l 457 522 l 704 986 l 911 986 l 553 344 l 553 0 l 363 0 l 363 347 l 6 986 l 214 986 m 519 1069 l 400 1106 l 475 1271 l 649 1271 l 519 1069 z "},"Ŷ":{"ha":917,"x_min":6,"x_max":911,"o":"m 214 986 l 457 522 l 704 986 l 911 986 l 553 344 l 553 0 l 363 0 l 363 347 l 6 986 l 214 986 m 243 1131 l 390 1271 l 525 1271 l 672 1131 l 576 1086 l 458 1174 l 340 1086 l 243 1131 z "},"Ÿ":{"ha":917,"x_min":6,"x_max":911,"o":"m 214 986 l 457 522 l 704 986 l 911 986 l 553 344 l 553 0 l 363 0 l 363 347 l 6 986 l 214 986 m 247 1097 l 247 1263 l 401 1263 l 401 1097 l 247 1097 m 514 1097 l 514 1263 l 668 1263 l 668 1097 l 514 1097 z "},"Ẏ":{"ha":917,"x_min":6,"x_max":911,"o":"m 214 986 l 457 522 l 704 986 l 911 986 l 553 344 l 553 0 l 363 0 l 363 347 l 6 986 l 214 986 m 374 1096 l 374 1271 l 542 1271 l 542 1096 l 374 1096 z "},"Ỵ":{"ha":917,"x_min":6,"x_max":911,"o":"m 214 986 l 457 522 l 704 986 l 911 986 l 553 344 l 553 0 l 363 0 l 363 347 l 6 986 l 214 986 m 375 -276 l 375 -101 l 543 -101 l 543 -276 l 375 -276 z "},"Ỳ":{"ha":917,"x_min":6,"x_max":911,"o":"m 214 986 l 457 522 l 704 986 l 911 986 l 553 344 l 553 0 l 363 0 l 363 347 l 6 986 l 214 986 m 285 1272 l 457 1272 l 533 1107 l 414 1071 l 285 1272 z "},"Ỷ":{"ha":917,"x_min":6,"x_max":911,"o":"m 214 986 l 457 522 l 704 986 l 911 986 l 553 344 l 553 0 l 363 0 l 363 347 l 6 986 l 214 986 m 388 1211 l 331 1268 q 398 1316 364 1300 q 469 1332 432 1332 q 555 1302 525 1332 q 585 1229 585 1272 q 563 1156 585 1189 q 496 1085 542 1122 l 449 1136 q 483 1172 472 1156 q 493 1206 493 1188 q 483 1233 493 1222 q 454 1244 472 1244 q 422 1237 436 1244 q 388 1211 408 1229 z "},"Ȳ":{"ha":917,"x_min":6,"x_max":911,"o":"m 214 986 l 457 522 l 704 986 l 911 986 l 553 344 l 553 0 l 363 0 l 363 347 l 6 986 l 214 986 m 251 1136 l 251 1251 l 668 1251 l 668 1136 l 251 1136 z "},"Ỹ":{"ha":917,"x_min":6,"x_max":911,"o":"m 214 986 l 457 522 l 704 986 l 911 986 l 553 344 l 553 0 l 363 0 l 363 347 l 6 986 l 214 986 m 547 1093 q 476 1109 506 1093 q 421 1140 446 1125 q 365 1156 396 1156 q 320 1140 335 1156 q 302 1107 306 1124 q 299 1089 299 1090 l 196 1089 q 204 1131 196 1101 q 231 1191 213 1160 q 281 1244 250 1222 q 358 1267 313 1267 q 429 1250 401 1267 q 483 1217 457 1233 q 542 1201 508 1201 q 590 1218 575 1201 q 610 1251 606 1235 q 615 1271 615 1268 l 718 1271 q 710 1233 718 1261 q 681 1173 701 1206 q 628 1117 661 1140 q 547 1093 596 1093 z "},"Z":{"ha":871,"x_min":42,"x_max":824,"o":"m 42 144 l 592 818 l 57 818 l 57 986 l 819 986 l 819 842 l 288 168 l 824 168 l 824 0 l 42 0 l 42 144 z "},"Ź":{"ha":871,"x_min":42,"x_max":824,"o":"m 42 144 l 592 818 l 57 818 l 57 986 l 819 986 l 819 842 l 288 168 l 824 168 l 824 0 l 42 0 l 42 144 m 515 1069 l 396 1106 l 471 1271 l 644 1271 l 515 1069 z "},"Ž":{"ha":871,"x_min":42,"x_max":824,"o":"m 42 144 l 592 818 l 57 818 l 57 986 l 819 986 l 819 842 l 288 168 l 824 168 l 824 0 l 42 0 l 42 144 m 336 1271 l 454 1183 l 572 1271 l 668 1226 l 521 1086 l 386 1086 l 239 1226 l 336 1271 z "},"Ż":{"ha":871,"x_min":42,"x_max":824,"o":"m 42 144 l 592 818 l 57 818 l 57 986 l 819 986 l 819 842 l 288 168 l 824 168 l 824 0 l 42 0 l 42 144 m 369 1096 l 369 1271 l 538 1271 l 538 1096 l 369 1096 z "},"Ẓ":{"ha":871,"x_min":42,"x_max":824,"o":"m 42 144 l 592 818 l 57 818 l 57 986 l 819 986 l 819 842 l 288 168 l 824 168 l 824 0 l 42 0 l 42 144 m 351 -276 l 351 -101 l 519 -101 l 519 -276 l 351 -276 z "},"a":{"ha":797,"x_min":35,"x_max":753,"o":"m 35 215 q 74 340 35 286 q 185 422 114 393 q 347 451 256 451 q 440 444 393 451 q 522 422 488 438 l 522 461 q 481 568 522 531 q 360 606 440 606 q 246 585 300 606 q 132 524 192 564 l 72 646 q 220 717 144 693 q 379 740 296 740 q 622 663 535 740 q 708 440 708 585 l 708 208 q 719 167 708 179 q 753 151 729 154 l 753 0 q 708 -7 728 -4 q 674 -10 688 -10 q 590 15 618 -10 q 554 76 561 40 l 550 114 q 432 19 503 53 q 288 -14 361 -14 q 158 16 215 -14 q 67 98 100 46 q 35 215 35 150 m 488 178 q 513 211 503 194 q 522 242 522 228 l 522 315 q 450 337 489 329 q 376 344 411 344 q 258 313 304 344 q 211 231 211 282 q 226 178 211 203 q 271 138 242 153 q 340 122 300 122 q 422 138 382 122 q 488 178 463 154 z "},"á":{"ha":797,"x_min":35,"x_max":753,"o":"m 35 215 q 74 340 35 286 q 185 422 114 393 q 347 451 256 451 q 440 444 393 451 q 522 422 488 438 l 522 461 q 481 568 522 531 q 360 606 440 606 q 246 585 300 606 q 132 524 192 564 l 72 646 q 220 717 144 693 q 379 740 296 740 q 622 663 535 740 q 708 440 708 585 l 708 208 q 719 167 708 179 q 753 151 729 154 l 753 0 q 708 -7 728 -4 q 674 -10 688 -10 q 590 15 618 -10 q 554 76 561 40 l 550 114 q 432 19 503 53 q 288 -14 361 -14 q 158 16 215 -14 q 67 98 100 46 q 35 215 35 150 m 488 178 q 513 211 503 194 q 522 242 522 228 l 522 315 q 450 337 489 329 q 376 344 411 344 q 258 313 304 344 q 211 231 211 282 q 226 178 211 203 q 271 138 242 153 q 340 122 300 122 q 422 138 382 122 q 488 178 463 154 m 440 813 l 321 849 l 396 1014 l 569 1014 l 440 813 z "},"ă":{"ha":797,"x_min":35,"x_max":753,"o":"m 35 215 q 74 340 35 286 q 185 422 114 393 q 347 451 256 451 q 440 444 393 451 q 522 422 488 438 l 522 461 q 481 568 522 531 q 360 606 440 606 q 246 585 300 606 q 132 524 192 564 l 72 646 q 220 717 144 693 q 379 740 296 740 q 622 663 535 740 q 708 440 708 585 l 708 208 q 719 167 708 179 q 753 151 729 154 l 753 0 q 708 -7 728 -4 q 674 -10 688 -10 q 590 15 618 -10 q 554 76 561 40 l 550 114 q 432 19 503 53 q 288 -14 361 -14 q 158 16 215 -14 q 67 98 100 46 q 35 215 35 150 m 488 178 q 513 211 503 194 q 522 242 522 228 l 522 315 q 450 337 489 329 q 376 344 411 344 q 258 313 304 344 q 211 231 211 282 q 226 178 211 203 q 271 138 242 153 q 340 122 300 122 q 422 138 382 122 q 488 178 463 154 m 378 911 q 433 940 410 911 q 461 1014 457 969 l 560 1014 q 509 881 560 933 q 378 828 458 828 q 247 881 299 828 q 196 1014 196 933 l 296 1014 q 321 942 296 972 q 378 911 346 911 z "},"ắ":{"ha":797,"x_min":35,"x_max":753,"o":"m 35 215 q 74 340 35 286 q 185 422 114 393 q 347 451 256 451 q 440 444 393 451 q 522 422 488 438 l 522 461 q 481 568 522 531 q 360 606 440 606 q 246 585 300 606 q 132 524 192 564 l 72 646 q 220 717 144 693 q 379 740 296 740 q 622 663 535 740 q 708 440 708 585 l 708 208 q 719 167 708 179 q 753 151 729 154 l 753 0 q 708 -7 728 -4 q 674 -10 688 -10 q 590 15 618 -10 q 554 76 561 40 l 550 114 q 432 19 503 53 q 288 -14 361 -14 q 158 16 215 -14 q 67 98 100 46 q 35 215 35 150 m 488 178 q 513 211 503 194 q 522 242 522 228 l 522 315 q 450 337 489 329 q 376 344 411 344 q 258 313 304 344 q 211 231 211 282 q 226 178 211 203 q 271 138 242 153 q 340 122 300 122 q 422 138 382 122 q 488 178 463 154 z "},"ặ":{"ha":797,"x_min":35,"x_max":753,"o":"m 35 215 q 74 340 35 286 q 185 422 114 393 q 347 451 256 451 q 440 444 393 451 q 522 422 488 438 l 522 461 q 481 568 522 531 q 360 606 440 606 q 246 585 300 606 q 132 524 192 564 l 72 646 q 220 717 144 693 q 379 740 296 740 q 622 663 535 740 q 708 440 708 585 l 708 208 q 719 167 708 179 q 753 151 729 154 l 753 0 q 708 -7 728 -4 q 674 -10 688 -10 q 590 15 618 -10 q 554 76 561 40 l 550 114 q 432 19 503 53 q 288 -14 361 -14 q 158 16 215 -14 q 67 98 100 46 q 35 215 35 150 m 488 178 q 513 211 503 194 q 522 242 522 228 l 522 315 q 450 337 489 329 q 376 344 411 344 q 258 313 304 344 q 211 231 211 282 q 226 178 211 203 q 271 138 242 153 q 340 122 300 122 q 422 138 382 122 q 488 178 463 154 m 332 -276 l 332 -101 l 500 -101 l 500 -276 l 332 -276 m 378 911 q 433 940 410 911 q 461 1014 457 969 l 560 1014 q 509 881 560 933 q 378 828 458 828 q 247 881 299 828 q 196 1014 196 933 l 296 1014 q 321 942 296 972 q 378 911 346 911 z "},"ằ":{"ha":797,"x_min":35,"x_max":753,"o":"m 35 215 q 74 340 35 286 q 185 422 114 393 q 347 451 256 451 q 440 444 393 451 q 522 422 488 438 l 522 461 q 481 568 522 531 q 360 606 440 606 q 246 585 300 606 q 132 524 192 564 l 72 646 q 220 717 144 693 q 379 740 296 740 q 622 663 535 740 q 708 440 708 585 l 708 208 q 719 167 708 179 q 753 151 729 154 l 753 0 q 708 -7 728 -4 q 674 -10 688 -10 q 590 15 618 -10 q 554 76 561 40 l 550 114 q 432 19 503 53 q 288 -14 361 -14 q 158 16 215 -14 q 67 98 100 46 q 35 215 35 150 m 488 178 q 513 211 503 194 q 522 242 522 228 l 522 315 q 450 337 489 329 q 376 344 411 344 q 258 313 304 344 q 211 231 211 282 q 226 178 211 203 q 271 138 242 153 q 340 122 300 122 q 422 138 382 122 q 488 178 463 154 z "},"ẳ":{"ha":797,"x_min":35,"x_max":753,"o":"m 35 215 q 74 340 35 286 q 185 422 114 393 q 347 451 256 451 q 440 444 393 451 q 522 422 488 438 l 522 461 q 481 568 522 531 q 360 606 440 606 q 246 585 300 606 q 132 524 192 564 l 72 646 q 220 717 144 693 q 379 740 296 740 q 622 663 535 740 q 708 440 708 585 l 708 208 q 719 167 708 179 q 753 151 729 154 l 753 0 q 708 -7 728 -4 q 674 -10 688 -10 q 590 15 618 -10 q 554 76 561 40 l 550 114 q 432 19 503 53 q 288 -14 361 -14 q 158 16 215 -14 q 67 98 100 46 q 35 215 35 150 m 488 178 q 513 211 503 194 q 522 242 522 228 l 522 315 q 450 337 489 329 q 376 344 411 344 q 258 313 304 344 q 211 231 211 282 q 226 178 211 203 q 271 138 242 153 q 340 122 300 122 q 422 138 382 122 q 488 178 463 154 z "},"ẵ":{"ha":797,"x_min":35,"x_max":753,"o":"m 35 215 q 74 340 35 286 q 185 422 114 393 q 347 451 256 451 q 440 444 393 451 q 522 422 488 438 l 522 461 q 481 568 522 531 q 360 606 440 606 q 246 585 300 606 q 132 524 192 564 l 72 646 q 220 717 144 693 q 379 740 296 740 q 622 663 535 740 q 708 440 708 585 l 708 208 q 719 167 708 179 q 753 151 729 154 l 753 0 q 708 -7 728 -4 q 674 -10 688 -10 q 590 15 618 -10 q 554 76 561 40 l 550 114 q 432 19 503 53 q 288 -14 361 -14 q 158 16 215 -14 q 67 98 100 46 q 35 215 35 150 m 488 178 q 513 211 503 194 q 522 242 522 228 l 522 315 q 450 337 489 329 q 376 344 411 344 q 258 313 304 344 q 211 231 211 282 q 226 178 211 203 q 271 138 242 153 q 340 122 300 122 q 422 138 382 122 q 488 178 463 154 z "},"â":{"ha":797,"x_min":35,"x_max":753,"o":"m 35 215 q 74 340 35 286 q 185 422 114 393 q 347 451 256 451 q 440 444 393 451 q 522 422 488 438 l 522 461 q 481 568 522 531 q 360 606 440 606 q 246 585 300 606 q 132 524 192 564 l 72 646 q 220 717 144 693 q 379 740 296 740 q 622 663 535 740 q 708 440 708 585 l 708 208 q 719 167 708 179 q 753 151 729 154 l 753 0 q 708 -7 728 -4 q 674 -10 688 -10 q 590 15 618 -10 q 554 76 561 40 l 550 114 q 432 19 503 53 q 288 -14 361 -14 q 158 16 215 -14 q 67 98 100 46 q 35 215 35 150 m 488 178 q 513 211 503 194 q 522 242 522 228 l 522 315 q 450 337 489 329 q 376 344 411 344 q 258 313 304 344 q 211 231 211 282 q 226 178 211 203 q 271 138 242 153 q 340 122 300 122 q 422 138 382 122 q 488 178 463 154 m 164 874 l 311 1014 l 446 1014 l 593 874 l 497 829 l 379 917 l 261 829 l 164 874 z "},"ấ":{"ha":797,"x_min":35,"x_max":761,"o":"m 35 215 q 74 340 35 286 q 185 422 114 393 q 347 451 256 451 q 440 444 393 451 q 522 422 488 438 l 522 461 q 481 568 522 531 q 360 606 440 606 q 246 585 300 606 q 132 524 192 564 l 72 646 q 220 717 144 693 q 379 740 296 740 q 622 663 535 740 q 708 440 708 585 l 708 208 q 719 167 708 179 q 753 151 729 154 l 753 0 q 708 -7 728 -4 q 674 -10 688 -10 q 590 15 618 -10 q 554 76 561 40 l 550 114 q 432 19 503 53 q 288 -14 361 -14 q 158 16 215 -14 q 67 98 100 46 q 35 215 35 150 m 488 178 q 513 211 503 194 q 522 242 522 228 l 522 315 q 450 337 489 329 q 376 344 411 344 q 258 313 304 344 q 211 231 211 282 q 226 178 211 203 q 271 138 242 153 q 340 122 300 122 q 422 138 382 122 q 488 178 463 154 z "},"ậ":{"ha":797,"x_min":35,"x_max":753,"o":"m 35 215 q 74 340 35 286 q 185 422 114 393 q 347 451 256 451 q 440 444 393 451 q 522 422 488 438 l 522 461 q 481 568 522 531 q 360 606 440 606 q 246 585 300 606 q 132 524 192 564 l 72 646 q 220 717 144 693 q 379 740 296 740 q 622 663 535 740 q 708 440 708 585 l 708 208 q 719 167 708 179 q 753 151 729 154 l 753 0 q 708 -7 728 -4 q 674 -10 688 -10 q 590 15 618 -10 q 554 76 561 40 l 550 114 q 432 19 503 53 q 288 -14 361 -14 q 158 16 215 -14 q 67 98 100 46 q 35 215 35 150 m 488 178 q 513 211 503 194 q 522 242 522 228 l 522 315 q 450 337 489 329 q 376 344 411 344 q 258 313 304 344 q 211 231 211 282 q 226 178 211 203 q 271 138 242 153 q 340 122 300 122 q 422 138 382 122 q 488 178 463 154 m 332 -276 l 332 -101 l 500 -101 l 500 -276 l 332 -276 m 164 874 l 311 1014 l 446 1014 l 593 874 l 497 829 l 379 917 l 261 829 l 164 874 z "},"ầ":{"ha":797,"x_min":-17,"x_max":753,"o":"m 35 215 q 74 340 35 286 q 185 422 114 393 q 347 451 256 451 q 440 444 393 451 q 522 422 488 438 l 522 461 q 481 568 522 531 q 360 606 440 606 q 246 585 300 606 q 132 524 192 564 l 72 646 q 220 717 144 693 q 379 740 296 740 q 622 663 535 740 q 708 440 708 585 l 708 208 q 719 167 708 179 q 753 151 729 154 l 753 0 q 708 -7 728 -4 q 674 -10 688 -10 q 590 15 618 -10 q 554 76 561 40 l 550 114 q 432 19 503 53 q 288 -14 361 -14 q 158 16 215 -14 q 67 98 100 46 q 35 215 35 150 m 488 178 q 513 211 503 194 q 522 242 522 228 l 522 315 q 450 337 489 329 q 376 344 411 344 q 258 313 304 344 q 211 231 211 282 q 226 178 211 203 q 271 138 242 153 q 340 122 300 122 q 422 138 382 122 q 488 178 463 154 z "},"ẩ":{"ha":797,"x_min":35,"x_max":753,"o":"m 35 215 q 74 340 35 286 q 185 422 114 393 q 347 451 256 451 q 440 444 393 451 q 522 422 488 438 l 522 461 q 481 568 522 531 q 360 606 440 606 q 246 585 300 606 q 132 524 192 564 l 72 646 q 220 717 144 693 q 379 740 296 740 q 622 663 535 740 q 708 440 708 585 l 708 208 q 719 167 708 179 q 753 151 729 154 l 753 0 q 708 -7 728 -4 q 674 -10 688 -10 q 590 15 618 -10 q 554 76 561 40 l 550 114 q 432 19 503 53 q 288 -14 361 -14 q 158 16 215 -14 q 67 98 100 46 q 35 215 35 150 m 488 178 q 513 211 503 194 q 522 242 522 228 l 522 315 q 450 337 489 329 q 376 344 411 344 q 258 313 304 344 q 211 231 211 282 q 226 178 211 203 q 271 138 242 153 q 340 122 300 122 q 422 138 382 122 q 488 178 463 154 z "},"ẫ":{"ha":797,"x_min":35,"x_max":753,"o":"m 35 215 q 74 340 35 286 q 185 422 114 393 q 347 451 256 451 q 440 444 393 451 q 522 422 488 438 l 522 461 q 481 568 522 531 q 360 606 440 606 q 246 585 300 606 q 132 524 192 564 l 72 646 q 220 717 144 693 q 379 740 296 740 q 622 663 535 740 q 708 440 708 585 l 708 208 q 719 167 708 179 q 753 151 729 154 l 753 0 q 708 -7 728 -4 q 674 -10 688 -10 q 590 15 618 -10 q 554 76 561 40 l 550 114 q 432 19 503 53 q 288 -14 361 -14 q 158 16 215 -14 q 67 98 100 46 q 35 215 35 150 m 488 178 q 513 211 503 194 q 522 242 522 228 l 522 315 q 450 337 489 329 q 376 344 411 344 q 258 313 304 344 q 211 231 211 282 q 226 178 211 203 q 271 138 242 153 q 340 122 300 122 q 422 138 382 122 q 488 178 463 154 z "},"ȁ":{"ha":797,"x_min":35,"x_max":753,"o":"m 35 215 q 74 340 35 286 q 185 422 114 393 q 347 451 256 451 q 440 444 393 451 q 522 422 488 438 l 522 461 q 481 568 522 531 q 360 606 440 606 q 246 585 300 606 q 132 524 192 564 l 72 646 q 220 717 144 693 q 379 740 296 740 q 622 663 535 740 q 708 440 708 585 l 708 208 q 719 167 708 179 q 753 151 729 154 l 753 0 q 708 -7 728 -4 q 674 -10 688 -10 q 590 15 618 -10 q 554 76 561 40 l 550 114 q 432 19 503 53 q 288 -14 361 -14 q 158 16 215 -14 q 67 98 100 46 q 35 215 35 150 m 488 178 q 513 211 503 194 q 522 242 522 228 l 522 315 q 450 337 489 329 q 376 344 411 344 q 258 313 304 344 q 211 231 211 282 q 226 178 211 203 q 271 138 242 153 q 340 122 300 122 q 422 138 382 122 q 488 178 463 154 m 340 1015 l 486 1015 l 551 850 l 460 814 l 340 1015 m 118 1015 l 263 1015 l 329 850 l 238 814 l 118 1015 z "},"ä":{"ha":797,"x_min":35,"x_max":753,"o":"m 35 215 q 74 340 35 286 q 185 422 114 393 q 347 451 256 451 q 440 444 393 451 q 522 422 488 438 l 522 461 q 481 568 522 531 q 360 606 440 606 q 246 585 300 606 q 132 524 192 564 l 72 646 q 220 717 144 693 q 379 740 296 740 q 622 663 535 740 q 708 440 708 585 l 708 208 q 719 167 708 179 q 753 151 729 154 l 753 0 q 708 -7 728 -4 q 674 -10 688 -10 q 590 15 618 -10 q 554 76 561 40 l 550 114 q 432 19 503 53 q 288 -14 361 -14 q 158 16 215 -14 q 67 98 100 46 q 35 215 35 150 m 488 178 q 513 211 503 194 q 522 242 522 228 l 522 315 q 450 337 489 329 q 376 344 411 344 q 258 313 304 344 q 211 231 211 282 q 226 178 211 203 q 271 138 242 153 q 340 122 300 122 q 422 138 382 122 q 488 178 463 154 m 168 840 l 168 1006 l 322 1006 l 322 840 l 168 840 m 435 840 l 435 1006 l 589 1006 l 589 840 l 435 840 z "},"ạ":{"ha":797,"x_min":35,"x_max":753,"o":"m 35 215 q 74 340 35 286 q 185 422 114 393 q 347 451 256 451 q 440 444 393 451 q 522 422 488 438 l 522 461 q 481 568 522 531 q 360 606 440 606 q 246 585 300 606 q 132 524 192 564 l 72 646 q 220 717 144 693 q 379 740 296 740 q 622 663 535 740 q 708 440 708 585 l 708 208 q 719 167 708 179 q 753 151 729 154 l 753 0 q 708 -7 728 -4 q 674 -10 688 -10 q 590 15 618 -10 q 554 76 561 40 l 550 114 q 432 19 503 53 q 288 -14 361 -14 q 158 16 215 -14 q 67 98 100 46 q 35 215 35 150 m 488 178 q 513 211 503 194 q 522 242 522 228 l 522 315 q 450 337 489 329 q 376 344 411 344 q 258 313 304 344 q 211 231 211 282 q 226 178 211 203 q 271 138 242 153 q 340 122 300 122 q 422 138 382 122 q 488 178 463 154 m 332 -276 l 332 -101 l 500 -101 l 500 -276 l 332 -276 z "},"à":{"ha":797,"x_min":35,"x_max":753,"o":"m 35 215 q 74 340 35 286 q 185 422 114 393 q 347 451 256 451 q 440 444 393 451 q 522 422 488 438 l 522 461 q 481 568 522 531 q 360 606 440 606 q 246 585 300 606 q 132 524 192 564 l 72 646 q 220 717 144 693 q 379 740 296 740 q 622 663 535 740 q 708 440 708 585 l 708 208 q 719 167 708 179 q 753 151 729 154 l 753 0 q 708 -7 728 -4 q 674 -10 688 -10 q 590 15 618 -10 q 554 76 561 40 l 550 114 q 432 19 503 53 q 288 -14 361 -14 q 158 16 215 -14 q 67 98 100 46 q 35 215 35 150 m 488 178 q 513 211 503 194 q 522 242 522 228 l 522 315 q 450 337 489 329 q 376 344 411 344 q 258 313 304 344 q 211 231 211 282 q 226 178 211 203 q 271 138 242 153 q 340 122 300 122 q 422 138 382 122 q 488 178 463 154 m 206 1015 l 378 1015 l 454 850 l 335 814 l 206 1015 z "},"ả":{"ha":797,"x_min":35,"x_max":753,"o":"m 35 215 q 74 340 35 286 q 185 422 114 393 q 347 451 256 451 q 440 444 393 451 q 522 422 488 438 l 522 461 q 481 568 522 531 q 360 606 440 606 q 246 585 300 606 q 132 524 192 564 l 72 646 q 220 717 144 693 q 379 740 296 740 q 622 663 535 740 q 708 440 708 585 l 708 208 q 719 167 708 179 q 753 151 729 154 l 753 0 q 708 -7 728 -4 q 674 -10 688 -10 q 590 15 618 -10 q 554 76 561 40 l 550 114 q 432 19 503 53 q 288 -14 361 -14 q 158 16 215 -14 q 67 98 100 46 q 35 215 35 150 m 488 178 q 513 211 503 194 q 522 242 522 228 l 522 315 q 450 337 489 329 q 376 344 411 344 q 258 313 304 344 q 211 231 211 282 q 226 178 211 203 q 271 138 242 153 q 340 122 300 122 q 422 138 382 122 q 488 178 463 154 m 308 954 l 251 1011 q 319 1059 285 1043 q 390 1075 353 1075 q 476 1045 446 1075 q 506 972 506 1015 q 484 899 506 932 q 417 828 463 865 l 369 879 q 403 915 393 899 q 414 949 414 931 q 403 976 414 965 q 375 988 393 988 q 343 980 357 988 q 308 954 329 972 z "},"ȃ":{"ha":797,"x_min":35,"x_max":753,"o":"m 35 215 q 74 340 35 286 q 185 422 114 393 q 347 451 256 451 q 440 444 393 451 q 522 422 488 438 l 522 461 q 481 568 522 531 q 360 606 440 606 q 246 585 300 606 q 132 524 192 564 l 72 646 q 220 717 144 693 q 379 740 296 740 q 622 663 535 740 q 708 440 708 585 l 708 208 q 719 167 708 179 q 753 151 729 154 l 753 0 q 708 -7 728 -4 q 674 -10 688 -10 q 590 15 618 -10 q 554 76 561 40 l 550 114 q 432 19 503 53 q 288 -14 361 -14 q 158 16 215 -14 q 67 98 100 46 q 35 215 35 150 m 488 178 q 513 211 503 194 q 522 242 522 228 l 522 315 q 450 337 489 329 q 376 344 411 344 q 258 313 304 344 q 211 231 211 282 q 226 178 211 203 q 271 138 242 153 q 340 122 300 122 q 422 138 382 122 q 488 178 463 154 m 378 931 q 321 900 346 931 q 296 828 296 869 l 196 828 q 247 961 196 908 q 378 1014 299 1014 q 509 961 458 1014 q 560 828 560 908 l 461 828 q 433 901 457 872 q 378 931 410 931 z "},"ā":{"ha":797,"x_min":35,"x_max":753,"o":"m 35 215 q 74 340 35 286 q 185 422 114 393 q 347 451 256 451 q 440 444 393 451 q 522 422 488 438 l 522 461 q 481 568 522 531 q 360 606 440 606 q 246 585 300 606 q 132 524 192 564 l 72 646 q 220 717 144 693 q 379 740 296 740 q 622 663 535 740 q 708 440 708 585 l 708 208 q 719 167 708 179 q 753 151 729 154 l 753 0 q 708 -7 728 -4 q 674 -10 688 -10 q 590 15 618 -10 q 554 76 561 40 l 550 114 q 432 19 503 53 q 288 -14 361 -14 q 158 16 215 -14 q 67 98 100 46 q 35 215 35 150 m 488 178 q 513 211 503 194 q 522 242 522 228 l 522 315 q 450 337 489 329 q 376 344 411 344 q 258 313 304 344 q 211 231 211 282 q 226 178 211 203 q 271 138 242 153 q 340 122 300 122 q 422 138 382 122 q 488 178 463 154 m 172 879 l 172 994 l 589 994 l 589 879 l 172 879 z "},"ą":{"ha":797,"x_min":35,"x_max":753,"o":"m 35 215 q 74 340 35 286 q 185 422 114 393 q 347 451 256 451 q 440 444 393 451 q 522 422 488 438 l 522 461 q 481 568 522 531 q 360 606 440 606 q 246 585 300 606 q 132 524 192 564 l 72 646 q 220 717 144 693 q 379 740 296 740 q 622 663 535 740 q 708 440 708 585 l 708 208 q 719 167 708 179 q 753 151 729 154 l 753 0 q 708 -7 728 -4 q 674 -10 688 -10 q 590 15 618 -10 q 554 76 561 40 l 550 114 q 432 19 503 53 q 288 -14 361 -14 q 158 16 215 -14 q 67 98 100 46 q 35 215 35 150 m 488 178 q 513 211 503 194 q 522 242 522 228 l 522 315 q 450 337 489 329 q 376 344 411 344 q 258 313 304 344 q 211 231 211 282 q 226 178 211 203 q 271 138 242 153 q 340 122 300 122 q 422 138 382 122 q 488 178 463 154 m 529 -153 q 564 -58 529 -106 q 671 29 599 -11 l 729 29 l 751 0 q 674 -66 700 -36 q 647 -121 647 -96 q 674 -158 647 -146 q 751 -172 701 -171 l 714 -278 q 603 -252 644 -271 q 546 -207 563 -233 q 529 -153 529 -181 z "},"å":{"ha":797,"x_min":35,"x_max":753,"o":"m 35 215 q 74 340 35 286 q 185 422 114 393 q 347 451 256 451 q 440 444 393 451 q 522 422 488 438 l 522 461 q 481 568 522 531 q 360 606 440 606 q 246 585 300 606 q 132 524 192 564 l 72 646 q 220 717 144 693 q 379 740 296 740 q 622 663 535 740 q 708 440 708 585 l 708 208 q 719 167 708 179 q 753 151 729 154 l 753 0 q 708 -7 728 -4 q 674 -10 688 -10 q 590 15 618 -10 q 554 76 561 40 l 550 114 q 432 19 503 53 q 288 -14 361 -14 q 158 16 215 -14 q 67 98 100 46 q 35 215 35 150 m 488 178 q 513 211 503 194 q 522 242 522 228 l 522 315 q 450 337 489 329 q 376 344 411 344 q 258 313 304 344 q 211 231 211 282 q 226 178 211 203 q 271 138 242 153 q 340 122 300 122 q 422 138 382 122 q 488 178 463 154 m 232 910 q 273 1002 232 968 q 378 1036 314 1036 q 483 1002 443 1036 q 524 910 524 968 q 483 819 524 853 q 378 785 443 785 q 273 819 314 785 q 232 910 232 853 m 378 971 q 335 953 353 971 q 317 911 317 936 q 334 868 317 886 q 378 850 351 850 q 421 867 403 850 q 439 911 439 885 q 421 953 439 936 q 378 971 403 971 z "},"ǻ":{"ha":797,"x_min":35,"x_max":753,"o":"m 35 215 q 74 340 35 286 q 185 422 114 393 q 347 451 256 451 q 440 444 393 451 q 522 422 488 438 l 522 461 q 481 568 522 531 q 360 606 440 606 q 246 585 300 606 q 132 524 192 564 l 72 646 q 220 717 144 693 q 379 740 296 740 q 622 663 535 740 q 708 440 708 585 l 708 208 q 719 167 708 179 q 753 151 729 154 l 753 0 q 708 -7 728 -4 q 674 -10 688 -10 q 590 15 618 -10 q 554 76 561 40 l 550 114 q 432 19 503 53 q 288 -14 361 -14 q 158 16 215 -14 q 67 98 100 46 q 35 215 35 150 m 488 178 q 513 211 503 194 q 522 242 522 228 l 522 315 q 450 337 489 329 q 376 344 411 344 q 258 313 304 344 q 211 231 211 282 q 226 178 211 203 q 271 138 242 153 q 340 122 300 122 q 422 138 382 122 q 488 178 463 154 m 232 910 q 273 1002 232 968 q 378 1036 314 1036 q 483 1002 443 1036 q 524 910 524 968 q 483 819 524 853 q 378 785 443 785 q 273 819 314 785 q 232 910 232 853 m 378 971 q 335 953 353 971 q 317 911 317 936 q 334 868 317 886 q 378 850 351 850 q 421 867 403 850 q 439 911 439 885 q 421 953 439 936 q 378 971 403 971 m 461 1069 l 342 1106 l 417 1271 l 590 1271 l 461 1069 z "},"ã":{"ha":797,"x_min":35,"x_max":753,"o":"m 35 215 q 74 340 35 286 q 185 422 114 393 q 347 451 256 451 q 440 444 393 451 q 522 422 488 438 l 522 461 q 481 568 522 531 q 360 606 440 606 q 246 585 300 606 q 132 524 192 564 l 72 646 q 220 717 144 693 q 379 740 296 740 q 622 663 535 740 q 708 440 708 585 l 708 208 q 719 167 708 179 q 753 151 729 154 l 753 0 q 708 -7 728 -4 q 674 -10 688 -10 q 590 15 618 -10 q 554 76 561 40 l 550 114 q 432 19 503 53 q 288 -14 361 -14 q 158 16 215 -14 q 67 98 100 46 q 35 215 35 150 m 488 178 q 513 211 503 194 q 522 242 522 228 l 522 315 q 450 337 489 329 q 376 344 411 344 q 258 313 304 344 q 211 231 211 282 q 226 178 211 203 q 271 138 242 153 q 340 122 300 122 q 422 138 382 122 q 488 178 463 154 m 468 836 q 397 852 426 836 q 342 883 367 868 q 286 899 317 899 q 241 883 256 899 q 223 850 226 867 q 219 832 219 833 l 117 832 q 125 874 117 844 q 152 934 133 903 q 202 988 171 965 q 279 1010 233 1010 q 350 993 322 1010 q 403 960 378 976 q 463 944 429 944 q 511 961 496 944 q 531 994 526 978 q 536 1014 536 1011 l 639 1014 q 631 976 639 1004 q 602 916 622 949 q 549 860 582 883 q 468 836 517 836 z "},"æ":{"ha":1301,"x_min":35,"x_max":1272,"o":"m 283 -14 q 156 16 213 -14 q 67 99 100 46 q 35 217 35 151 q 74 339 35 286 q 184 422 114 392 q 344 451 254 451 q 432 444 389 451 q 508 424 475 438 q 513 455 510 439 q 519 485 515 471 q 474 578 514 546 q 360 611 433 611 q 246 590 301 611 q 131 529 190 569 l 74 647 q 378 740 218 740 q 528 714 464 740 q 632 638 592 688 q 744 713 678 685 q 890 740 810 740 q 1094 688 1008 740 q 1226 551 1179 636 q 1272 364 1272 465 q 1271 333 1272 350 q 1268 304 1269 315 l 699 304 q 731 207 703 249 q 803 144 760 165 q 899 122 847 122 q 1003 149 954 122 q 1071 221 1053 176 l 1231 176 q 1155 78 1204 121 q 1039 10 1106 35 q 892 -14 972 -14 q 709 27 789 -14 q 579 136 629 68 q 497 50 547 83 q 390 1 446 17 q 283 -14 333 -14 m 336 122 q 425 139 382 122 q 492 183 468 156 q 522 233 521 207 q 513 277 517 251 q 508 324 510 303 q 442 341 478 335 q 375 347 407 347 q 256 315 303 347 q 210 232 210 283 q 226 176 210 201 q 272 136 243 150 q 336 122 300 122 m 1081 419 q 1049 517 1075 475 q 982 582 1024 558 q 888 606 940 606 q 792 582 835 606 q 725 517 750 558 q 696 419 700 475 l 1081 419 z "},"ǽ":{"ha":1301,"x_min":35,"x_max":1272,"o":"m 283 -14 q 156 16 213 -14 q 67 99 100 46 q 35 217 35 151 q 74 339 35 286 q 184 422 114 392 q 344 451 254 451 q 432 444 389 451 q 508 424 475 438 q 513 455 510 439 q 519 485 515 471 q 474 578 514 546 q 360 611 433 611 q 246 590 301 611 q 131 529 190 569 l 74 647 q 378 740 218 740 q 528 714 464 740 q 632 638 592 688 q 744 713 678 685 q 890 740 810 740 q 1094 688 1008 740 q 1226 551 1179 636 q 1272 364 1272 465 q 1271 333 1272 350 q 1268 304 1269 315 l 699 304 q 731 207 703 249 q 803 144 760 165 q 899 122 847 122 q 1003 149 954 122 q 1071 221 1053 176 l 1231 176 q 1155 78 1204 121 q 1039 10 1106 35 q 892 -14 972 -14 q 709 27 789 -14 q 579 136 629 68 q 497 50 547 83 q 390 1 446 17 q 283 -14 333 -14 m 336 122 q 425 139 382 122 q 492 183 468 156 q 522 233 521 207 q 513 277 517 251 q 508 324 510 303 q 442 341 478 335 q 375 347 407 347 q 256 315 303 347 q 210 232 210 283 q 226 176 210 201 q 272 136 243 150 q 336 122 300 122 m 1081 419 q 1049 517 1075 475 q 982 582 1024 558 q 888 606 940 606 q 792 582 835 606 q 725 517 750 558 q 696 419 700 475 l 1081 419 m 707 813 l 588 849 l 663 1014 l 836 1014 l 707 813 z "},"b":{"ha":881,"x_min":85,"x_max":839,"o":"m 499 -14 q 350 24 415 -14 q 247 126 285 61 l 247 0 l 85 0 l 85 1014 l 271 1014 l 271 600 q 373 703 310 665 q 521 740 436 740 q 650 710 592 740 q 751 628 708 681 q 816 507 793 575 q 839 361 839 439 q 813 215 839 283 q 742 95 788 147 q 634 15 696 43 q 499 -14 572 -14 m 447 144 q 528 162 492 144 q 592 208 565 179 q 634 277 619 238 q 649 360 649 317 q 624 470 649 419 q 558 551 600 521 q 458 582 515 582 q 381 563 418 582 q 316 513 344 544 q 271 440 288 481 l 271 267 q 298 217 279 239 q 342 178 317 194 q 394 153 367 163 q 447 144 421 144 z "},"c":{"ha":783,"x_min":39,"x_max":754,"o":"m 424 -14 q 264 16 335 -14 q 143 99 193 46 q 66 221 93 153 q 39 364 39 289 q 85 552 39 467 q 218 689 132 638 q 422 740 304 740 q 625 689 540 740 q 751 554 710 638 l 569 499 q 507 560 546 539 q 421 582 468 582 q 324 555 368 582 q 256 478 281 528 q 231 364 231 429 q 256 251 231 300 q 325 173 282 201 q 421 144 368 144 q 484 156 454 144 q 538 186 514 167 q 572 231 561 206 l 754 175 q 681 78 729 121 q 569 10 633 35 q 424 -14 504 -14 z "},"ć":{"ha":783,"x_min":39,"x_max":754,"o":"m 424 -14 q 264 16 335 -14 q 143 99 193 46 q 66 221 93 153 q 39 364 39 289 q 85 552 39 467 q 218 689 132 638 q 422 740 304 740 q 625 689 540 740 q 751 554 710 638 l 569 499 q 507 560 546 539 q 421 582 468 582 q 324 555 368 582 q 256 478 281 528 q 231 364 231 429 q 256 251 231 300 q 325 173 282 201 q 421 144 368 144 q 484 156 454 144 q 538 186 514 167 q 572 231 561 206 l 754 175 q 681 78 729 121 q 569 10 633 35 q 424 -14 504 -14 m 483 813 l 364 849 l 439 1014 l 613 1014 l 483 813 z "},"č":{"ha":783,"x_min":39,"x_max":754,"o":"m 424 -14 q 264 16 335 -14 q 143 99 193 46 q 66 221 93 153 q 39 364 39 289 q 85 552 39 467 q 218 689 132 638 q 422 740 304 740 q 625 689 540 740 q 751 554 710 638 l 569 499 q 507 560 546 539 q 421 582 468 582 q 324 555 368 582 q 256 478 281 528 q 231 364 231 429 q 256 251 231 300 q 325 173 282 201 q 421 144 368 144 q 484 156 454 144 q 538 186 514 167 q 572 231 561 206 l 754 175 q 681 78 729 121 q 569 10 633 35 q 424 -14 504 -14 m 304 1014 l 422 926 l 540 1014 l 636 969 l 489 829 l 354 829 l 207 969 l 304 1014 z "},"ç":{"ha":783,"x_min":39,"x_max":754,"o":"m 424 -14 q 264 16 335 -14 q 143 99 193 46 q 66 221 93 153 q 39 364 39 289 q 85 552 39 467 q 218 689 132 638 q 422 740 304 740 q 625 689 540 740 q 751 554 710 638 l 569 499 q 507 560 546 539 q 421 582 468 582 q 324 555 368 582 q 256 478 281 528 q 231 364 231 429 q 256 251 231 300 q 325 173 282 201 q 421 144 368 144 q 484 156 454 144 q 538 186 514 167 q 572 231 561 206 l 754 175 q 681 78 729 121 q 569 10 633 35 q 424 -14 504 -14 m 404 -279 q 324 -269 367 -279 q 238 -237 281 -258 l 285 -139 q 327 -160 306 -153 q 372 -168 349 -168 q 428 -152 408 -168 q 449 -106 449 -136 q 428 -51 449 -76 q 371 0 408 -25 l 433 40 q 525 -38 489 4 q 561 -142 561 -81 q 522 -240 561 -200 q 404 -279 482 -279 z "},"ḉ":{"ha":783,"x_min":39,"x_max":754,"o":"m 424 -14 q 264 16 335 -14 q 143 99 193 46 q 66 221 93 153 q 39 364 39 289 q 85 552 39 467 q 218 689 132 638 q 422 740 304 740 q 625 689 540 740 q 751 554 710 638 l 569 499 q 507 560 546 539 q 421 582 468 582 q 324 555 368 582 q 256 478 281 528 q 231 364 231 429 q 256 251 231 300 q 325 173 282 201 q 421 144 368 144 q 484 156 454 144 q 538 186 514 167 q 572 231 561 206 l 754 175 q 681 78 729 121 q 569 10 633 35 q 424 -14 504 -14 m 404 -279 q 324 -269 367 -279 q 238 -237 281 -258 l 285 -139 q 327 -160 306 -153 q 372 -168 349 -168 q 428 -152 408 -168 q 449 -106 449 -136 q 428 -51 449 -76 q 371 0 408 -25 l 433 40 q 525 -38 489 4 q 561 -142 561 -81 q 522 -240 561 -200 q 404 -279 482 -279 m 483 813 l 364 849 l 439 1014 l 613 1014 l 483 813 z "},"ĉ":{"ha":783,"x_min":39,"x_max":754,"o":"m 424 -14 q 264 16 335 -14 q 143 99 193 46 q 66 221 93 153 q 39 364 39 289 q 85 552 39 467 q 218 689 132 638 q 422 740 304 740 q 625 689 540 740 q 751 554 710 638 l 569 499 q 507 560 546 539 q 421 582 468 582 q 324 555 368 582 q 256 478 281 528 q 231 364 231 429 q 256 251 231 300 q 325 173 282 201 q 421 144 368 144 q 484 156 454 144 q 538 186 514 167 q 572 231 561 206 l 754 175 q 681 78 729 121 q 569 10 633 35 q 424 -14 504 -14 m 207 874 l 354 1014 l 489 1014 l 636 874 l 540 829 l 422 917 l 304 829 l 207 874 z "},"ċ":{"ha":783,"x_min":39,"x_max":754,"o":"m 424 -14 q 264 16 335 -14 q 143 99 193 46 q 66 221 93 153 q 39 364 39 289 q 85 552 39 467 q 218 689 132 638 q 422 740 304 740 q 625 689 540 740 q 751 554 710 638 l 569 499 q 507 560 546 539 q 421 582 468 582 q 324 555 368 582 q 256 478 281 528 q 231 364 231 429 q 256 251 231 300 q 325 173 282 201 q 421 144 368 144 q 484 156 454 144 q 538 186 514 167 q 572 231 561 206 l 754 175 q 681 78 729 121 q 569 10 633 35 q 424 -14 504 -14 m 338 839 l 338 1014 l 506 1014 l 506 839 l 338 839 z "},"d":{"ha":896,"x_min":40,"x_max":840,"o":"m 40 364 q 82 555 40 469 q 197 690 124 640 q 365 740 271 740 q 510 701 446 740 q 611 600 575 661 l 611 1014 l 797 1014 l 797 208 q 807 167 797 179 q 840 151 817 154 l 840 0 q 761 -10 792 -10 q 678 15 711 -10 q 642 81 646 40 l 639 126 q 530 22 599 58 q 386 -14 461 -14 q 248 15 311 -14 q 138 96 185 44 q 66 216 92 147 q 40 364 40 285 m 611 267 l 611 440 q 567 513 597 481 q 499 563 536 544 q 424 582 461 582 q 346 564 381 582 q 285 515 311 546 q 247 444 260 485 q 233 360 233 404 q 248 276 233 315 q 290 207 263 236 q 355 161 318 178 q 435 144 392 144 q 488 153 461 144 q 540 178 515 163 q 583 217 564 194 q 611 267 601 240 z "},"ð":{"ha":851,"x_min":43,"x_max":806,"o":"m 806 403 q 777 228 806 306 q 697 97 749 151 q 574 15 644 43 q 421 -14 504 -14 q 229 31 315 -14 q 93 151 143 75 q 43 324 43 228 q 69 453 43 393 q 141 558 94 513 q 248 630 188 604 q 379 656 308 656 q 515 626 451 656 q 615 547 578 596 q 572 674 601 613 q 494 794 543 736 q 374 906 446 851 q 203 1014 303 961 l 442 1014 q 603 895 535 965 q 717 742 672 825 q 784 573 763 660 q 806 403 806 486 m 235 325 q 259 233 235 274 q 326 168 283 192 q 424 144 369 144 q 522 169 479 144 q 590 237 565 194 q 615 329 615 279 q 590 420 615 381 q 523 483 565 460 q 426 506 481 506 q 328 482 371 506 q 260 417 285 458 q 235 325 235 376 m 731 917 l 576 832 l 518 814 l 361 725 l 307 797 l 464 885 l 517 899 l 676 990 l 731 917 z "},"ď":{"ha":896,"x_min":40,"x_max":1082,"o":"m 40 364 q 82 555 40 469 q 197 690 124 640 q 365 740 271 740 q 510 701 446 740 q 611 600 575 661 l 611 1014 l 797 1014 l 797 208 q 807 167 797 179 q 840 151 817 154 l 840 0 q 761 -10 792 -10 q 678 15 711 -10 q 642 81 646 40 l 639 126 q 530 22 599 58 q 386 -14 461 -14 q 248 15 311 -14 q 138 96 185 44 q 66 216 92 147 q 40 364 40 285 m 611 267 l 611 440 q 567 513 597 481 q 499 563 536 544 q 424 582 461 582 q 346 564 381 582 q 285 515 311 546 q 247 444 260 485 q 233 360 233 404 q 248 276 233 315 q 290 207 263 236 q 355 161 318 178 q 435 144 392 144 q 488 153 461 144 q 540 178 515 163 q 583 217 564 194 q 611 267 601 240 m 954 813 l 835 849 l 910 1014 l 1083 1014 l 954 813 z "},"đ":{"ha":896,"x_min":40,"x_max":885,"o":"m 472 829 l 472 939 l 885 939 l 885 829 l 472 829 m 40 364 q 82 555 40 469 q 197 690 124 640 q 365 740 271 740 q 510 701 446 740 q 611 600 575 661 l 611 1014 l 797 1014 l 797 208 q 807 167 797 179 q 840 151 817 154 l 840 0 q 761 -10 792 -10 q 678 15 711 -10 q 642 81 646 40 l 639 126 q 530 22 599 58 q 386 -14 461 -14 q 248 15 311 -14 q 138 96 185 44 q 66 216 92 147 q 40 364 40 285 m 611 267 l 611 440 q 567 513 597 481 q 499 563 536 544 q 424 582 461 582 q 346 564 381 582 q 285 515 311 546 q 247 444 260 485 q 233 360 233 404 q 248 276 233 315 q 290 207 263 236 q 355 161 318 178 q 435 144 392 144 q 488 153 461 144 q 540 178 515 163 q 583 217 564 194 q 611 267 601 240 z "},"ḍ":{"ha":896,"x_min":40,"x_max":840,"o":"m 40 364 q 82 555 40 469 q 197 690 124 640 q 365 740 271 740 q 510 701 446 740 q 611 600 575 661 l 611 1014 l 797 1014 l 797 208 q 807 167 797 179 q 840 151 817 154 l 840 0 q 761 -10 792 -10 q 678 15 711 -10 q 642 81 646 40 l 639 126 q 530 22 599 58 q 386 -14 461 -14 q 248 15 311 -14 q 138 96 185 44 q 66 216 92 147 q 40 364 40 285 m 611 267 l 611 440 q 567 513 597 481 q 499 563 536 544 q 424 582 461 582 q 346 564 381 582 q 285 515 311 546 q 247 444 260 485 q 233 360 233 404 q 248 276 233 315 q 290 207 263 236 q 355 161 318 178 q 435 144 392 144 q 488 153 461 144 q 540 178 515 163 q 583 217 564 194 q 611 267 601 240 m 365 -276 l 365 -101 l 533 -101 l 533 -276 l 365 -276 z "},"ḏ":{"ha":896,"x_min":40,"x_max":840,"o":"m 40 364 q 82 555 40 469 q 197 690 124 640 q 365 740 271 740 q 510 701 446 740 q 611 600 575 661 l 611 1014 l 797 1014 l 797 208 q 807 167 797 179 q 840 151 817 154 l 840 0 q 761 -10 792 -10 q 678 15 711 -10 q 642 81 646 40 l 639 126 q 530 22 599 58 q 386 -14 461 -14 q 248 15 311 -14 q 138 96 185 44 q 66 216 92 147 q 40 364 40 285 m 611 267 l 611 440 q 567 513 597 481 q 499 563 536 544 q 424 582 461 582 q 346 564 381 582 q 285 515 311 546 q 247 444 260 485 q 233 360 233 404 q 248 276 233 315 q 290 207 263 236 q 355 161 318 178 q 435 144 392 144 q 488 153 461 144 q 540 178 515 163 q 583 217 564 194 q 611 267 601 240 m 240 -226 l 240 -111 l 657 -111 l 657 -226 l 240 -226 z "},"e":{"ha":832,"x_min":39,"x_max":803,"o":"m 422 -14 q 264 16 335 -14 q 143 98 193 46 q 66 217 93 150 q 39 360 39 285 q 85 550 39 464 q 219 688 132 636 q 424 740 306 740 q 628 688 543 740 q 758 551 713 636 q 803 367 803 465 q 801 333 803 350 q 799 304 800 315 l 236 304 q 269 207 242 249 q 338 144 296 165 q 429 122 381 122 q 534 149 485 122 q 601 221 583 176 l 761 176 q 685 78 735 121 q 569 10 636 35 q 422 -14 503 -14 m 232 422 l 613 422 q 581 519 607 478 q 514 583 556 560 q 421 606 472 606 q 330 583 371 606 q 263 519 289 560 q 232 422 238 478 z "},"é":{"ha":832,"x_min":39,"x_max":803,"o":"m 422 -14 q 264 16 335 -14 q 143 98 193 46 q 66 217 93 150 q 39 360 39 285 q 85 550 39 464 q 219 688 132 636 q 424 740 306 740 q 628 688 543 740 q 758 551 713 636 q 803 367 803 465 q 801 333 803 350 q 799 304 800 315 l 236 304 q 269 207 242 249 q 338 144 296 165 q 429 122 381 122 q 534 149 485 122 q 601 221 583 176 l 761 176 q 685 78 735 121 q 569 10 636 35 q 422 -14 503 -14 m 232 422 l 613 422 q 581 519 607 478 q 514 583 556 560 q 421 606 472 606 q 330 583 371 606 q 263 519 289 560 q 232 422 238 478 m 482 813 l 363 849 l 438 1014 l 611 1014 l 482 813 z "},"ĕ":{"ha":832,"x_min":39,"x_max":803,"o":"m 422 -14 q 264 16 335 -14 q 143 98 193 46 q 66 217 93 150 q 39 360 39 285 q 85 550 39 464 q 219 688 132 636 q 424 740 306 740 q 628 688 543 740 q 758 551 713 636 q 803 367 803 465 q 801 333 803 350 q 799 304 800 315 l 236 304 q 269 207 242 249 q 338 144 296 165 q 429 122 381 122 q 534 149 485 122 q 601 221 583 176 l 761 176 q 685 78 735 121 q 569 10 636 35 q 422 -14 503 -14 m 232 422 l 613 422 q 581 519 607 478 q 514 583 556 560 q 421 606 472 606 q 330 583 371 606 q 263 519 289 560 q 232 422 238 478 m 419 911 q 475 940 451 911 q 503 1014 499 969 l 601 1014 q 551 881 601 933 q 419 828 500 828 q 289 881 340 828 q 238 1014 238 933 l 338 1014 q 363 942 338 972 q 419 911 388 911 z "},"ě":{"ha":832,"x_min":39,"x_max":803,"o":"m 422 -14 q 264 16 335 -14 q 143 98 193 46 q 66 217 93 150 q 39 360 39 285 q 85 550 39 464 q 219 688 132 636 q 424 740 306 740 q 628 688 543 740 q 758 551 713 636 q 803 367 803 465 q 801 333 803 350 q 799 304 800 315 l 236 304 q 269 207 242 249 q 338 144 296 165 q 429 122 381 122 q 534 149 485 122 q 601 221 583 176 l 761 176 q 685 78 735 121 q 569 10 636 35 q 422 -14 503 -14 m 232 422 l 613 422 q 581 519 607 478 q 514 583 556 560 q 421 606 472 606 q 330 583 371 606 q 263 519 289 560 q 232 422 238 478 m 303 1014 l 421 926 l 539 1014 l 635 969 l 488 829 l 353 829 l 206 969 l 303 1014 z "},"ḝ":{"ha":832,"x_min":39,"x_max":803,"o":"m 422 -14 q 264 16 335 -14 q 143 98 193 46 q 66 217 93 150 q 39 360 39 285 q 85 550 39 464 q 219 688 132 636 q 424 740 306 740 q 628 688 543 740 q 758 551 713 636 q 803 367 803 465 q 801 333 803 350 q 799 304 800 315 l 236 304 q 269 207 242 249 q 338 144 296 165 q 429 122 381 122 q 534 149 485 122 q 601 221 583 176 l 761 176 q 685 78 735 121 q 569 10 636 35 q 422 -14 503 -14 m 232 422 l 613 422 q 581 519 607 478 q 514 583 556 560 q 421 606 472 606 q 330 583 371 606 q 263 519 289 560 q 232 422 238 478 m 403 -279 q 322 -269 365 -279 q 236 -237 279 -258 l 283 -139 q 326 -160 304 -153 q 371 -168 347 -168 q 427 -152 407 -168 q 447 -106 447 -136 q 427 -51 447 -76 q 369 0 407 -25 l 432 40 q 524 -38 488 4 q 560 -142 560 -81 q 520 -240 560 -200 q 403 -279 481 -279 m 419 911 q 475 940 451 911 q 503 1014 499 969 l 601 1014 q 551 881 601 933 q 419 828 500 828 q 289 881 340 828 q 238 1014 238 933 l 338 1014 q 363 942 338 972 q 419 911 388 911 z "},"ê":{"ha":832,"x_min":39,"x_max":803,"o":"m 422 -14 q 264 16 335 -14 q 143 98 193 46 q 66 217 93 150 q 39 360 39 285 q 85 550 39 464 q 219 688 132 636 q 424 740 306 740 q 628 688 543 740 q 758 551 713 636 q 803 367 803 465 q 801 333 803 350 q 799 304 800 315 l 236 304 q 269 207 242 249 q 338 144 296 165 q 429 122 381 122 q 534 149 485 122 q 601 221 583 176 l 761 176 q 685 78 735 121 q 569 10 636 35 q 422 -14 503 -14 m 232 422 l 613 422 q 581 519 607 478 q 514 583 556 560 q 421 606 472 606 q 330 583 371 606 q 263 519 289 560 q 232 422 238 478 m 206 874 l 353 1014 l 488 1014 l 635 874 l 539 829 l 421 917 l 303 829 l 206 874 z "},"ế":{"ha":832,"x_min":39,"x_max":803,"o":"m 422 -14 q 264 16 335 -14 q 143 98 193 46 q 66 217 93 150 q 39 360 39 285 q 85 550 39 464 q 219 688 132 636 q 424 740 306 740 q 628 688 543 740 q 758 551 713 636 q 803 367 803 465 q 801 333 803 350 q 799 304 800 315 l 236 304 q 269 207 242 249 q 338 144 296 165 q 429 122 381 122 q 534 149 485 122 q 601 221 583 176 l 761 176 q 685 78 735 121 q 569 10 636 35 q 422 -14 503 -14 m 232 422 l 613 422 q 581 519 607 478 q 514 583 556 560 q 421 606 472 606 q 330 583 371 606 q 263 519 289 560 q 232 422 238 478 z "},"ệ":{"ha":832,"x_min":39,"x_max":803,"o":"m 422 -14 q 264 16 335 -14 q 143 98 193 46 q 66 217 93 150 q 39 360 39 285 q 85 550 39 464 q 219 688 132 636 q 424 740 306 740 q 628 688 543 740 q 758 551 713 636 q 803 367 803 465 q 801 333 803 350 q 799 304 800 315 l 236 304 q 269 207 242 249 q 338 144 296 165 q 429 122 381 122 q 534 149 485 122 q 601 221 583 176 l 761 176 q 685 78 735 121 q 569 10 636 35 q 422 -14 503 -14 m 232 422 l 613 422 q 581 519 607 478 q 514 583 556 560 q 421 606 472 606 q 330 583 371 606 q 263 519 289 560 q 232 422 238 478 m 338 -276 l 338 -101 l 506 -101 l 506 -276 l 338 -276 m 206 874 l 353 1014 l 488 1014 l 635 874 l 539 829 l 421 917 l 303 829 l 206 874 z "},"ề":{"ha":832,"x_min":26,"x_max":803,"o":"m 422 -14 q 264 16 335 -14 q 143 98 193 46 q 66 217 93 150 q 39 360 39 285 q 85 550 39 464 q 219 688 132 636 q 424 740 306 740 q 628 688 543 740 q 758 551 713 636 q 803 367 803 465 q 801 333 803 350 q 799 304 800 315 l 236 304 q 269 207 242 249 q 338 144 296 165 q 429 122 381 122 q 534 149 485 122 q 601 221 583 176 l 761 176 q 685 78 735 121 q 569 10 636 35 q 422 -14 503 -14 m 232 422 l 613 422 q 581 519 607 478 q 514 583 556 560 q 421 606 472 606 q 330 583 371 606 q 263 519 289 560 q 232 422 238 478 z "},"ể":{"ha":832,"x_min":39,"x_max":803,"o":"m 422 -14 q 264 16 335 -14 q 143 98 193 46 q 66 217 93 150 q 39 360 39 285 q 85 550 39 464 q 219 688 132 636 q 424 740 306 740 q 628 688 543 740 q 758 551 713 636 q 803 367 803 465 q 801 333 803 350 q 799 304 800 315 l 236 304 q 269 207 242 249 q 338 144 296 165 q 429 122 381 122 q 534 149 485 122 q 601 221 583 176 l 761 176 q 685 78 735 121 q 569 10 636 35 q 422 -14 503 -14 m 232 422 l 613 422 q 581 519 607 478 q 514 583 556 560 q 421 606 472 606 q 330 583 371 606 q 263 519 289 560 q 232 422 238 478 z "},"ễ":{"ha":832,"x_min":39,"x_max":803,"o":"m 422 -14 q 264 16 335 -14 q 143 98 193 46 q 66 217 93 150 q 39 360 39 285 q 85 550 39 464 q 219 688 132 636 q 424 740 306 740 q 628 688 543 740 q 758 551 713 636 q 803 367 803 465 q 801 333 803 350 q 799 304 800 315 l 236 304 q 269 207 242 249 q 338 144 296 165 q 429 122 381 122 q 534 149 485 122 q 601 221 583 176 l 761 176 q 685 78 735 121 q 569 10 636 35 q 422 -14 503 -14 m 232 422 l 613 422 q 581 519 607 478 q 514 583 556 560 q 421 606 472 606 q 330 583 371 606 q 263 519 289 560 q 232 422 238 478 z "},"ȅ":{"ha":832,"x_min":39,"x_max":803,"o":"m 422 -14 q 264 16 335 -14 q 143 98 193 46 q 66 217 93 150 q 39 360 39 285 q 85 550 39 464 q 219 688 132 636 q 424 740 306 740 q 628 688 543 740 q 758 551 713 636 q 803 367 803 465 q 801 333 803 350 q 799 304 800 315 l 236 304 q 269 207 242 249 q 338 144 296 165 q 429 122 381 122 q 534 149 485 122 q 601 221 583 176 l 761 176 q 685 78 735 121 q 569 10 636 35 q 422 -14 503 -14 m 232 422 l 613 422 q 581 519 607 478 q 514 583 556 560 q 421 606 472 606 q 330 583 371 606 q 263 519 289 560 q 232 422 238 478 m 382 1015 l 528 1015 l 593 850 l 501 814 l 382 1015 m 160 1015 l 304 1015 l 371 850 l 279 814 l 160 1015 z "},"ë":{"ha":832,"x_min":39,"x_max":803,"o":"m 422 -14 q 264 16 335 -14 q 143 98 193 46 q 66 217 93 150 q 39 360 39 285 q 85 550 39 464 q 219 688 132 636 q 424 740 306 740 q 628 688 543 740 q 758 551 713 636 q 803 367 803 465 q 801 333 803 350 q 799 304 800 315 l 236 304 q 269 207 242 249 q 338 144 296 165 q 429 122 381 122 q 534 149 485 122 q 601 221 583 176 l 761 176 q 685 78 735 121 q 569 10 636 35 q 422 -14 503 -14 m 232 422 l 613 422 q 581 519 607 478 q 514 583 556 560 q 421 606 472 606 q 330 583 371 606 q 263 519 289 560 q 232 422 238 478 m 210 840 l 210 1006 l 364 1006 l 364 840 l 210 840 m 476 840 l 476 1006 l 631 1006 l 631 840 l 476 840 z "},"ė":{"ha":832,"x_min":39,"x_max":803,"o":"m 422 -14 q 264 16 335 -14 q 143 98 193 46 q 66 217 93 150 q 39 360 39 285 q 85 550 39 464 q 219 688 132 636 q 424 740 306 740 q 628 688 543 740 q 758 551 713 636 q 803 367 803 465 q 801 333 803 350 q 799 304 800 315 l 236 304 q 269 207 242 249 q 338 144 296 165 q 429 122 381 122 q 534 149 485 122 q 601 221 583 176 l 761 176 q 685 78 735 121 q 569 10 636 35 q 422 -14 503 -14 m 232 422 l 613 422 q 581 519 607 478 q 514 583 556 560 q 421 606 472 606 q 330 583 371 606 q 263 519 289 560 q 232 422 238 478 m 336 839 l 336 1014 l 504 1014 l 504 839 l 336 839 z "},"ẹ":{"ha":832,"x_min":39,"x_max":803,"o":"m 422 -14 q 264 16 335 -14 q 143 98 193 46 q 66 217 93 150 q 39 360 39 285 q 85 550 39 464 q 219 688 132 636 q 424 740 306 740 q 628 688 543 740 q 758 551 713 636 q 803 367 803 465 q 801 333 803 350 q 799 304 800 315 l 236 304 q 269 207 242 249 q 338 144 296 165 q 429 122 381 122 q 534 149 485 122 q 601 221 583 176 l 761 176 q 685 78 735 121 q 569 10 636 35 q 422 -14 503 -14 m 232 422 l 613 422 q 581 519 607 478 q 514 583 556 560 q 421 606 472 606 q 330 583 371 606 q 263 519 289 560 q 232 422 238 478 m 338 -276 l 338 -101 l 506 -101 l 506 -276 l 338 -276 z "},"è":{"ha":832,"x_min":39,"x_max":803,"o":"m 422 -14 q 264 16 335 -14 q 143 98 193 46 q 66 217 93 150 q 39 360 39 285 q 85 550 39 464 q 219 688 132 636 q 424 740 306 740 q 628 688 543 740 q 758 551 713 636 q 803 367 803 465 q 801 333 803 350 q 799 304 800 315 l 236 304 q 269 207 242 249 q 338 144 296 165 q 429 122 381 122 q 534 149 485 122 q 601 221 583 176 l 761 176 q 685 78 735 121 q 569 10 636 35 q 422 -14 503 -14 m 232 422 l 613 422 q 581 519 607 478 q 514 583 556 560 q 421 606 472 606 q 330 583 371 606 q 263 519 289 560 q 232 422 238 478 m 247 1015 l 419 1015 l 496 850 l 376 814 l 247 1015 z "},"ẻ":{"ha":832,"x_min":39,"x_max":803,"o":"m 422 -14 q 264 16 335 -14 q 143 98 193 46 q 66 217 93 150 q 39 360 39 285 q 85 550 39 464 q 219 688 132 636 q 424 740 306 740 q 628 688 543 740 q 758 551 713 636 q 803 367 803 465 q 801 333 803 350 q 799 304 800 315 l 236 304 q 269 207 242 249 q 338 144 296 165 q 429 122 381 122 q 534 149 485 122 q 601 221 583 176 l 761 176 q 685 78 735 121 q 569 10 636 35 q 422 -14 503 -14 m 232 422 l 613 422 q 581 519 607 478 q 514 583 556 560 q 421 606 472 606 q 330 583 371 606 q 263 519 289 560 q 232 422 238 478 m 350 954 l 293 1011 q 360 1059 326 1043 q 432 1075 394 1075 q 517 1045 488 1075 q 547 972 547 1015 q 526 899 547 932 q 458 828 504 865 l 411 879 q 445 915 435 899 q 456 949 456 931 q 445 976 456 965 q 417 988 435 988 q 385 980 399 988 q 350 954 371 972 z "},"ȇ":{"ha":832,"x_min":39,"x_max":803,"o":"m 422 -14 q 264 16 335 -14 q 143 98 193 46 q 66 217 93 150 q 39 360 39 285 q 85 550 39 464 q 219 688 132 636 q 424 740 306 740 q 628 688 543 740 q 758 551 713 636 q 803 367 803 465 q 801 333 803 350 q 799 304 800 315 l 236 304 q 269 207 242 249 q 338 144 296 165 q 429 122 381 122 q 534 149 485 122 q 601 221 583 176 l 761 176 q 685 78 735 121 q 569 10 636 35 q 422 -14 503 -14 m 232 422 l 613 422 q 581 519 607 478 q 514 583 556 560 q 421 606 472 606 q 330 583 371 606 q 263 519 289 560 q 232 422 238 478 m 419 931 q 363 900 388 931 q 338 828 338 869 l 238 828 q 289 961 238 908 q 419 1014 340 1014 q 551 961 500 1014 q 601 828 601 908 l 503 828 q 475 901 499 872 q 419 931 451 931 z "},"ē":{"ha":832,"x_min":39,"x_max":803,"o":"m 422 -14 q 264 16 335 -14 q 143 98 193 46 q 66 217 93 150 q 39 360 39 285 q 85 550 39 464 q 219 688 132 636 q 424 740 306 740 q 628 688 543 740 q 758 551 713 636 q 803 367 803 465 q 801 333 803 350 q 799 304 800 315 l 236 304 q 269 207 242 249 q 338 144 296 165 q 429 122 381 122 q 534 149 485 122 q 601 221 583 176 l 761 176 q 685 78 735 121 q 569 10 636 35 q 422 -14 503 -14 m 232 422 l 613 422 q 581 519 607 478 q 514 583 556 560 q 421 606 472 606 q 330 583 371 606 q 263 519 289 560 q 232 422 238 478 m 214 879 l 214 994 l 631 994 l 631 879 l 214 879 z "},"ḗ":{"ha":832,"x_min":39,"x_max":803,"o":"m 422 -14 q 264 16 335 -14 q 143 98 193 46 q 66 217 93 150 q 39 360 39 285 q 85 550 39 464 q 219 688 132 636 q 424 740 306 740 q 628 688 543 740 q 758 551 713 636 q 803 367 803 465 q 801 333 803 350 q 799 304 800 315 l 236 304 q 269 207 242 249 q 338 144 296 165 q 429 122 381 122 q 534 149 485 122 q 601 221 583 176 l 761 176 q 685 78 735 121 q 569 10 636 35 q 422 -14 503 -14 m 232 422 l 613 422 q 581 519 607 478 q 514 583 556 560 q 421 606 472 606 q 330 583 371 606 q 263 519 289 560 q 232 422 238 478 m 214 879 l 214 994 l 631 994 l 631 879 l 214 879 m 483 1079 l 364 1115 l 439 1281 l 613 1281 l 483 1079 z "},"ḕ":{"ha":832,"x_min":39,"x_max":803,"o":"m 422 -14 q 264 16 335 -14 q 143 98 193 46 q 66 217 93 150 q 39 360 39 285 q 85 550 39 464 q 219 688 132 636 q 424 740 306 740 q 628 688 543 740 q 758 551 713 636 q 803 367 803 465 q 801 333 803 350 q 799 304 800 315 l 236 304 q 269 207 242 249 q 338 144 296 165 q 429 122 381 122 q 534 149 485 122 q 601 221 583 176 l 761 176 q 685 78 735 121 q 569 10 636 35 q 422 -14 503 -14 m 232 422 l 613 422 q 581 519 607 478 q 514 583 556 560 q 421 606 472 606 q 330 583 371 606 q 263 519 289 560 q 232 422 238 478 m 214 879 l 214 994 l 631 994 l 631 879 l 214 879 m 249 1281 l 421 1281 l 497 1115 l 378 1079 l 249 1281 z "},"ę":{"ha":832,"x_min":39,"x_max":803,"o":"m 422 -14 q 264 16 335 -14 q 143 98 193 46 q 66 217 93 150 q 39 360 39 285 q 85 550 39 464 q 219 688 132 636 q 424 740 306 740 q 628 688 543 740 q 758 551 713 636 q 803 367 803 465 q 801 333 803 350 q 799 304 800 315 l 236 304 q 269 207 242 249 q 338 144 296 165 q 429 122 381 122 q 534 149 485 122 q 601 221 583 176 l 761 176 q 685 78 735 121 q 569 10 636 35 q 422 -14 503 -14 m 232 422 l 613 422 q 581 519 607 478 q 514 583 556 560 q 421 606 472 606 q 330 583 371 606 q 263 519 289 560 q 232 422 238 478 m 308 -153 q 343 -58 308 -106 q 450 29 378 -11 l 508 29 l 531 0 q 453 -66 479 -36 q 426 -121 426 -96 q 453 -158 426 -146 q 531 -172 481 -171 l 493 -278 q 383 -252 424 -271 q 325 -207 342 -233 q 308 -153 308 -181 z "},"ẽ":{"ha":832,"x_min":39,"x_max":803,"o":"m 422 -14 q 264 16 335 -14 q 143 98 193 46 q 66 217 93 150 q 39 360 39 285 q 85 550 39 464 q 219 688 132 636 q 424 740 306 740 q 628 688 543 740 q 758 551 713 636 q 803 367 803 465 q 801 333 803 350 q 799 304 800 315 l 236 304 q 269 207 242 249 q 338 144 296 165 q 429 122 381 122 q 534 149 485 122 q 601 221 583 176 l 761 176 q 685 78 735 121 q 569 10 636 35 q 422 -14 503 -14 m 232 422 l 613 422 q 581 519 607 478 q 514 583 556 560 q 421 606 472 606 q 330 583 371 606 q 263 519 289 560 q 232 422 238 478 m 511 836 q 440 852 469 836 q 385 883 410 868 q 329 899 360 899 q 284 883 299 899 q 266 850 269 867 q 263 832 263 833 l 160 832 q 168 874 160 844 q 195 934 176 903 q 245 988 214 965 q 322 1010 276 1010 q 393 993 365 1010 q 447 960 421 976 q 506 944 472 944 q 554 961 539 944 q 574 994 569 978 q 579 1014 579 1011 l 682 1014 q 674 976 682 1004 q 645 916 665 949 q 592 860 625 883 q 511 836 560 836 z "},"ə":{"ha":832,"x_min":29,"x_max":793,"o":"m 413 -14 q 208 38 293 -14 q 76 176 122 90 q 29 363 31 263 q 31 394 29 376 q 33 422 32 411 l 596 422 q 564 520 592 479 q 494 583 536 561 q 404 604 453 604 q 298 577 347 604 q 231 506 249 550 l 72 550 q 147 649 99 606 q 263 716 196 692 q 410 740 329 740 q 569 710 499 740 q 690 629 640 681 q 766 510 739 578 q 793 365 793 442 q 747 176 793 263 q 616 38 701 90 q 413 -14 531 -14 m 414 121 q 505 144 465 121 q 570 210 544 168 q 600 307 596 251 l 222 307 q 253 210 226 251 q 322 144 281 168 q 414 121 364 121 z "},"f":{"ha":514,"x_min":33,"x_max":551,"o":"m 129 0 l 129 547 l 33 547 l 33 689 l 129 689 l 129 733 q 159 890 129 824 q 244 992 189 956 q 372 1028 299 1028 q 462 1017 417 1028 q 551 985 507 1006 l 514 844 q 465 863 493 856 q 413 871 438 871 q 340 838 365 871 q 315 740 315 804 l 315 689 l 493 689 l 493 547 l 315 547 l 315 0 l 129 0 z "},"g":{"ha":881,"x_min":42,"x_max":797,"o":"m 369 -4 q 237 24 297 -4 q 133 104 176 53 q 65 222 89 156 q 42 364 42 289 q 67 511 42 443 q 137 631 92 579 q 244 712 182 683 q 381 740 306 740 q 529 702 465 740 q 635 600 593 664 l 635 728 l 797 728 l 797 35 q 745 -151 797 -74 q 601 -269 693 -228 q 393 -310 510 -310 q 193 -270 275 -310 q 53 -158 111 -231 l 154 -60 q 259 -140 196 -111 q 393 -169 322 -169 q 502 -148 453 -169 q 581 -81 551 -126 q 611 35 611 -36 l 611 126 q 509 30 575 64 q 369 -4 443 -4 m 432 144 q 490 154 463 144 q 542 181 518 164 q 583 220 565 197 q 611 267 601 243 l 611 440 q 565 515 594 483 q 498 565 535 547 q 421 582 461 582 q 343 564 378 582 q 283 513 308 546 q 245 441 258 481 q 232 358 232 401 q 247 275 232 314 q 290 207 263 236 q 353 161 317 178 q 432 144 390 144 z "},"ğ":{"ha":881,"x_min":42,"x_max":797,"o":"m 369 -4 q 237 24 297 -4 q 133 104 176 53 q 65 222 89 156 q 42 364 42 289 q 67 511 42 443 q 137 631 92 579 q 244 712 182 683 q 381 740 306 740 q 529 702 465 740 q 635 600 593 664 l 635 728 l 797 728 l 797 35 q 745 -151 797 -74 q 601 -269 693 -228 q 393 -310 510 -310 q 193 -270 275 -310 q 53 -158 111 -231 l 154 -60 q 259 -140 196 -111 q 393 -169 322 -169 q 502 -148 453 -169 q 581 -81 551 -126 q 611 35 611 -36 l 611 126 q 509 30 575 64 q 369 -4 443 -4 m 432 144 q 490 154 463 144 q 542 181 518 164 q 583 220 565 197 q 611 267 601 243 l 611 440 q 565 515 594 483 q 498 565 535 547 q 421 582 461 582 q 343 564 378 582 q 283 513 308 546 q 245 441 258 481 q 232 358 232 401 q 247 275 232 314 q 290 207 263 236 q 353 161 317 178 q 432 144 390 144 m 433 911 q 489 940 465 911 q 517 1014 513 969 l 615 1014 q 565 881 615 933 q 433 828 514 828 q 303 881 354 828 q 251 1014 251 933 l 351 1014 q 376 942 351 972 q 433 911 401 911 z "},"ǧ":{"ha":881,"x_min":42,"x_max":797,"o":"m 369 -4 q 237 24 297 -4 q 133 104 176 53 q 65 222 89 156 q 42 364 42 289 q 67 511 42 443 q 137 631 92 579 q 244 712 182 683 q 381 740 306 740 q 529 702 465 740 q 635 600 593 664 l 635 728 l 797 728 l 797 35 q 745 -151 797 -74 q 601 -269 693 -228 q 393 -310 510 -310 q 193 -270 275 -310 q 53 -158 111 -231 l 154 -60 q 259 -140 196 -111 q 393 -169 322 -169 q 502 -148 453 -169 q 581 -81 551 -126 q 611 35 611 -36 l 611 126 q 509 30 575 64 q 369 -4 443 -4 m 432 144 q 490 154 463 144 q 542 181 518 164 q 583 220 565 197 q 611 267 601 243 l 611 440 q 565 515 594 483 q 498 565 535 547 q 421 582 461 582 q 343 564 378 582 q 283 513 308 546 q 245 441 258 481 q 232 358 232 401 q 247 275 232 314 q 290 207 263 236 q 353 161 317 178 q 432 144 390 144 m 317 1014 l 435 926 l 553 1014 l 649 969 l 501 829 l 367 829 l 219 969 l 317 1014 z "},"ĝ":{"ha":881,"x_min":42,"x_max":797,"o":"m 369 -4 q 237 24 297 -4 q 133 104 176 53 q 65 222 89 156 q 42 364 42 289 q 67 511 42 443 q 137 631 92 579 q 244 712 182 683 q 381 740 306 740 q 529 702 465 740 q 635 600 593 664 l 635 728 l 797 728 l 797 35 q 745 -151 797 -74 q 601 -269 693 -228 q 393 -310 510 -310 q 193 -270 275 -310 q 53 -158 111 -231 l 154 -60 q 259 -140 196 -111 q 393 -169 322 -169 q 502 -148 453 -169 q 581 -81 551 -126 q 611 35 611 -36 l 611 126 q 509 30 575 64 q 369 -4 443 -4 m 432 144 q 490 154 463 144 q 542 181 518 164 q 583 220 565 197 q 611 267 601 243 l 611 440 q 565 515 594 483 q 498 565 535 547 q 421 582 461 582 q 343 564 378 582 q 283 513 308 546 q 245 441 258 481 q 232 358 232 401 q 247 275 232 314 q 290 207 263 236 q 353 161 317 178 q 432 144 390 144 m 219 874 l 367 1014 l 501 1014 l 649 874 l 553 829 l 435 917 l 317 829 l 219 874 z "},"ģ":{"ha":881,"x_min":42,"x_max":797,"o":"m 369 -4 q 237 24 297 -4 q 133 104 176 53 q 65 222 89 156 q 42 364 42 289 q 67 511 42 443 q 137 631 92 579 q 244 712 182 683 q 381 740 306 740 q 529 702 465 740 q 635 600 593 664 l 635 728 l 797 728 l 797 35 q 745 -151 797 -74 q 601 -269 693 -228 q 393 -310 510 -310 q 193 -270 275 -310 q 53 -158 111 -231 l 154 -60 q 259 -140 196 -111 q 393 -169 322 -169 q 502 -148 453 -169 q 581 -81 551 -126 q 611 35 611 -36 l 611 126 q 509 30 575 64 q 369 -4 443 -4 m 432 144 q 490 154 463 144 q 542 181 518 164 q 583 220 565 197 q 611 267 601 243 l 611 440 q 565 515 594 483 q 498 565 535 547 q 421 582 461 582 q 343 564 378 582 q 283 513 308 546 q 245 441 258 481 q 232 358 232 401 q 247 275 232 314 q 290 207 263 236 q 353 161 317 178 q 432 144 390 144 m 496 1014 l 458 926 l 513 926 l 513 810 l 356 810 l 356 926 l 411 1014 l 496 1014 z "},"ġ":{"ha":881,"x_min":42,"x_max":797,"o":"m 369 -4 q 237 24 297 -4 q 133 104 176 53 q 65 222 89 156 q 42 364 42 289 q 67 511 42 443 q 137 631 92 579 q 244 712 182 683 q 381 740 306 740 q 529 702 465 740 q 635 600 593 664 l 635 728 l 797 728 l 797 35 q 745 -151 797 -74 q 601 -269 693 -228 q 393 -310 510 -310 q 193 -270 275 -310 q 53 -158 111 -231 l 154 -60 q 259 -140 196 -111 q 393 -169 322 -169 q 502 -148 453 -169 q 581 -81 551 -126 q 611 35 611 -36 l 611 126 q 509 30 575 64 q 369 -4 443 -4 m 432 144 q 490 154 463 144 q 542 181 518 164 q 583 220 565 197 q 611 267 601 243 l 611 440 q 565 515 594 483 q 498 565 535 547 q 421 582 461 582 q 343 564 378 582 q 283 513 308 546 q 245 441 258 481 q 232 358 232 401 q 247 275 232 314 q 290 207 263 236 q 353 161 317 178 q 432 144 390 144 m 350 839 l 350 1014 l 518 1014 l 518 839 l 350 839 z "},"ḡ":{"ha":881,"x_min":42,"x_max":797,"o":"m 369 -4 q 237 24 297 -4 q 133 104 176 53 q 65 222 89 156 q 42 364 42 289 q 67 511 42 443 q 137 631 92 579 q 244 712 182 683 q 381 740 306 740 q 529 702 465 740 q 635 600 593 664 l 635 728 l 797 728 l 797 35 q 745 -151 797 -74 q 601 -269 693 -228 q 393 -310 510 -310 q 193 -270 275 -310 q 53 -158 111 -231 l 154 -60 q 259 -140 196 -111 q 393 -169 322 -169 q 502 -148 453 -169 q 581 -81 551 -126 q 611 35 611 -36 l 611 126 q 509 30 575 64 q 369 -4 443 -4 m 432 144 q 490 154 463 144 q 542 181 518 164 q 583 220 565 197 q 611 267 601 243 l 611 440 q 565 515 594 483 q 498 565 535 547 q 421 582 461 582 q 343 564 378 582 q 283 513 308 546 q 245 441 258 481 q 232 358 232 401 q 247 275 232 314 q 290 207 263 236 q 353 161 317 178 q 432 144 390 144 m 228 879 l 228 994 l 644 994 l 644 879 l 228 879 z "},"h":{"ha":839,"x_min":85,"x_max":761,"o":"m 761 0 l 575 0 l 575 408 q 542 535 575 493 q 453 576 510 576 q 382 557 419 576 q 315 503 344 538 q 271 425 285 469 l 271 0 l 85 0 l 85 1014 l 271 1014 l 271 593 q 381 701 311 663 q 532 740 450 740 q 647 716 603 740 q 717 651 692 692 q 751 559 742 610 q 761 454 761 508 l 761 0 z "},"ħ":{"ha":839,"x_min":22,"x_max":761,"o":"m 22 829 l 22 939 l 435 939 l 435 829 l 22 829 m 761 0 l 575 0 l 575 408 q 542 535 575 493 q 453 576 510 576 q 382 557 419 576 q 315 503 344 538 q 271 425 285 469 l 271 0 l 85 0 l 85 1014 l 271 1014 l 271 593 q 381 701 311 663 q 532 740 450 740 q 647 716 603 740 q 717 651 692 692 q 751 559 742 610 q 761 454 761 508 l 761 0 z "},"ḫ":{"ha":839,"x_min":85,"x_max":761,"o":"m 761 0 l 575 0 l 575 408 q 542 535 575 493 q 453 576 510 576 q 382 557 419 576 q 315 503 344 538 q 271 425 285 469 l 271 0 l 85 0 l 85 1014 l 271 1014 l 271 593 q 381 701 311 663 q 532 740 450 740 q 647 716 603 740 q 717 651 692 692 q 751 559 742 610 q 761 454 761 508 l 761 0 m 419 -176 q 475 -147 451 -176 q 503 -74 499 -118 l 601 -74 q 551 -207 601 -154 q 419 -260 500 -260 q 289 -207 340 -260 q 238 -74 238 -154 l 338 -74 q 363 -146 338 -115 q 419 -176 388 -176 z "},"ĥ":{"ha":839,"x_min":85,"x_max":761,"o":"m 761 0 l 575 0 l 575 408 q 542 535 575 493 q 453 576 510 576 q 382 557 419 576 q 315 503 344 538 q 271 425 285 469 l 271 0 l 85 0 l 85 1014 l 271 1014 l 271 593 q 381 701 311 663 q 532 740 450 740 q 647 716 603 740 q 717 651 692 692 q 751 559 742 610 q 761 454 761 508 l 761 0 m 231 1132 l 378 1272 l 513 1272 l 660 1132 l 564 1088 l 446 1175 l 328 1088 l 231 1132 z "},"ḥ":{"ha":839,"x_min":85,"x_max":761,"o":"m 761 0 l 575 0 l 575 408 q 542 535 575 493 q 453 576 510 576 q 382 557 419 576 q 315 503 344 538 q 271 425 285 469 l 271 0 l 85 0 l 85 1014 l 271 1014 l 271 593 q 381 701 311 663 q 532 740 450 740 q 647 716 603 740 q 717 651 692 692 q 751 559 742 610 q 761 454 761 508 l 761 0 m 336 -276 l 336 -101 l 504 -101 l 504 -276 l 336 -276 z "},"i":{"ha":354,"x_min":85,"x_max":271,"o":"m 85 0 l 85 728 l 271 728 l 271 0 l 85 0 m 85 829 l 85 1014 l 271 1014 l 271 829 l 85 829 z "},"ı":{"ha":354,"x_min":85,"x_max":271,"o":"m 85 0 l 85 728 l 271 728 l 271 0 l 85 0 z "},"í":{"ha":354,"x_min":85,"x_max":368,"o":"m 85 0 l 85 728 l 271 728 l 271 0 l 85 0 m 239 813 l 119 849 l 194 1014 l 368 1014 l 239 813 z "},"ĭ":{"ha":354,"x_min":-4,"x_max":360,"o":"m 85 0 l 85 728 l 271 728 l 271 0 l 85 0 m 176 911 q 232 940 208 911 q 260 1014 256 969 l 358 1014 q 308 881 358 933 q 176 828 257 828 q 46 881 97 828 q -6 1014 -6 933 l 94 1014 q 119 942 94 972 q 176 911 144 911 z "},"î":{"ha":354,"x_min":-37,"x_max":392,"o":"m 85 0 l 85 728 l 271 728 l 271 0 l 85 0 m -37 874 l 110 1014 l 244 1014 l 392 874 l 296 829 l 178 917 l 60 829 l -37 874 z "},"ȉ":{"ha":354,"x_min":-83,"x_max":351,"o":"m 85 0 l 85 728 l 271 728 l 271 0 l 85 0 m 139 1015 l 285 1015 l 350 850 l 258 814 l 139 1015 m -83 1015 l 61 1015 l 128 850 l 36 814 l -83 1015 z "},"ï":{"ha":354,"x_min":-33,"x_max":388,"o":"m 85 0 l 85 728 l 271 728 l 271 0 l 85 0 m -33 840 l -33 1006 l 121 1006 l 121 840 l -33 840 m 233 840 l 233 1006 l 388 1006 l 388 840 l 233 840 z "},"ḯ":{"ha":354,"x_min":-33,"x_max":388,"o":"m 85 0 l 85 728 l 271 728 l 271 0 l 85 0 m -33 840 l -33 1006 l 121 1006 l 121 840 l -33 840 m 233 840 l 233 1006 l 388 1006 l 388 840 l 233 840 m 239 1086 l 119 1122 l 194 1288 l 368 1288 l 239 1086 z "},"ị":{"ha":354,"x_min":85,"x_max":271,"o":"m 85 0 l 85 728 l 271 728 l 271 0 l 85 0 m 85 829 l 85 1014 l 271 1014 l 271 829 l 85 829 m 93 -276 l 93 -101 l 261 -101 l 261 -276 l 93 -276 z "},"ì":{"ha":354,"x_min":4,"x_max":271,"o":"m 85 0 l 85 728 l 271 728 l 271 0 l 85 0 m 4 1015 l 176 1015 l 253 850 l 133 814 l 4 1015 z "},"ỉ":{"ha":354,"x_min":11,"x_max":271,"o":"m 85 0 l 85 728 l 271 728 l 271 0 l 85 0 m 68 924 l 11 981 q 78 1028 44 1013 q 150 1044 113 1044 q 235 1015 206 1044 q 265 942 265 985 q 244 868 265 901 q 176 797 222 835 l 129 849 q 163 884 153 868 q 174 918 174 900 q 163 946 174 935 q 135 957 153 957 q 103 949 117 957 q 68 924 89 942 z "},"ȋ":{"ha":354,"x_min":-4,"x_max":360,"o":"m 85 0 l 85 728 l 271 728 l 271 0 l 85 0 m 176 931 q 119 900 144 931 q 94 828 94 869 l -6 828 q 46 961 -6 908 q 176 1014 97 1014 q 308 961 257 1014 q 358 828 358 908 l 260 828 q 232 901 256 872 q 176 931 208 931 z "},"ī":{"ha":354,"x_min":-29,"x_max":388,"o":"m 85 0 l 85 728 l 271 728 l 271 0 l 85 0 m -29 879 l -29 994 l 388 994 l 388 879 l -29 879 z "},"į":{"ha":354,"x_min":47,"x_max":271,"o":"m 85 0 l 85 728 l 271 728 l 271 0 l 85 0 m 85 829 l 85 1014 l 271 1014 l 271 829 l 85 829 m 47 -153 q 82 -58 47 -106 q 189 29 117 -11 l 247 29 l 269 0 q 192 -66 218 -36 q 165 -121 165 -96 q 192 -158 165 -146 q 269 -172 219 -171 l 232 -278 q 122 -252 163 -271 q 64 -207 81 -233 q 47 -153 47 -181 z "},"ĩ":{"ha":354,"x_min":-83,"x_max":438,"o":"m 85 0 l 85 728 l 271 728 l 271 0 l 85 0 m 268 836 q 197 852 226 836 q 142 883 167 868 q 86 899 117 899 q 41 883 56 899 q 23 850 26 867 q 19 832 19 833 l -83 832 q -75 874 -83 844 q -48 934 -67 903 q 2 988 -29 965 q 79 1010 33 1010 q 150 993 122 1010 q 203 960 178 976 q 263 944 229 944 q 311 961 296 944 q 331 994 326 978 q 336 1014 336 1011 l 439 1014 q 431 976 439 1004 q 402 916 422 949 q 349 860 382 883 q 268 836 317 836 z "},"j":{"ha":363,"x_min":-160,"x_max":278,"o":"m 25 -272 q -74 -256 -26 -272 q -160 -207 -121 -240 l -79 -81 q -42 -104 -64 -97 q 3 -111 -19 -111 q 48 -99 28 -111 q 80 -67 68 -87 q 92 -19 92 -46 l 92 728 l 278 728 l 278 -6 q 244 -144 278 -83 q 153 -239 210 -206 q 25 -272 97 -272 m 92 829 l 92 1014 l 278 1014 l 278 829 l 92 829 z "},"ȷ":{"ha":354,"x_min":-167,"x_max":271,"o":"m 18 -272 q -81 -256 -33 -272 q -167 -207 -129 -240 l -87 -81 q -49 -104 -71 -97 q -6 -111 -26 -111 q 40 -99 19 -111 q 72 -67 60 -87 q 85 -19 85 -46 l 85 728 l 271 728 l 271 -6 q 236 -144 271 -83 q 145 -239 201 -206 q 18 -272 89 -272 z "},"ĵ":{"ha":354,"x_min":-167,"x_max":392,"o":"m 18 -272 q -81 -256 -33 -272 q -167 -207 -129 -240 l -87 -81 q -49 -104 -71 -97 q -6 -111 -26 -111 q 40 -99 19 -111 q 72 -67 60 -87 q 85 -19 85 -46 l 85 728 l 271 728 l 271 -6 q 236 -144 271 -83 q 145 -239 201 -206 q 18 -272 89 -272 m -37 874 l 110 1014 l 244 1014 l 392 874 l 296 829 l 178 917 l 60 829 l -37 874 z "},"k":{"ha":775,"x_min":85,"x_max":781,"o":"m 582 0 l 369 314 l 271 217 l 271 0 l 85 0 l 85 1014 l 271 1014 l 271 400 l 564 726 l 761 726 l 490 418 l 781 0 l 582 0 z "},"ķ":{"ha":775,"x_min":85,"x_max":781,"o":"m 582 0 l 369 314 l 271 217 l 271 0 l 85 0 l 85 1014 l 271 1014 l 271 400 l 564 726 l 761 726 l 490 418 l 781 0 l 582 0 m 335 -296 l 372 -196 l 318 -196 l 318 -65 l 475 -65 l 475 -196 l 419 -296 l 335 -296 z "},"ĸ":{"ha":775,"x_min":85,"x_max":781,"o":"m 582 0 l 371 315 l 271 217 l 271 0 l 85 0 l 85 728 l 271 728 l 271 399 l 563 726 l 761 726 l 490 418 l 781 0 l 582 0 z "},"l":{"ha":440,"x_min":83,"x_max":444,"o":"m 83 1014 l 269 1014 l 269 233 q 286 166 269 183 q 332 149 303 149 q 378 154 354 149 q 419 168 401 160 l 444 26 q 357 -1 407 8 q 267 -11 307 -11 q 131 35 179 -11 q 83 168 83 82 l 83 1014 z "},"ĺ":{"ha":440,"x_min":83,"x_max":444,"o":"m 83 1014 l 269 1014 l 269 233 q 286 166 269 183 q 332 149 303 149 q 378 154 354 149 q 419 168 401 160 l 444 26 q 357 -1 407 8 q 267 -11 307 -11 q 131 35 179 -11 q 83 168 83 82 l 83 1014 m 238 1071 l 118 1107 l 193 1272 l 367 1272 l 238 1071 z "},"ľ":{"ha":440,"x_min":83,"x_max":572,"o":"m 83 1014 l 269 1014 l 269 233 q 286 166 269 183 q 332 149 303 149 q 378 154 354 149 q 419 168 401 160 l 444 26 q 357 -1 407 8 q 267 -11 307 -11 q 131 35 179 -11 q 83 168 83 82 l 83 1014 m 444 813 l 325 849 l 400 1014 l 574 1014 l 444 813 z "},"ļ":{"ha":440,"x_min":83,"x_max":444,"o":"m 83 1014 l 269 1014 l 269 233 q 286 166 269 183 q 332 149 303 149 q 378 154 354 149 q 419 168 401 160 l 444 26 q 357 -1 407 8 q 267 -11 307 -11 q 131 35 179 -11 q 83 168 83 82 l 83 1014 m 197 -296 l 235 -196 l 181 -196 l 181 -65 l 338 -65 l 338 -196 l 282 -296 l 197 -296 z "},"ŀ":{"ha":551,"x_min":83,"x_max":528,"o":"m 83 1014 l 269 1014 l 269 233 q 286 166 269 183 q 332 149 303 149 q 378 154 354 149 q 419 168 401 160 l 444 26 q 357 -1 407 8 q 267 -11 307 -11 q 131 35 179 -11 q 83 168 83 82 l 83 1014 m 375 336 l 375 546 l 528 546 l 528 336 l 375 336 z "},"ḷ":{"ha":440,"x_min":83,"x_max":444,"o":"m 83 1014 l 269 1014 l 269 233 q 286 166 269 183 q 332 149 303 149 q 378 154 354 149 q 419 168 401 160 l 444 26 q 357 -1 407 8 q 267 -11 307 -11 q 131 35 179 -11 q 83 168 83 82 l 83 1014 m 179 -276 l 179 -101 l 347 -101 l 347 -276 l 179 -276 z "},"ḻ":{"ha":440,"x_min":54,"x_max":471,"o":"m 83 1014 l 269 1014 l 269 233 q 286 166 269 183 q 332 149 303 149 q 378 154 354 149 q 419 168 401 160 l 444 26 q 357 -1 407 8 q 267 -11 307 -11 q 131 35 179 -11 q 83 168 83 82 l 83 1014 m 56 -226 l 56 -111 l 472 -111 l 472 -226 l 56 -226 z "},"ł":{"ha":478,"x_min":-1,"x_max":478,"o":"m 46 374 l -1 474 l 422 728 l 469 628 l 46 374 m 117 1014 l 303 1014 l 303 233 q 320 166 303 183 q 365 149 338 149 q 412 154 389 149 q 453 168 435 160 l 478 26 q 390 -1 440 8 q 300 -11 340 -11 q 165 35 213 -11 q 117 168 117 82 l 117 1014 z "},"m":{"ha":1293,"x_min":85,"x_max":1215,"o":"m 1215 0 l 1029 0 l 1029 408 q 999 535 1029 494 q 917 576 969 576 q 813 534 863 576 q 743 424 764 492 l 743 0 l 557 0 l 557 408 q 527 536 557 496 q 444 576 497 576 q 341 535 390 576 q 271 425 292 493 l 271 0 l 85 0 l 85 728 l 253 728 l 253 593 q 364 702 294 664 q 524 740 433 740 q 665 696 614 740 q 729 586 715 651 q 842 701 774 661 q 997 740 911 740 q 1108 716 1065 740 q 1174 651 1150 692 q 1206 558 1197 610 q 1215 454 1215 507 l 1215 0 z "},"ṃ":{"ha":1293,"x_min":85,"x_max":1215,"o":"m 1215 0 l 1029 0 l 1029 408 q 999 535 1029 494 q 917 576 969 576 q 813 534 863 576 q 743 424 764 492 l 743 0 l 557 0 l 557 408 q 527 536 557 496 q 444 576 497 576 q 341 535 390 576 q 271 425 292 493 l 271 0 l 85 0 l 85 728 l 253 728 l 253 593 q 364 702 294 664 q 524 740 433 740 q 665 696 614 740 q 729 586 715 651 q 842 701 774 661 q 997 740 911 740 q 1108 716 1065 740 q 1174 651 1150 692 q 1206 558 1197 610 q 1215 454 1215 507 l 1215 0 m 563 -276 l 563 -101 l 731 -101 l 731 -276 l 563 -276 z "},"n":{"ha":839,"x_min":85,"x_max":761,"o":"m 761 0 l 575 0 l 575 408 q 544 536 575 496 q 460 576 514 576 q 384 557 422 576 q 315 503 346 538 q 271 425 285 469 l 271 0 l 85 0 l 85 728 l 253 728 l 253 593 q 324 673 281 640 q 423 723 367 706 q 542 740 479 740 q 653 716 610 740 q 720 651 697 692 q 752 558 743 610 q 761 454 761 507 l 761 0 z "},"ń":{"ha":839,"x_min":85,"x_max":761,"o":"m 761 0 l 575 0 l 575 408 q 544 536 575 496 q 460 576 514 576 q 384 557 422 576 q 315 503 346 538 q 271 425 285 469 l 271 0 l 85 0 l 85 728 l 253 728 l 253 593 q 324 673 281 640 q 423 723 367 706 q 542 740 479 740 q 653 716 610 740 q 720 651 697 692 q 752 558 743 610 q 761 454 761 507 l 761 0 m 501 813 l 382 849 l 457 1014 l 631 1014 l 501 813 z "},"ň":{"ha":839,"x_min":85,"x_max":761,"o":"m 761 0 l 575 0 l 575 408 q 544 536 575 496 q 460 576 514 576 q 384 557 422 576 q 315 503 346 538 q 271 425 285 469 l 271 0 l 85 0 l 85 728 l 253 728 l 253 593 q 324 673 281 640 q 423 723 367 706 q 542 740 479 740 q 653 716 610 740 q 720 651 697 692 q 752 558 743 610 q 761 454 761 507 l 761 0 m 322 1014 l 440 926 l 558 1014 l 654 969 l 507 829 l 372 829 l 225 969 l 322 1014 z "},"ņ":{"ha":839,"x_min":85,"x_max":761,"o":"m 761 0 l 575 0 l 575 408 q 544 536 575 496 q 460 576 514 576 q 384 557 422 576 q 315 503 346 538 q 271 425 285 469 l 271 0 l 85 0 l 85 728 l 253 728 l 253 593 q 324 673 281 640 q 423 723 367 706 q 542 740 479 740 q 653 716 610 740 q 720 651 697 692 q 752 558 743 610 q 761 454 761 507 l 761 0 m 353 -296 l 390 -196 l 336 -196 l 336 -65 l 493 -65 l 493 -196 l 438 -296 l 353 -296 z "},"ṅ":{"ha":839,"x_min":85,"x_max":761,"o":"m 761 0 l 575 0 l 575 408 q 544 536 575 496 q 460 576 514 576 q 384 557 422 576 q 315 503 346 538 q 271 425 285 469 l 271 0 l 85 0 l 85 728 l 253 728 l 253 593 q 324 673 281 640 q 423 723 367 706 q 542 740 479 740 q 653 716 610 740 q 720 651 697 692 q 752 558 743 610 q 761 454 761 507 l 761 0 m 356 839 l 356 1014 l 524 1014 l 524 839 l 356 839 z "},"ṇ":{"ha":839,"x_min":85,"x_max":761,"o":"m 761 0 l 575 0 l 575 408 q 544 536 575 496 q 460 576 514 576 q 384 557 422 576 q 315 503 346 538 q 271 425 285 469 l 271 0 l 85 0 l 85 728 l 253 728 l 253 593 q 324 673 281 640 q 423 723 367 706 q 542 740 479 740 q 653 716 610 740 q 720 651 697 692 q 752 558 743 610 q 761 454 761 507 l 761 0 m 335 -276 l 335 -101 l 503 -101 l 503 -276 l 335 -276 z "},"ŋ":{"ha":839,"x_min":85,"x_max":760,"o":"m 508 -272 q 408 -256 456 -272 q 324 -207 361 -240 l 403 -81 q 442 -104 419 -97 q 485 -111 464 -111 q 530 -99 510 -111 q 563 -67 550 -87 q 575 -19 575 -46 l 575 408 q 544 536 575 496 q 460 576 514 576 q 384 557 422 576 q 315 503 346 538 q 271 425 285 469 l 271 0 l 85 0 l 85 728 l 253 728 l 253 593 q 324 673 281 640 q 423 723 367 706 q 542 740 479 740 q 653 716 610 740 q 720 651 697 692 q 751 558 743 610 q 760 454 760 507 l 760 -6 q 726 -144 760 -83 q 635 -239 692 -206 q 508 -272 578 -272 z "},"ṉ":{"ha":839,"x_min":85,"x_max":761,"o":"m 761 0 l 575 0 l 575 408 q 544 536 575 496 q 460 576 514 576 q 384 557 422 576 q 315 503 346 538 q 271 425 285 469 l 271 0 l 85 0 l 85 728 l 253 728 l 253 593 q 324 673 281 640 q 423 723 367 706 q 542 740 479 740 q 653 716 610 740 q 720 651 697 692 q 752 558 743 610 q 761 454 761 507 l 761 0 m 211 -226 l 211 -111 l 628 -111 l 628 -226 l 211 -226 z "},"ñ":{"ha":839,"x_min":85,"x_max":761,"o":"m 761 0 l 575 0 l 575 408 q 544 536 575 496 q 460 576 514 576 q 384 557 422 576 q 315 503 346 538 q 271 425 285 469 l 271 0 l 85 0 l 85 728 l 253 728 l 253 593 q 324 673 281 640 q 423 723 367 706 q 542 740 479 740 q 653 716 610 740 q 720 651 697 692 q 752 558 743 610 q 761 454 761 507 l 761 0 m 531 836 q 459 852 489 836 q 404 883 429 868 q 349 899 379 899 q 303 883 318 899 q 285 850 289 867 q 282 832 282 833 l 179 832 q 188 874 179 844 q 215 934 196 903 q 265 988 233 965 q 342 1010 296 1010 q 413 993 385 1010 q 466 960 440 976 q 525 944 492 944 q 574 961 558 944 q 594 994 589 978 q 599 1014 599 1011 l 701 1014 q 693 976 701 1004 q 665 916 685 949 q 612 860 644 883 q 531 836 579 836 z "},"o":{"ha":842,"x_min":39,"x_max":801,"o":"m 421 -14 q 261 16 332 -14 q 141 99 190 46 q 65 219 92 151 q 39 363 39 288 q 65 507 39 439 q 141 628 92 575 q 261 710 190 681 q 421 740 332 740 q 580 710 510 740 q 700 628 650 681 q 776 507 750 575 q 801 363 801 439 q 776 219 801 288 q 701 99 750 151 q 581 16 651 46 q 421 -14 510 -14 m 231 363 q 256 249 231 299 q 324 172 281 200 q 421 144 367 144 q 517 173 474 144 q 585 251 560 201 q 611 364 611 300 q 585 476 611 426 q 517 554 560 526 q 421 582 474 582 q 324 553 367 582 q 256 476 281 525 q 231 363 231 426 z "},"ó":{"ha":842,"x_min":39,"x_max":801,"o":"m 421 -14 q 261 16 332 -14 q 141 99 190 46 q 65 219 92 151 q 39 363 39 288 q 65 507 39 439 q 141 628 92 575 q 261 710 190 681 q 421 740 332 740 q 580 710 510 740 q 700 628 650 681 q 776 507 750 575 q 801 363 801 439 q 776 219 801 288 q 701 99 750 151 q 581 16 651 46 q 421 -14 510 -14 m 231 363 q 256 249 231 299 q 324 172 281 200 q 421 144 367 144 q 517 173 474 144 q 585 251 560 201 q 611 364 611 300 q 585 476 611 426 q 517 554 560 526 q 421 582 474 582 q 324 553 367 582 q 256 476 281 525 q 231 363 231 426 m 482 813 l 363 849 l 438 1014 l 611 1014 l 482 813 z "},"ŏ":{"ha":842,"x_min":39,"x_max":801,"o":"m 421 -14 q 261 16 332 -14 q 141 99 190 46 q 65 219 92 151 q 39 363 39 288 q 65 507 39 439 q 141 628 92 575 q 261 710 190 681 q 421 740 332 740 q 580 710 510 740 q 700 628 650 681 q 776 507 750 575 q 801 363 801 439 q 776 219 801 288 q 701 99 750 151 q 581 16 651 46 q 421 -14 510 -14 m 231 363 q 256 249 231 299 q 324 172 281 200 q 421 144 367 144 q 517 173 474 144 q 585 251 560 201 q 611 364 611 300 q 585 476 611 426 q 517 554 560 526 q 421 582 474 582 q 324 553 367 582 q 256 476 281 525 q 231 363 231 426 m 419 911 q 475 940 451 911 q 503 1014 499 969 l 601 1014 q 551 881 601 933 q 419 828 500 828 q 289 881 340 828 q 238 1014 238 933 l 338 1014 q 363 942 338 972 q 419 911 388 911 z "},"ô":{"ha":842,"x_min":39,"x_max":801,"o":"m 421 -14 q 261 16 332 -14 q 141 99 190 46 q 65 219 92 151 q 39 363 39 288 q 65 507 39 439 q 141 628 92 575 q 261 710 190 681 q 421 740 332 740 q 580 710 510 740 q 700 628 650 681 q 776 507 750 575 q 801 363 801 439 q 776 219 801 288 q 701 99 750 151 q 581 16 651 46 q 421 -14 510 -14 m 231 363 q 256 249 231 299 q 324 172 281 200 q 421 144 367 144 q 517 173 474 144 q 585 251 560 201 q 611 364 611 300 q 585 476 611 426 q 517 554 560 526 q 421 582 474 582 q 324 553 367 582 q 256 476 281 525 q 231 363 231 426 m 206 874 l 353 1014 l 488 1014 l 635 874 l 539 829 l 421 917 l 303 829 l 206 874 z "},"ố":{"ha":842,"x_min":39,"x_max":803,"o":"m 421 -14 q 261 16 332 -14 q 141 99 190 46 q 65 219 92 151 q 39 363 39 288 q 65 507 39 439 q 141 628 92 575 q 261 710 190 681 q 421 740 332 740 q 580 710 510 740 q 700 628 650 681 q 776 507 750 575 q 801 363 801 439 q 776 219 801 288 q 701 99 750 151 q 581 16 651 46 q 421 -14 510 -14 m 231 363 q 256 249 231 299 q 324 172 281 200 q 421 144 367 144 q 517 173 474 144 q 585 251 560 201 q 611 364 611 300 q 585 476 611 426 q 517 554 560 526 q 421 582 474 582 q 324 553 367 582 q 256 476 281 525 q 231 363 231 426 z "},"ộ":{"ha":842,"x_min":39,"x_max":801,"o":"m 421 -14 q 261 16 332 -14 q 141 99 190 46 q 65 219 92 151 q 39 363 39 288 q 65 507 39 439 q 141 628 92 575 q 261 710 190 681 q 421 740 332 740 q 580 710 510 740 q 700 628 650 681 q 776 507 750 575 q 801 363 801 439 q 776 219 801 288 q 701 99 750 151 q 581 16 651 46 q 421 -14 510 -14 m 231 363 q 256 249 231 299 q 324 172 281 200 q 421 144 367 144 q 517 173 474 144 q 585 251 560 201 q 611 364 611 300 q 585 476 611 426 q 517 554 560 526 q 421 582 474 582 q 324 553 367 582 q 256 476 281 525 q 231 363 231 426 m 336 -276 l 336 -101 l 504 -101 l 504 -276 l 336 -276 m 206 874 l 353 1014 l 488 1014 l 635 874 l 539 829 l 421 917 l 303 829 l 206 874 z "},"ồ":{"ha":842,"x_min":26,"x_max":801,"o":"m 421 -14 q 261 16 332 -14 q 141 99 190 46 q 65 219 92 151 q 39 363 39 288 q 65 507 39 439 q 141 628 92 575 q 261 710 190 681 q 421 740 332 740 q 580 710 510 740 q 700 628 650 681 q 776 507 750 575 q 801 363 801 439 q 776 219 801 288 q 701 99 750 151 q 581 16 651 46 q 421 -14 510 -14 m 231 363 q 256 249 231 299 q 324 172 281 200 q 421 144 367 144 q 517 173 474 144 q 585 251 560 201 q 611 364 611 300 q 585 476 611 426 q 517 554 560 526 q 421 582 474 582 q 324 553 367 582 q 256 476 281 525 q 231 363 231 426 z "},"ổ":{"ha":842,"x_min":39,"x_max":801,"o":"m 421 -14 q 261 16 332 -14 q 141 99 190 46 q 65 219 92 151 q 39 363 39 288 q 65 507 39 439 q 141 628 92 575 q 261 710 190 681 q 421 740 332 740 q 580 710 510 740 q 700 628 650 681 q 776 507 750 575 q 801 363 801 439 q 776 219 801 288 q 701 99 750 151 q 581 16 651 46 q 421 -14 510 -14 m 231 363 q 256 249 231 299 q 324 172 281 200 q 421 144 367 144 q 517 173 474 144 q 585 251 560 201 q 611 364 611 300 q 585 476 611 426 q 517 554 560 526 q 421 582 474 582 q 324 553 367 582 q 256 476 281 525 q 231 363 231 426 z "},"ỗ":{"ha":842,"x_min":39,"x_max":801,"o":"m 421 -14 q 261 16 332 -14 q 141 99 190 46 q 65 219 92 151 q 39 363 39 288 q 65 507 39 439 q 141 628 92 575 q 261 710 190 681 q 421 740 332 740 q 580 710 510 740 q 700 628 650 681 q 776 507 750 575 q 801 363 801 439 q 776 219 801 288 q 701 99 750 151 q 581 16 651 46 q 421 -14 510 -14 m 231 363 q 256 249 231 299 q 324 172 281 200 q 421 144 367 144 q 517 173 474 144 q 585 251 560 201 q 611 364 611 300 q 585 476 611 426 q 517 554 560 526 q 421 582 474 582 q 324 553 367 582 q 256 476 281 525 q 231 363 231 426 z "},"ȍ":{"ha":842,"x_min":39,"x_max":801,"o":"m 421 -14 q 261 16 332 -14 q 141 99 190 46 q 65 219 92 151 q 39 363 39 288 q 65 507 39 439 q 141 628 92 575 q 261 710 190 681 q 421 740 332 740 q 580 710 510 740 q 700 628 650 681 q 776 507 750 575 q 801 363 801 439 q 776 219 801 288 q 701 99 750 151 q 581 16 651 46 q 421 -14 510 -14 m 231 363 q 256 249 231 299 q 324 172 281 200 q 421 144 367 144 q 517 173 474 144 q 585 251 560 201 q 611 364 611 300 q 585 476 611 426 q 517 554 560 526 q 421 582 474 582 q 324 553 367 582 q 256 476 281 525 q 231 363 231 426 m 382 1015 l 528 1015 l 593 850 l 501 814 l 382 1015 m 160 1015 l 304 1015 l 371 850 l 279 814 l 160 1015 z "},"ö":{"ha":842,"x_min":39,"x_max":801,"o":"m 421 -14 q 261 16 332 -14 q 141 99 190 46 q 65 219 92 151 q 39 363 39 288 q 65 507 39 439 q 141 628 92 575 q 261 710 190 681 q 421 740 332 740 q 580 710 510 740 q 700 628 650 681 q 776 507 750 575 q 801 363 801 439 q 776 219 801 288 q 701 99 750 151 q 581 16 651 46 q 421 -14 510 -14 m 231 363 q 256 249 231 299 q 324 172 281 200 q 421 144 367 144 q 517 173 474 144 q 585 251 560 201 q 611 364 611 300 q 585 476 611 426 q 517 554 560 526 q 421 582 474 582 q 324 553 367 582 q 256 476 281 525 q 231 363 231 426 m 210 840 l 210 1006 l 364 1006 l 364 840 l 210 840 m 476 840 l 476 1006 l 631 1006 l 631 840 l 476 840 z "},"ȫ":{"ha":842,"x_min":39,"x_max":801,"o":"m 421 -14 q 261 16 332 -14 q 141 99 190 46 q 65 219 92 151 q 39 363 39 288 q 65 507 39 439 q 141 628 92 575 q 261 710 190 681 q 421 740 332 740 q 580 710 510 740 q 700 628 650 681 q 776 507 750 575 q 801 363 801 439 q 776 219 801 288 q 701 99 750 151 q 581 16 651 46 q 421 -14 510 -14 m 231 363 q 256 249 231 299 q 324 172 281 200 q 421 144 367 144 q 517 173 474 144 q 585 251 560 201 q 611 364 611 300 q 585 476 611 426 q 517 554 560 526 q 421 582 474 582 q 324 553 367 582 q 256 476 281 525 q 231 363 231 426 m 210 840 l 210 1006 l 364 1006 l 364 840 l 210 840 m 476 840 l 476 1006 l 631 1006 l 631 840 l 476 840 m 214 1153 l 214 1268 l 631 1268 l 631 1153 l 214 1153 z "},"ȱ":{"ha":842,"x_min":39,"x_max":801,"o":"m 421 -14 q 261 16 332 -14 q 141 99 190 46 q 65 219 92 151 q 39 363 39 288 q 65 507 39 439 q 141 628 92 575 q 261 710 190 681 q 421 740 332 740 q 580 710 510 740 q 700 628 650 681 q 776 507 750 575 q 801 363 801 439 q 776 219 801 288 q 701 99 750 151 q 581 16 651 46 q 421 -14 510 -14 m 231 363 q 256 249 231 299 q 324 172 281 200 q 421 144 367 144 q 517 173 474 144 q 585 251 560 201 q 611 364 611 300 q 585 476 611 426 q 517 554 560 526 q 421 582 474 582 q 324 553 367 582 q 256 476 281 525 q 231 363 231 426 m 336 839 l 336 1014 l 504 1014 l 504 839 l 336 839 m 214 1165 l 214 1281 l 631 1281 l 631 1165 l 214 1165 z "},"ọ":{"ha":842,"x_min":39,"x_max":801,"o":"m 421 -14 q 261 16 332 -14 q 141 99 190 46 q 65 219 92 151 q 39 363 39 288 q 65 507 39 439 q 141 628 92 575 q 261 710 190 681 q 421 740 332 740 q 580 710 510 740 q 700 628 650 681 q 776 507 750 575 q 801 363 801 439 q 776 219 801 288 q 701 99 750 151 q 581 16 651 46 q 421 -14 510 -14 m 231 363 q 256 249 231 299 q 324 172 281 200 q 421 144 367 144 q 517 173 474 144 q 585 251 560 201 q 611 364 611 300 q 585 476 611 426 q 517 554 560 526 q 421 582 474 582 q 324 553 367 582 q 256 476 281 525 q 231 363 231 426 m 336 -276 l 336 -101 l 504 -101 l 504 -276 l 336 -276 z "},"ò":{"ha":842,"x_min":39,"x_max":801,"o":"m 421 -14 q 261 16 332 -14 q 141 99 190 46 q 65 219 92 151 q 39 363 39 288 q 65 507 39 439 q 141 628 92 575 q 261 710 190 681 q 421 740 332 740 q 580 710 510 740 q 700 628 650 681 q 776 507 750 575 q 801 363 801 439 q 776 219 801 288 q 701 99 750 151 q 581 16 651 46 q 421 -14 510 -14 m 231 363 q 256 249 231 299 q 324 172 281 200 q 421 144 367 144 q 517 173 474 144 q 585 251 560 201 q 611 364 611 300 q 585 476 611 426 q 517 554 560 526 q 421 582 474 582 q 324 553 367 582 q 256 476 281 525 q 231 363 231 426 m 247 1015 l 419 1015 l 496 850 l 376 814 l 247 1015 z "},"ỏ":{"ha":842,"x_min":39,"x_max":801,"o":"m 421 -14 q 261 16 332 -14 q 141 99 190 46 q 65 219 92 151 q 39 363 39 288 q 65 507 39 439 q 141 628 92 575 q 261 710 190 681 q 421 740 332 740 q 580 710 510 740 q 700 628 650 681 q 776 507 750 575 q 801 363 801 439 q 776 219 801 288 q 701 99 750 151 q 581 16 651 46 q 421 -14 510 -14 m 231 363 q 256 249 231 299 q 324 172 281 200 q 421 144 367 144 q 517 173 474 144 q 585 251 560 201 q 611 364 611 300 q 585 476 611 426 q 517 554 560 526 q 421 582 474 582 q 324 553 367 582 q 256 476 281 525 q 231 363 231 426 m 350 954 l 293 1011 q 360 1059 326 1043 q 432 1075 394 1075 q 517 1045 488 1075 q 547 972 547 1015 q 526 899 547 932 q 458 828 504 865 l 411 879 q 445 915 435 899 q 456 949 456 931 q 445 976 456 965 q 417 988 435 988 q 385 980 399 988 q 350 954 371 972 z "},"ơ":{"ha":842,"x_min":39,"x_max":801,"o":"m 421 -14 q 261 16 332 -14 q 141 99 190 46 q 65 219 92 151 q 39 363 39 288 q 65 507 39 439 q 141 628 92 575 q 261 710 190 681 q 421 740 332 740 q 580 710 510 740 q 700 628 650 681 q 776 507 750 575 q 801 363 801 439 q 776 219 801 288 q 701 99 750 151 q 581 16 651 46 q 421 -14 510 -14 m 231 363 q 256 249 231 299 q 324 172 281 200 q 421 144 367 144 q 517 173 474 144 q 585 251 560 201 q 611 364 611 300 q 585 476 611 426 q 517 554 560 526 q 421 582 474 582 q 324 553 367 582 q 256 476 281 525 q 231 363 231 426 m 500 599 l 503 726 q 581 734 551 726 q 626 758 610 742 q 645 801 642 778 q 650 850 649 824 l 785 850 q 781 788 785 819 q 764 726 776 756 q 726 668 751 696 q 670 631 706 647 q 591 607 635 615 q 500 599 547 599 z "},"ớ":{"ha":842,"x_min":39,"x_max":801,"o":"m 421 -14 q 261 16 332 -14 q 141 99 190 46 q 65 219 92 151 q 39 363 39 288 q 65 507 39 439 q 141 628 92 575 q 261 710 190 681 q 421 740 332 740 q 580 710 510 740 q 700 628 650 681 q 776 507 750 575 q 801 363 801 439 q 776 219 801 288 q 701 99 750 151 q 581 16 651 46 q 421 -14 510 -14 m 231 363 q 256 249 231 299 q 324 172 281 200 q 421 144 367 144 q 517 173 474 144 q 585 251 560 201 q 611 364 611 300 q 585 476 611 426 q 517 554 560 526 q 421 582 474 582 q 324 553 367 582 q 256 476 281 525 q 231 363 231 426 m 500 599 l 503 726 q 581 734 551 726 q 626 758 610 742 q 645 801 642 778 q 650 850 649 824 l 785 850 q 781 788 785 819 q 764 726 776 756 q 726 668 751 696 q 670 631 706 647 q 591 607 635 615 q 500 599 547 599 m 482 813 l 363 849 l 438 1014 l 611 1014 l 482 813 z "},"ợ":{"ha":842,"x_min":39,"x_max":801,"o":"m 421 -14 q 261 16 332 -14 q 141 99 190 46 q 65 219 92 151 q 39 363 39 288 q 65 507 39 439 q 141 628 92 575 q 261 710 190 681 q 421 740 332 740 q 580 710 510 740 q 700 628 650 681 q 776 507 750 575 q 801 363 801 439 q 776 219 801 288 q 701 99 750 151 q 581 16 651 46 q 421 -14 510 -14 m 231 363 q 256 249 231 299 q 324 172 281 200 q 421 144 367 144 q 517 173 474 144 q 585 251 560 201 q 611 364 611 300 q 585 476 611 426 q 517 554 560 526 q 421 582 474 582 q 324 553 367 582 q 256 476 281 525 q 231 363 231 426 m 500 599 l 503 726 q 581 734 551 726 q 626 758 610 742 q 645 801 642 778 q 650 850 649 824 l 785 850 q 781 788 785 819 q 764 726 776 756 q 726 668 751 696 q 670 631 706 647 q 591 607 635 615 q 500 599 547 599 m 336 -276 l 336 -101 l 504 -101 l 504 -276 l 336 -276 z "},"ờ":{"ha":842,"x_min":39,"x_max":801,"o":"m 421 -14 q 261 16 332 -14 q 141 99 190 46 q 65 219 92 151 q 39 363 39 288 q 65 507 39 439 q 141 628 92 575 q 261 710 190 681 q 421 740 332 740 q 580 710 510 740 q 700 628 650 681 q 776 507 750 575 q 801 363 801 439 q 776 219 801 288 q 701 99 750 151 q 581 16 651 46 q 421 -14 510 -14 m 231 363 q 256 249 231 299 q 324 172 281 200 q 421 144 367 144 q 517 173 474 144 q 585 251 560 201 q 611 364 611 300 q 585 476 611 426 q 517 554 560 526 q 421 582 474 582 q 324 553 367 582 q 256 476 281 525 q 231 363 231 426 m 500 599 l 503 726 q 581 734 551 726 q 626 758 610 742 q 645 801 642 778 q 650 850 649 824 l 785 850 q 781 788 785 819 q 764 726 776 756 q 726 668 751 696 q 670 631 706 647 q 591 607 635 615 q 500 599 547 599 m 247 1015 l 419 1015 l 496 850 l 376 814 l 247 1015 z "},"ở":{"ha":842,"x_min":39,"x_max":801,"o":"m 421 -14 q 261 16 332 -14 q 141 99 190 46 q 65 219 92 151 q 39 363 39 288 q 65 507 39 439 q 141 628 92 575 q 261 710 190 681 q 421 740 332 740 q 580 710 510 740 q 700 628 650 681 q 776 507 750 575 q 801 363 801 439 q 776 219 801 288 q 701 99 750 151 q 581 16 651 46 q 421 -14 510 -14 m 231 363 q 256 249 231 299 q 324 172 281 200 q 421 144 367 144 q 517 173 474 144 q 585 251 560 201 q 611 364 611 300 q 585 476 611 426 q 517 554 560 526 q 421 582 474 582 q 324 553 367 582 q 256 476 281 525 q 231 363 231 426 m 500 599 l 503 726 q 581 734 551 726 q 626 758 610 742 q 645 801 642 778 q 650 850 649 824 l 785 850 q 781 788 785 819 q 764 726 776 756 q 726 668 751 696 q 670 631 706 647 q 591 607 635 615 q 500 599 547 599 m 350 954 l 293 1011 q 360 1059 326 1043 q 432 1075 394 1075 q 517 1045 488 1075 q 547 972 547 1015 q 526 899 547 932 q 458 828 504 865 l 411 879 q 445 915 435 899 q 456 949 456 931 q 445 976 456 965 q 417 988 435 988 q 385 980 399 988 q 350 954 371 972 z "},"ỡ":{"ha":842,"x_min":39,"x_max":801,"o":"m 421 -14 q 261 16 332 -14 q 141 99 190 46 q 65 219 92 151 q 39 363 39 288 q 65 507 39 439 q 141 628 92 575 q 261 710 190 681 q 421 740 332 740 q 580 710 510 740 q 700 628 650 681 q 776 507 750 575 q 801 363 801 439 q 776 219 801 288 q 701 99 750 151 q 581 16 651 46 q 421 -14 510 -14 m 231 363 q 256 249 231 299 q 324 172 281 200 q 421 144 367 144 q 517 173 474 144 q 585 251 560 201 q 611 364 611 300 q 585 476 611 426 q 517 554 560 526 q 421 582 474 582 q 324 553 367 582 q 256 476 281 525 q 231 363 231 426 m 500 599 l 503 726 q 581 734 551 726 q 626 758 610 742 q 645 801 642 778 q 650 850 649 824 l 785 850 q 781 788 785 819 q 764 726 776 756 q 726 668 751 696 q 670 631 706 647 q 591 607 635 615 q 500 599 547 599 m 511 836 q 440 852 469 836 q 385 883 410 868 q 329 899 360 899 q 284 883 299 899 q 266 850 269 867 q 263 832 263 833 l 160 832 q 168 874 160 844 q 195 934 176 903 q 245 988 214 965 q 322 1010 276 1010 q 393 993 365 1010 q 447 960 421 976 q 506 944 472 944 q 554 961 539 944 q 574 994 569 978 q 579 1014 579 1011 l 682 1014 q 674 976 682 1004 q 645 916 665 949 q 592 860 625 883 q 511 836 560 836 z "},"ő":{"ha":842,"x_min":39,"x_max":801,"o":"m 421 -14 q 261 16 332 -14 q 141 99 190 46 q 65 219 92 151 q 39 363 39 288 q 65 507 39 439 q 141 628 92 575 q 261 710 190 681 q 421 740 332 740 q 580 710 510 740 q 700 628 650 681 q 776 507 750 575 q 801 363 801 439 q 776 219 801 288 q 701 99 750 151 q 581 16 651 46 q 421 -14 510 -14 m 231 363 q 256 249 231 299 q 324 172 281 200 q 421 144 367 144 q 517 173 474 144 q 585 251 560 201 q 611 364 611 300 q 585 476 611 426 q 517 554 560 526 q 421 582 474 582 q 324 553 367 582 q 256 476 281 525 q 231 363 231 426 m 333 814 l 242 850 l 308 1015 l 453 1015 l 333 814 m 556 814 l 465 850 l 531 1015 l 676 1015 l 556 814 z "},"ȏ":{"ha":842,"x_min":39,"x_max":801,"o":"m 421 -14 q 261 16 332 -14 q 141 99 190 46 q 65 219 92 151 q 39 363 39 288 q 65 507 39 439 q 141 628 92 575 q 261 710 190 681 q 421 740 332 740 q 580 710 510 740 q 700 628 650 681 q 776 507 750 575 q 801 363 801 439 q 776 219 801 288 q 701 99 750 151 q 581 16 651 46 q 421 -14 510 -14 m 231 363 q 256 249 231 299 q 324 172 281 200 q 421 144 367 144 q 517 173 474 144 q 585 251 560 201 q 611 364 611 300 q 585 476 611 426 q 517 554 560 526 q 421 582 474 582 q 324 553 367 582 q 256 476 281 525 q 231 363 231 426 m 419 931 q 363 900 388 931 q 338 828 338 869 l 238 828 q 289 961 238 908 q 419 1014 340 1014 q 551 961 500 1014 q 601 828 601 908 l 503 828 q 475 901 499 872 q 419 931 451 931 z "},"ō":{"ha":842,"x_min":39,"x_max":801,"o":"m 421 -14 q 261 16 332 -14 q 141 99 190 46 q 65 219 92 151 q 39 363 39 288 q 65 507 39 439 q 141 628 92 575 q 261 710 190 681 q 421 740 332 740 q 580 710 510 740 q 700 628 650 681 q 776 507 750 575 q 801 363 801 439 q 776 219 801 288 q 701 99 750 151 q 581 16 651 46 q 421 -14 510 -14 m 231 363 q 256 249 231 299 q 324 172 281 200 q 421 144 367 144 q 517 173 474 144 q 585 251 560 201 q 611 364 611 300 q 585 476 611 426 q 517 554 560 526 q 421 582 474 582 q 324 553 367 582 q 256 476 281 525 q 231 363 231 426 m 214 879 l 214 994 l 631 994 l 631 879 l 214 879 z "},"ṓ":{"ha":842,"x_min":39,"x_max":801,"o":"m 421 -14 q 261 16 332 -14 q 141 99 190 46 q 65 219 92 151 q 39 363 39 288 q 65 507 39 439 q 141 628 92 575 q 261 710 190 681 q 421 740 332 740 q 580 710 510 740 q 700 628 650 681 q 776 507 750 575 q 801 363 801 439 q 776 219 801 288 q 701 99 750 151 q 581 16 651 46 q 421 -14 510 -14 m 231 363 q 256 249 231 299 q 324 172 281 200 q 421 144 367 144 q 517 173 474 144 q 585 251 560 201 q 611 364 611 300 q 585 476 611 426 q 517 554 560 526 q 421 582 474 582 q 324 553 367 582 q 256 476 281 525 q 231 363 231 426 m 214 879 l 214 994 l 631 994 l 631 879 l 214 879 m 483 1079 l 364 1115 l 439 1281 l 613 1281 l 483 1079 z "},"ṑ":{"ha":842,"x_min":39,"x_max":801,"o":"m 421 -14 q 261 16 332 -14 q 141 99 190 46 q 65 219 92 151 q 39 363 39 288 q 65 507 39 439 q 141 628 92 575 q 261 710 190 681 q 421 740 332 740 q 580 710 510 740 q 700 628 650 681 q 776 507 750 575 q 801 363 801 439 q 776 219 801 288 q 701 99 750 151 q 581 16 651 46 q 421 -14 510 -14 m 231 363 q 256 249 231 299 q 324 172 281 200 q 421 144 367 144 q 517 173 474 144 q 585 251 560 201 q 611 364 611 300 q 585 476 611 426 q 517 554 560 526 q 421 582 474 582 q 324 553 367 582 q 256 476 281 525 q 231 363 231 426 m 214 879 l 214 994 l 631 994 l 631 879 l 214 879 m 249 1281 l 421 1281 l 497 1115 l 378 1079 l 249 1281 z "},"ǫ":{"ha":842,"x_min":39,"x_max":801,"o":"m 421 -14 q 261 16 332 -14 q 141 99 190 46 q 65 219 92 151 q 39 363 39 288 q 65 507 39 439 q 141 628 92 575 q 261 710 190 681 q 421 740 332 740 q 580 710 510 740 q 700 628 650 681 q 776 507 750 575 q 801 363 801 439 q 776 219 801 288 q 701 99 750 151 q 581 16 651 46 q 421 -14 510 -14 m 231 363 q 256 249 231 299 q 324 172 281 200 q 421 144 367 144 q 517 173 474 144 q 585 251 560 201 q 611 364 611 300 q 585 476 611 426 q 517 554 560 526 q 421 582 474 582 q 324 553 367 582 q 256 476 281 525 q 231 363 231 426 m 306 -153 q 340 -58 306 -106 q 447 29 375 -11 l 506 29 l 528 0 q 450 -66 476 -36 q 424 -121 424 -96 q 451 -158 424 -146 q 528 -172 478 -171 l 490 -278 q 380 -252 421 -271 q 322 -207 339 -233 q 306 -153 306 -181 z "},"ø":{"ha":842,"x_min":39,"x_max":801,"o":"m 421 -14 q 261 16 332 -14 q 141 99 190 46 q 65 219 92 151 q 39 363 39 288 q 65 507 39 439 q 141 628 92 575 q 261 710 190 681 q 421 740 332 740 q 580 710 510 740 q 700 628 650 681 q 776 507 750 575 q 801 363 801 439 q 776 219 801 288 q 701 99 750 151 q 581 16 651 46 q 421 -14 510 -14 m 421 144 q 517 173 474 144 q 585 251 560 201 q 611 364 611 300 q 585 476 611 426 q 517 554 560 526 q 421 582 474 582 q 324 553 367 582 q 256 476 281 525 q 231 363 231 426 q 256 249 231 299 q 324 172 281 200 q 421 144 367 144 m 58 -6 l 201 171 l 279 114 l 178 -6 l 58 -6 m 293 131 l 225 181 l 551 608 l 628 568 l 293 131 m 651 579 l 564 624 l 654 733 l 776 733 l 651 579 z "},"ǿ":{"ha":842,"x_min":39,"x_max":801,"o":"m 421 -14 q 261 16 332 -14 q 141 99 190 46 q 65 219 92 151 q 39 363 39 288 q 65 507 39 439 q 141 628 92 575 q 261 710 190 681 q 421 740 332 740 q 580 710 510 740 q 700 628 650 681 q 776 507 750 575 q 801 363 801 439 q 776 219 801 288 q 701 99 750 151 q 581 16 651 46 q 421 -14 510 -14 m 421 144 q 517 173 474 144 q 585 251 560 201 q 611 364 611 300 q 585 476 611 426 q 517 554 560 526 q 421 582 474 582 q 324 553 367 582 q 256 476 281 525 q 231 363 231 426 q 256 249 231 299 q 324 172 281 200 q 421 144 367 144 m 58 -6 l 201 171 l 279 114 l 178 -6 l 58 -6 m 293 131 l 225 181 l 551 608 l 628 568 l 293 131 m 651 579 l 564 624 l 654 733 l 776 733 l 651 579 m 428 813 l 308 849 l 383 1014 l 557 1014 l 428 813 z "},"õ":{"ha":842,"x_min":39,"x_max":801,"o":"m 421 -14 q 261 16 332 -14 q 141 99 190 46 q 65 219 92 151 q 39 363 39 288 q 65 507 39 439 q 141 628 92 575 q 261 710 190 681 q 421 740 332 740 q 580 710 510 740 q 700 628 650 681 q 776 507 750 575 q 801 363 801 439 q 776 219 801 288 q 701 99 750 151 q 581 16 651 46 q 421 -14 510 -14 m 231 363 q 256 249 231 299 q 324 172 281 200 q 421 144 367 144 q 517 173 474 144 q 585 251 560 201 q 611 364 611 300 q 585 476 611 426 q 517 554 560 526 q 421 582 474 582 q 324 553 367 582 q 256 476 281 525 q 231 363 231 426 m 511 836 q 440 852 469 836 q 385 883 410 868 q 329 899 360 899 q 284 883 299 899 q 266 850 269 867 q 263 832 263 833 l 160 832 q 168 874 160 844 q 195 934 176 903 q 245 988 214 965 q 322 1010 276 1010 q 393 993 365 1010 q 447 960 421 976 q 506 944 472 944 q 554 961 539 944 q 574 994 569 978 q 579 1014 579 1011 l 682 1014 q 674 976 682 1004 q 645 916 665 949 q 592 860 625 883 q 511 836 560 836 z "},"ṍ":{"ha":842,"x_min":39,"x_max":801,"o":"m 421 -14 q 261 16 332 -14 q 141 99 190 46 q 65 219 92 151 q 39 363 39 288 q 65 507 39 439 q 141 628 92 575 q 261 710 190 681 q 421 740 332 740 q 580 710 510 740 q 700 628 650 681 q 776 507 750 575 q 801 363 801 439 q 776 219 801 288 q 701 99 750 151 q 581 16 651 46 q 421 -14 510 -14 m 231 363 q 256 249 231 299 q 324 172 281 200 q 421 144 367 144 q 517 173 474 144 q 585 251 560 201 q 611 364 611 300 q 585 476 611 426 q 517 554 560 526 q 421 582 474 582 q 324 553 367 582 q 256 476 281 525 q 231 363 231 426 m 511 836 q 440 852 469 836 q 385 883 410 868 q 329 899 360 899 q 284 883 299 899 q 266 850 269 867 q 263 832 263 833 l 160 832 q 168 874 160 844 q 195 934 176 903 q 245 988 214 965 q 322 1010 276 1010 q 393 993 365 1010 q 447 960 421 976 q 506 944 472 944 q 554 961 539 944 q 574 994 569 978 q 579 1014 579 1011 l 682 1014 q 674 976 682 1004 q 645 916 665 949 q 592 860 625 883 q 511 836 560 836 m 482 1099 l 363 1135 l 438 1300 l 611 1300 l 482 1099 z "}}}
